Samim-Bold.sfdir
StartChar: exclam
Encoding: 33 33 1
Width: 821
GlyphClass: 2
Flags: W
LayerCount: 2
Fore
SplineSet
557 244 m 2,0,-1
 557 57 l 2,1,2
 557 0 557 0 508 0 c 2,3,-1
 315 0 l 2,4,5
 264 0 264 0 264 55 c 2,6,-1
 264 244 l 2,7,8
 264 300 264 300 314 300 c 2,9,-1
 511 300 l 2,10,11
 557 300 557 300 557 244 c 2,0,-1
266.938 1510 m 1,12,-1
 554.01 1510 l 1,13,-1
 532.555 430 l 1,14,-1
 289.469 430 l 1,15,-1
 266.938 1510 l 1,12,-1
EndSplineSet
EndChar
StartChar: quotedbl
Encoding: 34 34 2
Width: 1067
GlyphClass: 2
Flags: W
LayerCount: 2
Fore
SplineSet
862 1483 m 1,0,-1
 862 948 l 1,1,-1
 645 948 l 1,2,-1
 645 1483 l 1,3,-1
 862 1483 l 1,0,-1
422 1483 m 1,4,-1
 422 948 l 1,5,-1
 205 948 l 1,6,-1
 205 1483 l 1,7,-1
 422 1483 l 1,4,-1
EndSplineSet
EndChar
StartChar: numbersign
Encoding: 35 35 3
Width: 1716
GlyphClass: 2
Flags: W
LayerCount: 2
Fore
SplineSet
898.2 1460 m 1,0,-1
 802.2 1075 l 1,1,-1
 1086.79 1075 l 1,2,-1
 1183.79 1460 l 1,3,-1
 1384.17 1460 l 1,4,-1
 1287.17 1075 l 1,5,-1
 1567 1075 l 1,6,-1
 1567 882 l 1,7,-1
 1239.21 882 l 1,8,-1
 1165.17 588 l 1,9,-1
 1452 588 l 1,10,-1
 1452 393 l 1,11,-1
 1118.2 393 l 1,12,-1
 1022.2 10 l 1,13,-1
 821.816 10 l 1,14,-1
 917.816 393 l 1,15,-1
 633.197 393 l 1,16,-1
 537.197 10 l 1,17,-1
 334.816 10 l 1,18,-1
 430.816 393 l 1,19,-1
 149 393 l 1,20,-1
 149 588 l 1,21,-1
 474.766 588 l 1,22,-1
 549.876 882 l 1,23,-1
 264 882 l 1,24,-1
 264 1075 l 1,25,-1
 599.813 1075 l 1,26,-1
 695.813 1460 l 1,27,-1
 898.2 1460 l 1,0,-1
1036.88 882 m 1,28,-1
 752.234 882 l 1,29,-1
 677.124 588 l 1,30,-1
 961.766 588 l 1,31,-1
 1036.88 882 l 1,28,-1
EndSplineSet
EndChar
StartChar: dollar
Encoding: 36 36 4
Width: 1385
GlyphClass: 2
Flags: W
LayerCount: 2
Fore
SplineSet
762.982 11.4492 m 1,0,-1
 762.982 -291 l 1,1,-1
 625.572 -291 l 1,2,-1
 624.605 9.60938 l 1,3,-1
 615.348 9.99219 l 2,4,5
 495.164 14.9609 495.164 14.9609 381.929 37.8125 c 0,6,7
 269.637 59.8867 269.637 59.8867 162 98.9844 c 1,8,-1
 162 337.744 l 1,9,10
 270.961 283.586 270.961 283.586 381.91 253.841 c 0,11,12
 497.437 222.043 497.437 222.043 615.61 218.006 c 2,13,-1
 625.604 217.664 l 1,14,-1
 625.604 547.346 l 1,15,-1
 585.678 554.849 l 1,16,17
 355.543 596.357 355.543 596.357 257.171 684.449 c 0,18,19
 160 771.466 160 771.466 160 936 c 0,20,21
 160 1110.27 160 1110.27 278.843 1207.77 c 0,22,23
 398.729 1306.13 398.729 1306.13 615.345 1315.01 c 2,24,-1
 624.596 1315.39 l 1,25,-1
 625.562 1546 l 1,26,-1
 762.982 1546 l 1,27,-1
 762.982 1319.77 l 1,28,-1
 771.885 1319.03 l 2,29,30
 868.199 1311.07 868.199 1311.07 964.526 1294.14 c 0,31,32
 1059.03 1277.87 1059.03 1277.87 1156 1252.31 c 1,33,-1
 1156 1020.96 l 1,34,35
 1061.92 1059.23 1061.92 1059.23 969.328 1081.23 c 0,36,37
 871.715 1104.94 871.715 1104.94 773.135 1109.99 c 2,38,-1
 762.982 1110.51 l 1,39,-1
 762.982 804.701 l 1,40,-1
 801.969 797.145 l 1,41,42
 1046.49 757.584 1046.49 757.584 1146.76 666.112 c 0,43,44
 1246 575.58 1246 575.58 1246 397 c 0,45,46
 1246 217.777 1246 217.777 1127.72 122.28 c 0,47,48
 1008.22 25.8018 1008.22 25.8018 772.109 11.9844 c 2,49,-1
 762.982 11.4492 l 1,0,-1
614.82 826.066 m 2,50,-1
 625.604 824.779 l 1,51,-1
 625.604 1107.58 l 1,52,-1
 615.385 1106.98 l 2,53,54
 543.568 1102.8 543.568 1102.8 500.026 1066.26 c 0,55,56
 455.332 1028.76 455.332 1028.76 455.332 971 c 0,57,58
 455.332 907.408 455.332 907.408 496.434 870.914 c 0,59,60
 536.412 835.417 536.412 835.417 614.82 826.066 c 2,50,-1
773.68 519.944 m 2,61,-1
 762.982 521.12 l 1,62,-1
 762.982 221.885 l 1,63,-1
 772.768 222.001 l 2,64,65
 860.129 223.038 860.129 223.038 904.756 258.033 c 0,66,67
 950.668 294.035 950.668 294.035 950.668 365 c 0,68,69
 950.668 437.67 950.668 437.67 908.507 474.166 c 0,70,71
 867.547 509.623 867.547 509.623 773.68 519.944 c 2,61,-1
EndSplineSet
EndChar
StartChar: percent
Encoding: 37 37 5
Width: 2012
GlyphClass: 2
Flags: W
LayerCount: 2
Fore
SplineSet
1675.35 559.807 m 0,0,1
 1634.5 626 1634.5 626 1559.05 626 c 128,-1,2
 1483.63 626 1483.63 626 1442.28 559.855 c 0,3,4
 1402.3 495.903 1402.3 495.903 1402.3 379 c 0,5,6
 1402.3 261.126 1402.3 261.126 1441.76 197.193 c 0,7,8
 1482.61 131 1482.61 131 1559.05 131 c 128,-1,9
 1635.52 131 1635.52 131 1675.87 197.243 c 0,10,11
 1715 261.16 1715 261.16 1715 379 c 0,12,13
 1715 495.876 1715 495.876 1675.35 559.807 c 0,0,1
1276.71 668.462 m 128,-1,15
 1379.8 774 1379.8 774 1559.05 774 c 0,16,17
 1738.82 774 1738.82 774 1842.9 668.962 c 128,-1,18
 1947 563.892 1947 563.892 1947 379 c 128,-1,19
 1947 194.081 1947 194.081 1842.85 87.4893 c 128,-1,20
 1738.8 -19 1738.8 -19 1559.05 -19 c 0,21,22
 1379.82 -19 1379.82 -19 1276.75 87.5059 c 128,-1,23
 1173.59 194.088 1173.59 194.088 1173.59 379 c 0,24,14
 1173.59 562.888 1173.59 562.888 1276.71 668.462 c 128,-1,15
1558.35 1510 m 1,25,-1
 649.491 -19 l 1,26,-1
 454.641 -19 l 1,27,-1
 1362.53 1510 l 1,28,-1
 1558.35 1510 l 1,25,-1
169.637 1404.5 m 128,-1,30
 273.201 1510 273.201 1510 452.967 1510 c 0,31,32
 632.187 1510 632.187 1510 734.282 1404.5 c 128,-1,33
 836.448 1298.92 836.448 1298.92 836.448 1114 c 128,-1,34
 836.448 929.076 836.448 929.076 734.266 822.988 c 128,-1,35
 632.18 717 632.18 717 452.967 717 c 0,36,37
 273.208 717 273.208 717 169.652 822.988 c 128,-1,38
 66 929.076 66 929.076 66 1114 c 128,-1,29
 66 1298.92 66 1298.92 169.637 1404.5 c 128,-1,30
569.751 1295.32 m 0,39,40
 528.402 1362 528.402 1362 452.967 1362 c 0,41,42
 376.544 1362 376.544 1362 335.198 1295.32 c 0,43,44
 295 1230.88 295 1230.88 295 1114 c 0,45,46
 295 996.137 295 996.137 335.18 931.206 c 0,47,48
 376.52 864 376.52 864 452.967 864 c 128,-1,49
 529.453 864 529.453 864 570.293 931.255 c 0,50,51
 609.711 996.169 609.711 996.169 609.711 1114 c 0,52,53
 609.711 1230.89 609.711 1230.89 569.751 1295.32 c 0,39,40
EndSplineSet
EndChar
StartChar: ampersand
Encoding: 38 38 6
Width: 1786
GlyphClass: 2
Flags: W
LayerCount: 2
Fore
SplineSet
791.595 984.28 m 2,0,-1
 1208.7 525.36 l 1,1,-1
 1215.97 534.964 l 2,2,3
 1270.01 606.337 1270.01 606.337 1298.04 694.986 c 0,4,5
 1324.68 779.29 1324.68 779.29 1330.51 885 c 1,6,-1
 1621.1 885 l 1,7,8
 1605.33 710.615 1605.33 710.615 1552.19 574.64 c 0,9,10
 1497.38 434.422 1497.38 434.422 1399.66 328.791 c 2,11,-1
 1393.43 322.056 l 1,12,-1
 1677.38 10 l 1,13,-1
 1280.46 10 l 1,14,-1
 1179.65 122.12 l 1,15,-1
 1172.45 117.321 l 2,16,17
 1068.73 48.1668 1068.73 48.1668 954.187 14.5963 c 128,-1,18
 839.561 -19 839.561 -19 711 -19 c 0,19,20
 451.685 -19 451.685 -19 291.987 117.111 c 0,21,22
 133 252.615 133 252.615 133 467 c 0,23,24
 133 610.088 133 610.088 202.94 720.136 c 0,25,26
 273.276 830.807 273.276 830.807 433.475 935.632 c 2,27,-1
 442.639 941.628 l 1,28,-1
 435.837 950.211 l 2,29,30
 394.808 1001.99 394.808 1001.99 375.356 1053.53 c 0,31,32
 356 1104.82 356 1104.82 356 1161 c 0,33,34
 356 1319.08 356 1319.08 479.109 1414.08 c 0,35,36
 603.399 1510 603.399 1510 811 1510 c 0,37,38
 901.265 1510 901.265 1510 999.04 1495.61 c 0,39,40
 1093.25 1481.74 1093.25 1481.74 1196 1454.33 c 1,41,-1
 1196 1200.22 l 1,42,43
 1108.98 1243.2 1108.98 1243.2 1030.64 1264.65 c 0,44,45
 945.33 1288 945.33 1288 864 1288 c 0,46,47
 783.87 1288 783.87 1288 738.798 1256.71 c 0,48,49
 692 1224.23 692 1224.23 692 1165 c 0,50,51
 692 1128.38 692 1128.38 717.787 1082.59 c 0,52,53
 742.83 1038.13 742.83 1038.13 791.595 984.28 c 2,0,-1
594.141 751.104 m 2,54,55
 527.336 702.8 527.336 702.8 493.255 641.35 c 0,56,57
 459 579.586 459 579.586 459 506 c 0,58,59
 459 386.717 459 386.717 547.101 302.761 c 0,60,61
 634.997 219 634.997 219 758 219 c 0,62,63
 826.718 219 826.718 219 886.332 240.072 c 128,-1,64
 945.991 261.159 945.991 261.159 997.341 303.267 c 2,65,-1
 1005.46 309.925 l 1,66,-1
 601.401 756.354 l 1,67,-1
 594.141 751.104 l 2,54,55
EndSplineSet
EndChar
StartChar: quotesingle
Encoding: 39 39 7
Width: 627
GlyphClass: 2
Flags: W
LayerCount: 2
Fore
SplineSet
422 1483 m 1,0,-1
 422 948 l 1,1,-1
 205 948 l 1,2,-1
 205 1483 l 1,3,-1
 422 1483 l 1,0,-1
EndSplineSet
EndChar
StartChar: parenleft
Encoding: 40 40 8
Width: 936
GlyphClass: 2
Flags: W
GlyphCompositionVertical: 3  uni239D%0,0,44,2703 uni239C%1,44,44,2731 uni239B%0,44,0,2740
LayerCount: 2
Fore
SplineSet
755.263 -260 m 1,0,-1
 480.575 -260 l 1,1,2
 330.301 -16.2232 330.301 -16.2232 258.502 202.617 c 0,3,4
 186 423.6 186 423.6 186 641 c 128,-1,5
 186 858.425 186 858.425 259.004 1081.39 c 0,6,7
 331.3 1302.19 331.3 1302.19 480.57 1544 c 1,8,-1
 755.29 1544 l 1,9,10
 632.649 1313.6 632.649 1313.6 570.377 1093.22 c 0,11,12
 506 865.393 506 865.393 506 643 c 128,-1,13
 506 420.614 506 420.614 569.87 192.306 c 0,14,15
 631.669 -28.5993 631.669 -28.5993 755.263 -260 c 1,0,-1
EndSplineSet
EndChar
StartChar: parenright
Encoding: 41 41 3
Width: 936
GlyphClass: 2
Flags: W
GlyphCompositionVertical: 3  uni23A0%0,0,44,2703 uni239F%1,44,44,2731 uni239E%0,44,0,2740
LayerCount: 2
Fore
SplineSet
180.677 -260 m 1,0,1
 303.363 -28.5469 303.363 -28.5469 365.625 192.286 c 0,2,3
 430 420.615 430 420.615 430 643 c 128,-1,4
 430 865.393 430 865.393 365.623 1093.22 c 0,5,6
 303.351 1313.6 303.351 1313.6 180.71 1544 c 1,7,-1
 455.43 1544 l 1,8,9
 604.7 1302.19 604.7 1302.19 676.996 1081.39 c 0,10,11
 750 858.425 750 858.425 750 641 c 128,-1,12
 750 423.578 750 423.578 677.498 202.617 c 0,13,14
 605.685 -16.2472 605.685 -16.2472 455.425 -260 c 1,15,-1
 180.677 -260 l 1,0,1
EndSplineSet
EndChar
StartChar: asterisk
Encoding: 42 42 4
Width: 1071
GlyphClass: 2
Flags: W
LayerCount: 2
Fore
SplineSet
1016.4 1221.16 m 1,0,-1
 678.511 1044.03 l 1,1,-1
 1016.41 865.861 l 1,2,-1
 949.992 742.64 l 1,3,-1
 611 929.951 l 1,4,-1
 611 579 l 1,5,-1
 461 579 l 1,6,-1
 461 929.926 l 1,7,-1
 121.014 742.628 l 1,8,-1
 54.6148 865.817 l 1,9,-1
 396.693 1044.03 l 1,10,-1
 54.6261 1221.2 l 1,11,-1
 121.036 1344.41 l 1,12,-1
 461 1159.16 l 1,13,-1
 461 1510 l 1,14,-1
 611 1510 l 1,15,-1
 611 1159.14 l 1,16,-1
 949.97 1344.4 l 1,17,-1
 1016.4 1221.16 l 1,0,-1
EndSplineSet
EndChar
StartChar: plus
Encoding: 43 43 5
Width: 1716
GlyphClass: 2
Flags: W
LayerCount: 2
Fore
SplineSet
967 1274 m 1,0,-1
 967 750 l 1,1,-1
 1489 750 l 1,2,-1
 1489 534 l 1,3,-1
 967 534 l 1,4,-1
 967 10 l 1,5,-1
 749 10 l 1,6,-1
 749 534 l 1,7,-1
 227 534 l 1,8,-1
 227 750 l 1,9,-1
 749 750 l 1,10,-1
 749 1274 l 1,11,-1
 967 1274 l 1,0,-1
EndSplineSet
EndChar
StartChar: comma
Encoding: 44 44 12
Width: 778
GlyphClass: 2
Flags: W
LayerCount: 2
Fore
SplineSet
219 377 m 1,0,-1
 559 377 l 1,1,-1
 559 85.0108 l 1,2,-1
 316.628 -281 l 1,3,-1
 122.034 -281 l 1,4,-1
 219 80.6828 l 1,5,-1
 219 377 l 1,0,-1
EndSplineSet
EndChar
StartChar: hyphen
Encoding: 45 45 13
Width: 850
GlyphClass: 2
Flags: W
LayerCount: 2
Fore
SplineSet
121 725 m 1,0,-1
 729 725 l 1,1,-1
 729 454 l 1,2,-1
 121 454 l 1,3,-1
 121 725 l 1,0,-1
EndSplineSet
EndChar
StartChar: period
Encoding: 46 46 14
Width: 651
GlyphClass: 2
Flags: W
LayerCount: 2
Fore
SplineSet
472 226 m 6,0,-1
 472 64 l 6,1,2
 472 0 472 0 406 0 c 6,3,-1
 249 0 l 6,4,5
 179 0 179 0 179 68 c 6,6,-1
 179 224 l 6,7,8
 179 300 179 300 248 300 c 6,9,-1
 404 300 l 6,10,11
 472 300 472 300 472 226 c 6,0,-1
EndSplineSet
EndChar
StartChar: slash
Encoding: 47 47 15
Width: 748
GlyphClass: 2
Flags: W
LayerCount: 2
Fore
SplineSet
533.352 1483 m 1,0,-1
 734.39 1483 l 1,1,-1
 213.653 -180 l 1,2,-1
 13.6024 -180 l 1,3,-1
 533.352 1483 l 1,0,-1
EndSplineSet
EndChar
StartChar: zero
Encoding: 48 48 320
Width: 1385
Flags: W
LayerCount: 2
Fore
SplineSet
872.922 344.845 m 0,0,1
 925.324 462.818 925.324 462.818 925.324 748 c 0,2,3
 925.324 1030.18 925.324 1030.18 873.403 1146.67 c 0,4,5
 819.768 1267 819.768 1267 692.986 1267 c 128,-1,6
 566.229 1267 566.229 1267 512.098 1146.7 c 0,7,8
 459.676 1030.2 459.676 1030.2 459.676 748 c 0,9,10
 459.676 462.818 459.676 462.818 512.078 344.845 c 0,11,12
 566.199 223 566.199 223 692.986 223 c 0,13,14
 818.801 223 818.801 223 872.922 344.845 c 0,0,1
1129.17 1312.28 m 0,15,16
 1287 1113.52 1287 1113.52 1287 745 c 0,17,18
 1287 377.495 1287 377.495 1129.17 178.719 c 0,19,20
 974.102 -19 974.102 -19 692.986 -19 c 0,21,22
 410.905 -19 410.905 -19 255.831 178.719 c 0,23,24
 98 377.485 98 377.485 98 745 c 0,25,26
 98 1113.53 98 1113.53 255.831 1312.28 c 0,27,28
 410.917 1510 410.917 1510 692.986 1510 c 4,29,30
 974.091 1510 974.091 1510 1129.17 1312.28 c 0,15,16
EndSplineSet
EndChar
StartChar: one
Encoding: 49 49 321
Width: 1385
Flags: W
LayerCount: 2
Fore
SplineSet
240 10 m 1,0,-1
 240 256 l 1,1,-1
 576.187 256 l 1,2,-1
 576.187 1243.27 l 1,3,-1
 231 1171.27 l 1,4,-1
 231 1412.86 l 1,5,-1
 565.618 1483 l 1,6,-1
 907.481 1483 l 1,7,-1
 907.481 256 l 1,8,-1
 1244 256 l 1,9,-1
 1244 10 l 1,10,-1
 240 10 l 1,0,-1
EndSplineSet
EndChar
StartChar: two
Encoding: 50 50 322
Width: 1385
Flags: W
LayerCount: 2
Fore
SplineSet
875.501 570.516 m 2,0,-1
 548.367 273 l 1,1,-1
 1207 273 l 1,2,-1
 1207 10 l 1,3,-1
 162 10 l 1,4,-1
 162 278.488 l 1,5,-1
 693.344 756.544 l 1,6,7
 765.026 823.696 765.026 823.696 799.583 888.144 c 0,8,9
 834.577 953.406 834.577 953.406 834.577 1024 c 0,10,11
 834.577 1133.43 834.577 1133.43 763.372 1200.4 c 0,12,13
 692.567 1267 692.567 1267 575.923 1267 c 0,14,15
 487.36 1267 487.36 1267 381.615 1227.91 c 0,16,17
 280.693 1191.59 280.693 1191.59 166 1121.9 c 1,18,-1
 166 1424.76 l 1,19,20
 292.248 1465.95 292.248 1465.95 414.501 1487.65 c 0,21,22
 536.245 1510 536.245 1510 653.133 1510 c 0,23,24
 908.401 1510 908.401 1510 1052.28 1394.17 c 0,25,26
 1197 1279.19 1197 1279.19 1197 1073 c 0,27,28
 1197 953.761 1197 953.761 1135.41 850.627 c 0,29,30
 1073.23 746.488 1073.23 746.488 875.501 570.516 c 2,0,-1
EndSplineSet
EndChar
StartChar: three
Encoding: 51 51 323
Width: 1385
Flags: W
LayerCount: 2
Fore
SplineSet
886.561 805.122 m 1,0,-1
 923.284 795.317 l 2,1,2
 1069.31 757.143 1069.31 757.143 1145.74 663.189 c 0,3,4
 1222 569.453 1222 569.453 1222 424 c 0,5,6
 1222 207.295 1222 207.295 1056.38 94.7715 c 0,7,8
 891.77 -19 891.77 -19 579.374 -19 c 0,9,10
 468.894 -19 468.894 -19 357.082 -0.625977 c 0,11,12
 246.271 17.123 246.271 17.123 137 52.2656 c 1,13,-1
 137 325.935 l 1,14,15
 238.951 276.652 238.951 276.652 339 250.817 c 0,16,17
 444.643 223 444.643 223 545.515 223 c 0,18,19
 696.396 223 696.396 223 777.645 277.617 c 0,20,21
 860.887 333.574 860.887 333.574 860.887 438 c 0,22,23
 860.887 545.522 860.887 545.522 775.584 600.966 c 0,24,25
 692.449 655 692.449 655 531.972 655 c 2,26,-1
 392.666 655 l 1,27,-1
 392.666 883 l 1,28,-1
 539.711 883 l 2,29,30
 682.819 883 682.819 883 753.889 930.08 c 0,31,32
 827.028 978.532 827.028 978.532 827.028 1077 c 0,33,34
 827.028 1168.29 827.028 1168.29 756.05 1218.26 c 0,35,36
 686.838 1267 686.838 1267 561.961 1267 c 0,37,38
 470.947 1267 470.947 1267 377.842 1245.76 c 0,39,40
 289.126 1226.16 289.126 1226.16 201 1189.16 c 1,41,-1
 201 1448.4 l 1,42,43
 310.833 1478.73 310.833 1478.73 417.252 1494.1 c 0,44,45
 524.878 1510 524.878 1510 628.712 1510 c 0,46,47
 907.329 1510 907.329 1510 1046.99 1416.16 c 0,48,49
 1187 1323.61 1187 1323.61 1187 1137 c 0,50,51
 1187 1009.6 1187 1009.6 1120.29 928.87 c 0,52,53
 1053.38 847.894 1053.38 847.894 923.34 814.697 c 2,54,-1
 886.561 805.122 l 1,0,-1
EndSplineSet
EndChar
StartChar: four
Encoding: 52 52 324
Width: 1385
Flags: W
LayerCount: 2
Fore
SplineSet
742.557 541 m 1,0,-1
 742.557 1208.68 l 1,1,-1
 303.182 541 l 1,2,-1
 742.557 541 l 1,0,-1
92 598.955 m 1,3,-1
 675.777 1483 l 1,4,-1
 1078 1483 l 1,5,-1
 1078 541 l 1,6,-1
 1291 541 l 1,7,-1
 1291 282 l 1,8,-1
 1078 282 l 1,9,-1
 1078 10 l 1,10,-1
 742.557 10 l 1,11,-1
 742.557 282 l 1,12,-1
 92 282 l 1,13,-1
 92 598.955 l 1,3,-1
EndSplineSet
EndChar
StartChar: five
Encoding: 53 53 325
Width: 1385
Flags: W
LayerCount: 2
Fore
SplineSet
217 667.928 m 1,0,-1
 217 1483 l 1,1,-1
 1134 1483 l 1,2,-1
 1134 1220 l 1,3,-1
 500.727 1220 l 1,4,-1
 500.727 965.907 l 1,5,-1
 512.945 969.353 l 2,6,7
 554.957 981.196 554.957 981.196 597.408 987.602 c 128,-1,8
 639.761 994 639.761 994 685.49 994 c 0,9,10
 945.87 994 945.87 994 1093.32 860.06 c 0,11,12
 1242 726.539 1242 726.539 1242 487 c 0,13,14
 1242 249.713 1242 249.713 1080.12 115.703 c 0,15,16
 919.983 -19 919.983 -19 639.057 -19 c 0,17,18
 517.145 -19 517.145 -19 397.431 5.31152 c 0,19,20
 277.213 28.9697 277.213 28.9697 158 76.7461 c 1,21,-1
 158 355.838 l 1,22,23
 272.855 291.591 272.855 291.591 376.455 258.475 c 0,24,25
 484.702 223 484.702 223 580.049 223 c 0,26,27
 719.037 223 719.037 223 799.618 293.884 c 0,28,29
 880.894 365.379 880.894 365.379 880.894 487 c 0,30,31
 880.894 609.64 880.894 609.64 799.591 680.64 c 0,32,33
 719.02 751 719.02 751 580.049 751 c 0,34,35
 498.668 751 498.668 751 406.673 729.248 c 0,36,37
 318.166 708.982 318.166 708.982 217 667.928 c 1,0,-1
EndSplineSet
EndChar
StartChar: six
Encoding: 54 54 326
Width: 1385
Flags: W
LayerCount: 2
Fore
SplineSet
876.086 677.605 m 0,0,1
 824.163 747 824.163 747 720.409 747 c 0,2,3
 617.625 747 617.625 747 565.702 677.605 c 0,4,5
 514.676 609.41 514.676 609.41 514.676 475 c 128,-1,6
 514.676 340.593 514.676 340.593 565.702 272.395 c 0,7,8
 617.623 203 617.623 203 720.409 203 c 0,9,10
 824.165 203 824.165 203 876.086 272.395 c 0,11,12
 927.111 340.593 927.111 340.593 927.111 475 c 128,-1,13
 927.111 609.41 927.111 609.41 876.086 677.605 c 0,0,1
994.432 1492.13 m 0,14,15
 1085.64 1476.92 1085.64 1476.92 1177 1446.79 c 1,16,-1
 1177 1193.7 l 1,17,18
 1088.75 1234.16 1088.75 1234.16 1011.03 1254.19 c 0,19,20
 928.323 1276 928.323 1276 849.477 1276 c 0,21,22
 678.562 1276 678.562 1276 582.556 1177.59 c 0,23,24
 486.873 1079.51 486.873 1079.51 471.042 887.848 c 2,25,-1
 469.217 865.752 l 1,26,-1
 486.496 878.971 l 2,27,28
 549.238 926.974 549.238 926.974 622.426 950.971 c 128,-1,29
 695.71 975 695.71 975 782.517 975 c 0,30,31
 1000.87 975 1000.87 975 1137.6 843.764 c 0,32,33
 1275 712.713 1275 712.713 1275 500 c 0,34,35
 1275 264.377 1275 264.377 1121.23 122.857 c 0,36,37
 968.925 -19 968.925 -19 716.527 -19 c 0,38,39
 438.752 -19 438.752 -19 284.264 173.802 c 0,40,41
 127 367.548 127 367.548 127 725 c 0,42,43
 127 1091.23 127 1091.23 311 1299.89 c 0,44,45
 490.923 1508 490.923 1508 801.925 1508 c 0,46,47
 901.065 1508 901.065 1508 994.432 1492.13 c 0,14,15
EndSplineSet
EndChar
StartChar: seven
Encoding: 55 55 327
Width: 1385
Flags: W
LayerCount: 2
Fore
SplineSet
137 1220 m 1,0,-1
 137 1483 l 1,1,-1
 1222 1483 l 1,2,-1
 1222 1278.17 l 1,3,-1
 654.416 10 l 1,4,-1
 310.542 10 l 1,5,-1
 845.933 1220 l 1,6,-1
 137 1220 l 1,0,-1
EndSplineSet
EndChar
StartChar: eight
Encoding: 56 56 328
Width: 1385
Flags: W
LayerCount: 2
Fore
SplineSet
858.942 616.479 m 128,-1,1
 800.811 678 800.811 678 692.955 678 c 0,2,3
 584.154 678 584.154 678 525.058 616.011 c 128,-1,4
 466.03 554.092 466.03 554.092 466.03 440 c 128,-1,5
 466.03 325.886 466.03 325.886 525.087 264.459 c 128,-1,6
 584.176 203 584.176 203 692.955 203 c 0,7,8
 800.809 203 800.809 203 858.942 264.521 c 128,-1,9
 916.97 325.932 916.97 325.932 916.97 440 c 0,10,0
 916.97 555.065 916.97 555.065 858.942 616.479 c 128,-1,1
455.394 794.582 m 1,11,-1
 423.25 804.574 l 2,12,13
 291.831 844.687 291.831 844.687 224.764 927.303 c 0,14,15
 158 1009.54 158 1009.54 158 1133 c 0,16,17
 158 1316.81 158 1316.81 294.746 1412.82 c 0,18,19
 431.285 1510 431.285 1510 692.955 1510 c 0,20,21
 952.69 1510 952.69 1510 1089.27 1413.3 c 0,22,23
 1226 1317.8 1226 1317.8 1226 1133 c 0,24,25
 1226 1009.58 1226 1009.58 1158.76 927.33 c 0,26,27
 1091.2 844.694 1091.2 844.694 959.75 804.574 c 2,28,-1
 927.606 794.582 l 1,29,-1
 959.967 785.361 l 2,30,31
 1107.28 744.201 1107.28 744.201 1182.77 652.158 c 0,32,33
 1258 560.425 1258 560.425 1258 420 c 0,34,35
 1258 202.929 1258 202.929 1114.4 92.4248 c 0,36,37
 970.895 -19 970.895 -19 692.955 -19 c 0,38,39
 414.032 -19 414.032 -19 269.572 92.4453 c 0,40,41
 125 202.946 125 202.946 125 420 c 0,42,43
 125 560.42 125 560.42 200.232 652.158 c 0,44,45
 275.713 744.2 275.713 744.2 423.033 785.361 c 2,46,-1
 455.394 794.582 l 1,11,-1
548.982 1237.18 m 128,-1,48
 498.032 1186.23 498.032 1186.23 498.032 1094 c 0,49,50
 498.032 1000.77 498.032 1000.77 548.982 949.821 c 128,-1,51
 599.804 899 599.804 899 692.955 899 c 0,52,53
 784.191 899 784.191 899 834.538 949.856 c 128,-1,54
 884.968 1000.8 884.968 1000.8 884.968 1094 c 128,-1,55
 884.968 1187.23 884.968 1187.23 834.501 1237.68 c 128,-1,56
 784.163 1288 784.163 1288 692.955 1288 c 0,57,47
 599.804 1288 599.804 1288 548.982 1237.18 c 128,-1,48
EndSplineSet
EndChar
StartChar: nine
Encoding: 57 57 329
Width: 1385
Flags: W
LayerCount: 2
Fore
SplineSet
383.623 -3.62793 m 0,0,1
 293.337 11.1064 293.337 11.1064 205 40.2061 c 1,2,-1
 205 293.394 l 1,3,4
 290.375 254.813 290.375 254.813 368.025 234.812 c 0,5,6
 450.728 213 450.728 213 531.523 213 c 0,7,8
 702.447 213 702.447 213 798.444 311.41 c 0,9,10
 894.102 409.474 894.102 409.474 910.924 601.1 c 2,11,-1
 912.864 623.205 l 1,12,-1
 895.511 610.057 l 2,13,14
 830.779 561.01 830.779 561.01 757.549 536.512 c 128,-1,15
 684.281 512 684.281 512 598.483 512 c 0,16,17
 380.123 512 380.123 512 243.389 642.749 c 0,18,19
 106 773.298 106 773.298 106 987 c 0,20,21
 106 1223.62 106 1223.62 259.297 1365.66 c 0,22,23
 411.104 1508 411.104 1508 662.532 1508 c 0,24,25
 941.27 1508 941.27 1508 1096.24 1314.7 c 0,26,27
 1254 1120.46 1254 1120.46 1254 764 c 0,28,29
 1254 397.795 1254 397.795 1069.51 189.124 c 0,30,31
 889.129 -19 889.129 -19 577.134 -19 c 0,32,33
 476.016 -19 476.016 -19 383.623 -3.62793 c 0,0,1
505.428 811.356 m 0,34,35
 557.838 742 557.838 742 660.591 742 c 128,-1,36
 763.345 742 763.345 742 815.755 811.356 c 0,37,38
 867.294 879.562 867.294 879.562 867.294 1014 c 0,39,40
 867.294 1147.42 867.294 1147.42 815.777 1216.11 c 0,41,42
 763.368 1286 763.368 1286 660.591 1286 c 128,-1,43
 557.814 1286 557.814 1286 505.406 1216.11 c 0,44,45
 453.889 1147.42 453.889 1147.42 453.889 1014 c 0,46,47
 453.889 879.562 453.889 879.562 505.428 811.356 c 0,34,35
EndSplineSet
EndChar
StartChar: colon
Encoding: 58 58 16
Width: 819
GlyphClass: 2
Flags: W
LayerCount: 2
Fore
SplineSet
239 1110 m 1,0,-1
 580 1110 l 1,1,-1
 580 743 l 1,2,-1
 239 743 l 1,3,-1
 239 1110 l 1,0,-1
239 377 m 1,4,-1
 580 377 l 1,5,-1
 580 10 l 1,6,-1
 239 10 l 1,7,-1
 239 377 l 1,4,-1
EndSplineSet
EndChar
StartChar: semicolon
Encoding: 59 59 17
Width: 819
GlyphClass: 2
Flags: W
LayerCount: 2
Fore
SplineSet
239 377 m 1,0,-1
 580 377 l 1,1,-1
 580 85.021 l 1,2,-1
 336.64 -281 l 1,3,-1
 142.034 -281 l 1,4,-1
 239 80.6828 l 1,5,-1
 239 377 l 1,0,-1
239 1110 m 1,6,-1
 580 1110 l 1,7,-1
 580 743 l 1,8,-1
 239 743 l 1,9,-1
 239 1110 l 1,6,-1
EndSplineSet
EndChar
StartChar: less
Encoding: 60 60 18
Width: 1716
GlyphClass: 2
Flags: W
LayerCount: 2
Fore
SplineSet
1489 980.132 m 1,0,-1
 504.207 640.971 l 1,1,-1
 1489 303.854 l 1,2,-1
 1489 75.2437 l 1,3,-1
 227 531.021 l 1,4,-1
 227 752.979 l 1,5,-1
 1489 1208.76 l 1,6,-1
 1489 980.132 l 1,0,-1
EndSplineSet
EndChar
StartChar: equal
Encoding: 61 61 9
Width: 1716
GlyphClass: 2
Flags: W
GlyphCompositionHorizontal: 2  equal%0,0,44,1433 equal%1,44,0,1433
LayerCount: 2
Fore
SplineSet
227 977 m 1,0,-1
 1489 977 l 1,1,-1
 1489 762 l 1,2,-1
 227 762 l 1,3,-1
 227 977 l 1,0,-1
227 522 m 1,4,-1
 1489 522 l 1,5,-1
 1489 305 l 1,6,-1
 227 305 l 1,7,-1
 227 522 l 1,4,-1
EndSplineSet
EndChar
StartChar: greater
Encoding: 62 62 20
Width: 1716
GlyphClass: 2
Flags: W
LayerCount: 2
Fore
SplineSet
227 980.135 m 1,0,-1
 227 1208.76 l 1,1,-1
 1489 752.979 l 1,2,-1
 1489 531.021 l 1,3,-1
 227 75.2437 l 1,4,-1
 227 303.851 l 1,5,-1
 1212.82 640.971 l 1,6,-1
 227 980.135 l 1,0,-1
EndSplineSet
EndChar
StartChar: question
Encoding: 63 63 21
Width: 1188
GlyphClass: 2
Flags: W
LayerCount: 2
Fore
SplineSet
699 514 m 1,0,-1
 358 514 l 1,1,-1
 358 553 l 2,2,3
 358 632.555 358 632.555 389.873 693.889 c 0,4,5
 422.069 755.842 422.069 755.842 526.715 852.59 c 1,6,-1
 590.74 910.612 l 2,7,8
 648.885 963.656 648.885 963.656 676.165 1011.01 c 0,9,10
 704 1059.32 704 1059.32 704 1108 c 0,11,12
 704 1182.72 704 1182.72 652.354 1225.22 c 0,13,14
 601.582 1267 601.582 1267 512 1267 c 0,15,16
 429.273 1267 429.273 1267 333.643 1232.92 c 0,17,18
 245.866 1201.64 245.866 1201.64 151 1142.23 c 1,19,-1
 151 1430.87 l 1,20,21
 267.686 1470.93 267.686 1470.93 363.961 1490.19 c 0,22,23
 462.966 1510 462.966 1510 555 1510 c 0,24,25
 795.584 1510 795.584 1510 920.863 1412.6 c 0,26,27
 1045 1316.1 1045 1316.1 1045 1130 c 0,28,29
 1045 1034.37 1045 1034.37 1007.07 958.995 c 0,30,31
 968.849 883.053 968.849 883.053 876.236 795.367 c 1,32,-1
 812.304 738.427 l 1,33,34
 743.063 675.294 743.063 675.294 721.275 636.386 c 0,35,36
 699 596.608 699 596.608 699 549 c 2,37,-1
 699 514 l 1,0,-1
358 346 m 1,38,-1
 699 346 l 1,39,-1
 699 10 l 1,40,-1
 358 10 l 1,41,-1
 358 346 l 1,38,-1
EndSplineSet
EndChar
StartChar: at
Encoding: 64 64 22
Width: 2048
GlyphClass: 2
Flags: W
LayerCount: 2
Fore
SplineSet
821 539 m 0,0,1
 821 412.704 821 412.704 875.459 339.055 c 0,2,3
 930.958 264 930.958 264 1026 264 c 0,4,5
 1120.04 264 1120.04 264 1176.03 339.545 c 0,6,7
 1231 413.701 1231 413.701 1231 539 c 0,8,9
 1231 663.365 1231 663.365 1175.47 736.545 c 0,10,11
 1118.96 811 1118.96 811 1024 811 c 0,12,13
 930.98 811 930.98 811 875.48 736.473 c 0,14,15
 821 663.316 821 663.316 821 539 c 0,0,1
1231.79 241.892 m 2,16,17
 1203.07 173.923 1203.07 173.923 1139.39 136.098 c 0,18,19
 1075.25 98 1075.25 98 989 98 c 0,20,21
 821.58 98 821.58 98 717.069 219.035 c 0,22,23
 612 340.716 612 340.716 612 537 c 128,-1,24
 612 733.268 612 733.268 717.567 855.462 c 0,25,26
 822.567 977 822.567 977 989 977 c 0,27,28
 1075.22 977 1075.22 977 1139.35 938.431 c 0,29,30
 1203.06 900.106 1203.06 900.106 1231.79 832.108 c 2,31,-1
 1251 786.641 l 1,32,-1
 1251 957 l 1,33,-1
 1440 957 l 1,34,-1
 1440 262.351 l 1,35,-1
 1451.51 264.115 l 2,36,37
 1579.71 283.76 1579.71 283.76 1653.17 387.73 c 0,38,39
 1726 490.82 1726 490.82 1726 651 c 0,40,41
 1726 752.607 1726 752.607 1696.49 841.646 c 128,-1,42
 1666.93 930.853 1666.93 930.853 1606.83 1005.22 c 1,43,44
 1510.41 1129.04 1510.41 1129.04 1365.7 1196.07 c 0,45,46
 1221.22 1263 1221.22 1263 1053 1263 c 0,47,48
 935.599 1263 935.599 1263 828.235 1232.11 c 128,-1,49
 720.797 1201.2 720.797 1201.2 629.479 1141.34 c 0,50,51
 479.355 1041.93 479.355 1041.93 395.666 884.187 c 128,-1,52
 312 726.486 312 726.486 312 543 c 0,53,54
 312 392.026 312 392.026 366.247 259.707 c 128,-1,55
 420.514 127.34 420.514 127.34 523.001 25.8579 c 0,56,57
 624.439 -73.5488 624.439 -73.5488 755.805 -125.792 c 128,-1,58
 887.081 -178 887.081 -178 1036 -178 c 0,59,60
 1163.81 -178 1163.81 -178 1291.49 -130.369 c 0,61,62
 1412.69 -85.1592 1412.69 -85.1592 1500.99 -9.10147 c 1,63,-1
 1596.53 -153.744 l 1,64,65
 1475.51 -245.718 1475.51 -245.718 1334.2 -295.059 c 0,66,67
 1188.31 -346 1188.31 -346 1038 -346 c 0,68,69
 854.916 -346 854.916 -346 692.709 -281.213 c 128,-1,70
 530.56 -216.45 530.56 -216.45 403.987 -92.8456 c 128,-1,71
 277.479 30.6941 277.479 30.6941 211.261 193.272 c 128,-1,72
 145 355.957 145 355.957 145 543 c 0,73,74
 145 723.019 145 723.019 212.246 886.19 c 128,-1,75
 279.493 1049.37 279.493 1049.37 404.014 1172.87 c 0,76,77
 528.622 1295.5 528.622 1295.5 694.262 1362.73 c 128,-1,78
 859.981 1430 859.981 1430 1038 1430 c 0,79,80
 1259.8 1430 1259.8 1430 1440.77 1345.44 c 128,-1,81
 1621.57 1260.96 1621.57 1260.96 1743.06 1101.92 c 0,82,83
 1817.04 1005.27 1817.04 1005.27 1855.02 892.313 c 128,-1,84
 1893 779.367 1893 779.367 1893 655 c 0,85,86
 1893 388.388 1893 388.388 1733.23 241.358 c 0,87,88
 1573.1 94 1573.1 94 1280 94 c 2,89,-1
 1251 94 l 1,90,-1
 1251 287.359 l 1,91,-1
 1231.79 241.892 l 2,16,17
EndSplineSet
EndChar
StartChar: bracketleft
Encoding: 91 91 23
Width: 936
GlyphClass: 2
Flags: W
GlyphCompositionVertical: 3  uni23A3%0,0,44,2703 uni23A2%1,44,44,2731 uni23A1%0,44,0,2699
LayerCount: 2
Fore
SplineSet
186 1546 m 1,0,-1
 787 1546 l 1,1,-1
 787 1341 l 1,2,-1
 506 1341 l 1,3,-1
 506 -55 l 1,4,-1
 787 -55 l 1,5,-1
 787 -260 l 1,6,-1
 186 -260 l 1,7,-1
 186 1546 l 1,0,-1
EndSplineSet
EndChar
StartChar: backslash
Encoding: 92 92 24
Width: 748
GlyphClass: 2
Flags: W
LayerCount: 2
Fore
SplineSet
533.352 -180 m 1,0,-1
 13.6024 1483 l 1,1,-1
 213.653 1483 l 1,2,-1
 734.39 -180 l 1,3,-1
 533.352 -180 l 1,0,-1
EndSplineSet
EndChar
StartChar: bracketright
Encoding: 93 93 25
Width: 936
GlyphClass: 2
Flags: W
GlyphCompositionVertical: 3  uni23A6%0,0,44,2687 uni23A5%1,44,44,2713 uni23A4%0,44,0,2699
LayerCount: 2
Fore
SplineSet
750 -260 m 1,0,-1
 149 -260 l 1,1,-1
 149 -55 l 1,2,-1
 430 -55 l 1,3,-1
 430 1341 l 1,4,-1
 149 1341 l 1,5,-1
 149 1546 l 1,6,-1
 750 1546 l 1,7,-1
 750 -260 l 1,0,-1
EndSplineSet
EndChar
StartChar: asciicircum
Encoding: 94 94 26
Width: 1716
GlyphClass: 2
Flags: W
LayerCount: 2
Fore
SplineSet
976.701 1483 m 1,0,-1
 1485.74 946 l 1,1,-1
 1271.28 946 l 1,2,-1
 857.993 1249.41 l 1,3,-1
 445.717 946 l 1,4,-1
 230.258 946 l 1,5,-1
 739.299 1483 l 1,6,-1
 976.701 1483 l 1,0,-1
EndSplineSet
EndChar
StartChar: underscore
Encoding: 95 95 27
Width: 1024
GlyphClass: 2
Flags: W
GlyphCompositionHorizontal: 2  underscore%0,0,44,1188 underscore%1,44,0,1188
LayerCount: 2
Fore
SplineSet
1014 -303 m 1,0,-1
 1014 -473 l 1,1,-1
 10 -473 l 1,2,-1
 10 -303 l 1,3,-1
 1014 -303 l 1,0,-1
EndSplineSet
EndChar
StartChar: grave
Encoding: 96 96 28
Width: 1024
GlyphClass: 2
Flags: W
LayerCount: 2
Fore
SplineSet
372 1628 m 1,0,-1
 639 1272 l 1,1,-1
 467.197 1272 l 1,2,-1
 117.825 1628 l 1,3,-1
 372 1628 l 1,0,-1
EndSplineSet
EndChar
StartChar: braceleft
Encoding: 123 123 29
Width: 1458
GlyphClass: 2
Flags: W
GlyphCompositionVertical: 5  uni23A9%0,0,44,2700 uni23AA%1,44,44,2742 uni23A8%0,44,44,2727 uni23AA%1,44,44,2742 uni23A7%0,44,0,2719
LayerCount: 2
Fore
SplineSet
1192 -119 m 1,0,-1
 1192 -324 l 1,1,-1
 985 -324 l 2,2,3
 770.776 -324 770.776 -324 673.606 -238.493 c 0,4,5
 577 -153.481 577 -153.481 577 35 c 2,6,-1
 577 227 l 2,7,8
 577 380.91 577 380.91 520.348 442.283 c 0,9,10
 463.378 504 463.378 504 317 504 c 2,11,-1
 266 504 l 1,12,-1
 266 707 l 1,13,-1
 317 707 l 2,14,15
 463.353 707 463.353 707 520.319 768.186 c 0,16,17
 577 829.066 577 829.066 577 983 c 2,18,-1
 577 1188 l 2,19,20
 577 1376.47 577 1376.47 673.585 1460.97 c 0,21,22
 770.764 1546 770.764 1546 985 1546 c 2,23,-1
 1192 1546 l 1,24,-1
 1192 1341 l 1,25,-1
 1133 1341 l 2,26,27
 987.787 1341 987.787 1341 942.347 1294.49 c 128,-1,28
 897 1248.07 897 1248.07 897 1102 c 2,29,-1
 897 936 l 2,30,31
 897 781.904 897 781.904 853.554 713.353 c 0,32,33
 810.762 645.836 810.762 645.836 704.784 621.751 c 2,34,-1
 663.332 612.33 l 1,35,-1
 704.636 602.283 l 2,36,37
 811.684 576.248 811.684 576.248 854.027 508.689 c 0,38,39
 897 440.125 897 440.125 897 287 c 2,40,-1
 897 121 l 2,41,42
 897 -26.0754 897 -26.0754 942.347 -72.4884 c 128,-1,43
 987.791 -119 987.791 -119 1133 -119 c 2,44,-1
 1192 -119 l 1,0,-1
EndSplineSet
EndChar
StartChar: bar
Encoding: 124 124 30
Width: 748
GlyphClass: 2
Flags: W
GlyphCompositionVertical: 2  bar%0,0,44,2287 bar%1,44,0,2287
LayerCount: 2
Fore
SplineSet
477 1555 m 1,0,-1
 477 -473 l 1,1,-1
 270 -473 l 1,2,-1
 270 1555 l 1,3,-1
 477 1555 l 1,0,-1
EndSplineSet
EndChar
StartChar: braceright
Encoding: 125 125 13
Width: 1458
GlyphClass: 2
Flags: W
GlyphCompositionVertical: 5  uni23AD%0,0,44,2700 uni23AA%1,44,44,2742 uni23AC%0,44,44,2727 uni23AA%1,44,44,2742 uni23AB%0,44,0,2719
LayerCount: 2
Fore
SplineSet
266 -119 m 1,0,-1
 326 -119 l 2,1,2
 470.209 -119 470.209 -119 515.653 -72.4884 c 128,-1,3
 561 -26.0753 561 -26.0753 561 121 c 2,4,-1
 561 287 l 2,5,6
 561 440.099 561 440.099 604.446 508.647 c 0,7,8
 647.288 576.241 647.288 576.241 754.364 602.283 c 2,9,-1
 795.849 612.375 l 1,10,-1
 754.197 621.756 l 2,11,12
 647.231 645.847 647.231 645.847 604.446 713.353 c 0,13,14
 561 781.904 561 781.904 561 936 c 2,15,-1
 561 1102 l 2,16,17
 561 1248.07 561 1248.07 515.653 1294.49 c 128,-1,18
 470.213 1341 470.213 1341 326 1341 c 2,19,-1
 266 1341 l 1,20,-1
 266 1546 l 1,21,-1
 473 1546 l 2,22,23
 687.236 1546 687.236 1546 784.415 1460.97 c 0,24,25
 881 1376.47 881 1376.47 881 1188 c 2,26,-1
 881 983 l 2,27,28
 881 829.066 881 829.066 937.681 768.186 c 0,29,30
 994.647 707 994.647 707 1141 707 c 2,31,-1
 1192 707 l 1,32,-1
 1192 504 l 1,33,-1
 1141 504 l 2,34,35
 994.622 504 994.622 504 937.652 442.283 c 0,36,37
 881 380.91 881 380.91 881 227 c 2,38,-1
 881 35 l 2,39,40
 881 -153.481 881 -153.481 784.394 -238.493 c 0,41,42
 687.224 -324 687.224 -324 473 -324 c 2,43,-1
 266 -324 l 1,44,-1
 266 -119 l 1,0,-1
EndSplineSet
EndChar
StartChar: asciitilde
Encoding: 126 126 32
Width: 1716
GlyphClass: 2
Flags: W
LayerCount: 2
Fore
SplineSet
1489 828.987 m 1,0,-1
 1489 610.993 l 1,1,2
 1386.15 534.077 1386.15 534.077 1299.9 500.831 c 0,3,4
 1212.14 467 1212.14 467 1118 467 c 0,5,6
 1012.95 467 1012.95 467 871.85 524.23 c 0,7,8
 858.359 530.012 858.359 530.012 849.721 533.285 c 0,9,10
 842.189 536.495 842.189 536.495 827.662 542.305 c 0,11,12
 670.896 604 670.896 604 575 604 c 0,13,14
 484.871 604 484.871 604 396.914 564.627 c 0,15,16
 317.076 528.889 317.076 528.889 227 455.331 c 1,17,-1
 227 672.98 l 1,18,19
 330.822 749.918 330.822 749.918 416.614 783.176 c 0,20,21
 503.867 817 503.867 817 598 817 c 0,22,23
 703.046 817 703.046 817 844.286 759.715 c 0,24,25
 859.177 753.758 859.177 753.758 866.061 750.809 c 0,26,27
 873.157 747.768 873.157 747.768 888.338 741.695 c 0,28,29
 1045.1 680 1045.1 680 1141 680 c 0,30,31
 1229.12 680 1229.12 680 1315.56 718.36 c 0,32,33
 1394.49 753.39 1394.49 753.39 1489 828.987 c 1,0,-1
EndSplineSet
EndChar
StartChar: guillemotleft
Encoding: 171 171 318
Width: 1323
Flags: W
LayerCount: 2
Fore
SplineSet
642.383 998.098 m 5,0,-1
 587.145 900.966 l 6,1,2
 529.855 800.236 529.855 800.236 501.451 702.672 c 4,3,4
 472.41 602.927 472.41 602.927 472.41 500.617 c 132,-1,5
 472.41 398.253 472.41 398.253 501.48 297.742 c 4,6,7
 529.865 199.598 529.865 199.598 587.072 99.4072 c 6,8,-1
 642.59 2.17773 l 5,9,-1
 429.035 2.17773 l 5,10,-1
 409.889 32.3398 l 6,11,12
 334.885 150.479 334.885 150.479 297.17 265.366 c 4,13,14
 258.41 383.494 258.41 383.494 258.41 500.617 c 4,15,16
 258.41 617.344 258.41 617.344 297.195 734.985 c 4,17,18
 334.883 849.295 334.883 849.295 409.83 967.833 c 6,19,-1
 428.965 998.098 l 5,20,-1
 642.383 998.098 l 5,0,-1
1064.38 998.098 m 5,21,-1
 1009.14 900.966 l 6,22,23
 951.852 800.22 951.852 800.22 923.451 702.672 c 4,24,25
 894.41 602.928 894.41 602.928 894.41 500.617 c 132,-1,26
 894.41 398.253 894.41 398.253 923.48 297.742 c 4,27,28
 951.863 199.601 951.863 199.601 1009.07 99.4072 c 6,29,-1
 1064.59 2.17773 l 5,30,-1
 851.035 2.17773 l 5,31,-1
 831.889 32.3398 l 6,32,33
 756.877 150.501 756.877 150.501 719.17 265.366 c 4,34,35
 680.41 383.494 680.41 383.494 680.41 500.617 c 4,36,37
 680.41 617.344 680.41 617.344 719.195 734.985 c 4,38,39
 756.887 849.304 756.887 849.304 831.83 967.833 c 6,40,-1
 850.965 998.098 l 5,41,-1
 1064.38 998.098 l 5,21,-1
EndSplineSet
EndChar
StartChar: guillemotright
Encoding: 187 187 289
Width: 998
Flags: W
LayerCount: 2
Fore
SplineSet
734.798828125 1006.14550781 m 2,0,1
 897.9453125 748.109375 897.9453125 748.109375 897.9453125 515.66796875 c 128,-1,2
 897.9453125 283.183533687 897.9453125 283.183533687 734.72265625 26.060546875 c 2,3,-1
 721.466796875 5.177734375 l 1,4,-1
 478.374023438 5.177734375 l 1,5,-1
 544.995117188 121.852539062 l 2,6,7
 657.9453125 319.672851562 657.9453125 319.672851562 657.9453125 515.712402344 c 128,-1,8
 657.9453125 711.751953125 657.9453125 711.751953125 544.91015625 910.5390625 c 2,9,-1
 478.624023438 1027.09765625 l 1,10,-1
 721.551757812 1027.09765625 l 1,11,-1
 734.798828125 1006.14550781 l 2,0,1
358.798828125 1006.14550781 m 2,12,13
 521.9453125 748.109375 521.9453125 748.109375 521.9453125 515.663085938 c 128,-1,14
 521.9453125 283.172851562 521.9453125 283.172851562 358.72265625 26.0595703125 c 2,15,-1
 345.465820312 5.177734375 l 1,16,-1
 102.374023438 5.177734375 l 1,17,-1
 168.995117188 121.852539062 l 2,18,19
 281.9453125 319.672851562 281.9453125 319.672851562 281.9453125 515.712402344 c 128,-1,20
 281.9453125 711.751953125 281.9453125 711.751953125 168.91015625 910.5390625 c 2,21,-1
 102.624023438 1027.09765625 l 1,22,-1
 345.551757812 1027.09765625 l 1,23,-1
 358.798828125 1006.14550781 l 2,12,13
EndSplineSet
EndChar
StartChar: afii57388
Encoding: 1548 1548 34
Width: 664
GlyphClass: 2
Flags: W
LayerCount: 2
Fore
SplineSet
363.19 343.883 m 5,0,1
 440.551 339.992 440.551 339.992 471.298 324.002 c 4,2,3
 522.258 296.5 522.258 296.5 522.258 248.32 c 6,4,-1
 522.258 91.6504 l 6,5,6
 522.258 -0.859375 522.258 -0.859375 439.357 -0.859375 c 6,7,-1
 273.147 -0.859375 l 6,8,9
 185.327 4.98529 185.327 4.98529 185.327 88.8809 c 6,10,-1
 185.327 256.672 l 5,11,-1
 185.543 259.015 l 6,12,13
 206.199 483.071 206.199 483.071 412.729 658.691 c 6,14,-1
 438.406 680.525 l 5,15,-1
 564.269 606.1 l 5,16,17
 414.182 518.003 414.182 518.003 363.19 343.883 c 5,0,1
EndSplineSet
EndChar
StartChar: uni061B
Encoding: 1563 1563 36
Width: 698
GlyphClass: 2
Flags: W
LayerCount: 2
Fore
SplineSet
149.834 630.936 m 0,0,1
 137.377 689.153 137.377 689.153 158.873 782.769 c 0,2,3
 197.811 952.353 197.811 952.353 375.895 1121.33 c 2,4,-1
 386.023 1130.94 l 1,5,-1
 604.76 1130.94 l 1,6,-1
 528.648 1068.82 l 2,7,8
 381.693 948.888 381.693 948.888 357.158 812.839 c 1,9,10
 429.643 803.314 429.643 803.314 465.52 753.39 c 128,-1,11
 501.398 703.465 501.398 703.465 496.889 625.021 c 0,12,13
 493.188 559.822 493.188 559.822 445.197 526.379 c 128,-1,14
 397.207 492.937 397.207 492.937 319.945 492.937 c 0,15,16
 252.959 492.937 252.959 492.937 208.422 529.092 c 128,-1,17
 163.887 565.247 163.887 565.247 149.834 630.936 c 0,0,1
184.55 334.903 m 1,18,-1
 468.214 334.903 l 1,19,-1
 468.214 7.99002 l 1,20,-1
 184.55 7.99002 l 1,21,-1
 184.55 334.903 l 1,18,-1
EndSplineSet
EndChar
StartChar: uni061F
Encoding: 1567 1567 8
Width: 1093
GlyphClass: 2
Flags: W
LayerCount: 2
Fore
SplineSet
745.5 77.2998046875 m 2,0,1
 745.5 35.9155922901 745.5 35.9155922901 720.856933594 18.1076984888 c 128,-1,2
 696.213867188 0.2998046875 696.213867188 0.2998046875 674.5 0.2998046875 c 2,3,-1
 532.5 0.2998046875 l 2,4,5
 500.141328832 0.2998046875 500.141328832 0.2998046875 484.063340197 16.32421875 c 0,6,7
 458.5 41.8023775824 458.5 41.8023775824 458.5 77.2998046875 c 2,8,-1
 458.5 219.299804688 l 2,9,10
 458.5 253.218817639 458.5 253.218817639 479.065429688 273.759311163 c 128,-1,11
 499.630859375 294.299804688 499.630859375 294.299804688 532.5 294.299804688 c 2,12,-1
 671.5 294.299804688 l 2,13,14
 704.639648438 294.299804688 704.639648438 294.299804688 725.069335938 273.869140625 c 128,-1,15
 745.5 253.439453125 745.5 253.439453125 745.5 220.299804688 c 2,16,-1
 745.5 77.2998046875 l 2,0,1
468 450 m 5,17,-1
 468 479 l 6,18,19
 468 537 468 537 460.524414062 559.134765625 c 0,20,21
 445 605 445 605 395.353515625 654.639648438 c 0,22,23
 382 668 382 668 373.108398438 677.1484375 c 2,24,-1
 285.415039062 762.848632812 l 2,25,26
 112 932 112 932 112 1064.5546875 c 0,27,28
 112 1334 112 1334 327.84765625 1433.51171875 c 0,29,30
 429 1480 429 1480 547.685546875 1480 c 0,31,32
 767.209679473 1480 767.209679473 1480 960.818359375 1365.03417969 c 2,33,-1
 996.823242188 1343.65429688 l 1,34,-1
 892.717773438 1135.58886719 l 1,35,-1
 852.1484375 1156.73046875 l 2,36,37
 572 1303 572 1303 442.909179688 1193.875 c 0,38,39
 391 1150 391 1150 391 1079 c 0,40,41
 391 1039 391 1039 410.768554688 1002.66796875 c 0,42,43
 431.847076103 965.271311372 431.847076103 965.271311372 487.829101562 909.911132812 c 2,44,-1
 577.766601562 820.97265625 l 2,45,46
 676 724 676 724 697.9609375 672.064453125 c 0,47,48
 735 586 735 586 735 477 c 2,49,-1
 735 450 l 5,50,-1
 468 450 l 5,17,-1
EndSplineSet
EndChar
StartChar: uni0621
Encoding: 1569 1569 38
Width: 802
VWidth: 2232
GlyphClass: 2
Flags: W
AnchorPoint: "Anchor-7" 450 -188 basechar 0
AnchorPoint: "Anchor-10" 379.5 1140.5 basechar 0
LayerCount: 2
Fore
SplineSet
129.809 223.73 m 2,0,1
 183 235.887 183 235.887 240.774 257.136 c 1,2,-1
 243.53 258.203 l 1,3,4
 169.827 296.014 169.827 296.014 131.798 361.051 c 128,-1,5
 93.7676 426.088 93.7676 426.088 93.7676 511.414 c 0,6,7
 93.7676 604.663 93.7676 604.663 131.983 677.736 c 128,-1,8
 170.199 750.81 170.199 750.81 244.423 796.546 c 0,9,10
 388.432 885.283 388.432 885.283 604.049 837.568 c 2,11,-1
 644.029 828.722 l 1,12,-1
 644.029 591.146 l 1,13,-1
 579.175 609.453 l 2,14,15
 509.547 629.107 509.547 629.107 461.146 627.725 c 0,16,17
 425.685 627.058 425.685 627.058 389.73 609.081 c 0,18,19
 356.192 592.312 356.192 592.312 341.757 568.037 c 128,-1,20
 327.321 543.762 327.321 543.762 327.684 503.243 c 0,21,22
 327.684 455.713 327.684 455.713 349.18 432.075 c 128,-1,23
 370.675 408.438 370.675 408.438 426.466 398.488 c 0,24,25
 434.381 397.076 434.381 397.076 442.819 396.054 c 0,26,27
 494.744 389.944 494.744 389.944 563.062 396.587 c 0,28,29
 584.016 398.623 584.016 398.623 638.864 427.102 c 2,30,-1
 713.365 465.784 l 1,31,-1
 713.365 226.348 l 1,32,-1
 689.84 211.305 l 2,33,34
 607.406 158.592 607.406 158.592 434.491 91.1133 c 0,35,36
 248.783 18.7559 248.783 18.7559 150.24 0.947266 c 2,37,-1
 90.1709 -9.9082 l 1,38,-1
 90.1709 214.673 l 1,39,-1
 129.809 223.73 l 2,0,1
EndSplineSet
EndChar
StartChar: uni0627
Encoding: 1575 1575 15
Width: 513
VWidth: 2181
GlyphClass: 2
Flags: W
AnchorPoint: "Anchor-10" 256.5 1504 basechar 0
AnchorPoint: "Anchor-7" 263.5 -176.5 basechar 0
LayerCount: 2
Fore
SplineSet
128.899414062 1367.96582031 m 5,0,-1
 382.940429688 1478.08105469 l 5,1,-1
 382.940429688 1.5 l 1,2,-1
 182.774414062 1.5 l 1,3,-1
 128.899414062 1367.96582031 l 5,0,-1
EndSplineSet
Substitution2: "'fina' Terminal Forms in Arabic lookup 9 subtable" uniFE8E
EndChar
StartChar: uni062D
Encoding: 1581 1581 31
Width: 1458
VWidth: 2232
GlyphClass: 2
Flags: W
AnchorPoint: "Anchor-10" 555.5 1347 basechar 0
AnchorPoint: "Anchor-7" 487.84 -712.5 basechar 0
LayerCount: 2
Fore
SplineSet
1247.94 793.67 m 5,0,-1
 1211.55 569.358 l 5,1,-1
 1175.07 563.602 l 6,2,3
 1070.69 547.126 1070.69 547.126 871.974 491.492 c 4,4,5
 571.82 406.559 571.82 406.559 429.714 277.935 c 132,-1,6
 287.608 149.312 287.608 149.312 287.691 -21.5801 c 4,7,8
 287.738 -111.713 287.738 -111.713 323.062 -176.307 c 132,-1,9
 358.385 -240.899 358.385 -240.899 432.204 -286.65 c 4,10,11
 568.401 -371.062 568.401 -371.062 809.879 -351.507 c 4,12,13
 1056.81 -331.511 1056.81 -331.511 1254.82 -179.755 c 6,14,-1
 1309.44 -137.895 l 5,15,-1
 1400.51 -385.81 l 5,16,-1
 1367.48 -408.179 l 6,17,18
 1148.89 -556.22 1148.89 -556.22 908.607 -586.477 c 5,19,20
 667.079 -615.836 667.079 -615.836 484.504 -576.699 c 5,21,22
 283.146 -532.325 283.146 -532.325 169.455 -412.014 c 132,-1,23
 55.7637 -291.703 55.7637 -291.703 39.8691 -102.858 c 4,24,25
 16.5137 176.214 16.5137 176.214 190.594 375.244 c 132,-1,26
 364.674 574.275 364.674 574.275 720.749 688.812 c 5,27,28
 714.83 690.473 714.83 690.473 708.835 692.172 c 4,29,30
 606.048 721.313 606.048 721.313 539.246 728.029 c 4,31,32
 419.35 739.372 419.35 739.372 299.422 584.724 c 6,33,-1
 268.291 544.58 l 5,34,-1
 87.25 683.842 l 5,35,-1
 111.943 723.121 l 6,36,37
 180.033 831.432 180.033 831.432 294.925 917.009 c 4,38,39
 389.2 986.212 389.2 986.212 551.809 974.66 c 4,40,41
 645.362 968.014 645.362 968.014 890.658 875.988 c 4,42,43
 1034.03 822.2 1034.03 822.2 1179.47 802.273 c 4,44,45
 1187.42 801.184 1187.42 801.184 1195.4 800.192 c 6,46,-1
 1247.94 793.67 l 5,0,-1
EndSplineSet
Substitution2: "'fina' Terminal Forms in Arabic lookup 9 subtable" uniFEA2
Substitution2: "'medi' Medial Forms in Arabic lookup 11 subtable" uniFEA4
Substitution2: "'init' Initial Forms in Arabic lookup 13 subtable" uniFEA3
EndChar
StartChar: uni062F
Encoding: 1583 1583 52
Width: 1013
VWidth: 2232
GlyphClass: 2
Flags: W
AnchorPoint: "Anchor-10" 367.935 1264.81 basechar 0
AnchorPoint: "Anchor-7" 393.059 -235.422 basechar 0
LayerCount: 2
Fore
SplineSet
379 271 m 4,0,1
 582.685 268.599 582.685 268.599 650.102 326.647 c 0,2,3
 687.278 358.397 687.278 358.397 664.202 422.542 c 1,4,5
 591.163 606.713 591.163 606.713 358.241 792.096 c 2,6,-1
 321.068 821.682 l 1,7,-1
 473.622 1044 l 1,8,-1
 516.375 1010.61 l 2,9,10
 881.236 725.634 881.236 725.634 922.584 428.066 c 0,11,12
 941.777 292.158 941.777 292.158 858.431 168.362 c 0,13,14
 749.242 6.18262 749.242 6.18262 425.714 0.576172 c 0,15,16
 214.012 -3.0929 214.012 -3.0929 61.001 29.7988 c 1,17,-1
 61.001 303.402 l 1,18,19
 226.835 273.146 226.835 273.146 379 271 c 4,0,1
EndSplineSet
Substitution2: "'fina' Terminal Forms in Arabic lookup 9 subtable" uniFEAA
EndChar
StartChar: uni0631
Encoding: 1585 1585 25
Width: 927
VWidth: 2186
GlyphClass: 2
Flags: W
AnchorPoint: "Anchor-7" 468 -627.5 basechar 0
AnchorPoint: "Anchor-10" 491.81 990.01 basechar 0
LayerCount: 2
Fore
SplineSet
751.548828125 629.197265625 m 2,0,1
 862.908203125 314.26171875 862.908203125 314.26171875 831.123046875 89.74609375 c 0,2,3
 768.804578699 -348.672280832 768.804578699 -348.672280832 409.862304688 -465.603515625 c 0,4,5
 291.349609375 -504.2109375 291.349609375 -504.2109375 143.20703125 -505.228515625 c 2,6,-1
 114.556640625 -505.431640625 l 1,7,-1
 -3.25 -290.607421875 l 1,8,-1
 66.8271484375 -285.677734375 l 2,9,10
 319.477539062 -267.903320312 319.477539062 -267.903320312 446.448242188 -167.680664062 c 128,-1,11
 573.418945312 -67.458984375 573.418945312 -67.458984375 589.865234375 119.018554688 c 0,12,13
 598.243164062 213.326171875 598.243164062 213.326171875 519.713867188 501.635742188 c 2,14,-1
 511.334960938 532.395507812 l 1,15,-1
 731.952148438 684.619140625 l 1,16,-1
 751.548828125 629.197265625 l 2,0,1
EndSplineSet
PairPos2: "'kern' Horizontal Kerning lookup 15-1" uni06CA dx=-80 dy=0 dh=-80 dv=0 dx=0 dy=0 dh=0 dv=0
PairPos2: "'kern' Horizontal Kerning lookup 15-1" uniFB90 dx=-290 dy=0 dh=-290 dv=0 dx=0 dy=0 dh=0 dv=0
PairPos2: "'kern' Horizontal Kerning lookup 15-1" uniFB8E dx=-200 dy=0 dh=-200 dv=0 dx=0 dy=0 dh=0 dv=0
PairPos2: "'kern' Horizontal Kerning lookup 15-1" uni06A9 dx=-200 dy=0 dh=-200 dv=0 dx=0 dy=0 dh=0 dv=0
PairPos2: "'kern' Horizontal Kerning lookup 15-1" uni064A dx=-100 dy=0 dh=-100 dv=0 dx=0 dy=0 dh=0 dv=0
PairPos2: "'kern' Horizontal Kerning lookup 15-1" afii57414 dx=-100 dy=0 dh=-100 dv=0 dx=0 dy=0 dh=0 dv=0
PairPos2: "'kern' Horizontal Kerning lookup 15-1" uniFBE8 dx=-200 dy=0 dh=-200 dv=0 dx=0 dy=0 dh=0 dv=0
PairPos2: "'kern' Horizontal Kerning lookup 15-1" uni0649 dx=-100 dy=0 dh=-100 dv=0 dx=0 dy=0 dh=0 dv=0
PairPos2: "'kern' Horizontal Kerning lookup 15-1" uni0648 dx=-80 dy=0 dh=-80 dv=0 dx=0 dy=0 dh=0 dv=0
PairPos2: "'kern' Horizontal Kerning lookup 15-1" afii57412 dx=-80 dy=0 dh=-80 dv=0 dx=0 dy=0 dh=0 dv=0
PairPos2: "'kern' Horizontal Kerning lookup 15-1" uniFEEB dx=-200 dy=0 dh=-200 dv=0 dx=0 dy=0 dh=0 dv=0
PairPos2: "'kern' Horizontal Kerning lookup 15-1" uni0647 dx=-200 dy=0 dh=-200 dv=0 dx=0 dy=0 dh=0 dv=0
PairPos2: "'kern' Horizontal Kerning lookup 15-1" uniFEE7 dx=-200 dy=0 dh=-200 dv=0 dx=0 dy=0 dh=0 dv=0
PairPos2: "'kern' Horizontal Kerning lookup 15-1" uni0646 dx=-150 dy=0 dh=-150 dv=0 dx=0 dy=0 dh=0 dv=0
PairPos2: "'kern' Horizontal Kerning lookup 15-1" uniFEE3 dx=-200 dy=0 dh=-200 dv=0 dx=0 dy=0 dh=0 dv=0
PairPos2: "'kern' Horizontal Kerning lookup 15-1" uni0645 dx=-200 dy=0 dh=-200 dv=0 dx=0 dy=0 dh=0 dv=0
PairPos2: "'kern' Horizontal Kerning lookup 15-1" uniFEFB dx=-200 dy=0 dh=-200 dv=0 dx=0 dy=0 dh=0 dv=0
PairPos2: "'kern' Horizontal Kerning lookup 15-1" uniFEDF dx=-200 dy=0 dh=-200 dv=0 dx=0 dy=0 dh=0 dv=0
PairPos2: "'kern' Horizontal Kerning lookup 15-1" uni0644 dx=-150 dy=0 dh=-150 dv=0 dx=0 dy=0 dh=0 dv=0
PairPos2: "'kern' Horizontal Kerning lookup 15-1" uniFEDB dx=-290 dy=0 dh=-290 dv=0 dx=0 dy=0 dh=0 dv=0
PairPos2: "'kern' Horizontal Kerning lookup 15-1" uni0643 dx=-200 dy=0 dh=-200 dv=0 dx=0 dy=0 dh=0 dv=0
PairPos2: "'kern' Horizontal Kerning lookup 15-1" uniFED7 dx=-200 dy=0 dh=-200 dv=0 dx=0 dy=0 dh=0 dv=0
PairPos2: "'kern' Horizontal Kerning lookup 15-1" uni0642 dx=-150 dy=0 dh=-150 dv=0 dx=0 dy=0 dh=0 dv=0
PairPos2: "'kern' Horizontal Kerning lookup 15-1" uniFED3 dx=-200 dy=0 dh=-200 dv=0 dx=0 dy=0 dh=0 dv=0
PairPos2: "'kern' Horizontal Kerning lookup 15-1" uni0641 dx=-200 dy=0 dh=-200 dv=0 dx=0 dy=0 dh=0 dv=0
PairPos2: "'kern' Horizontal Kerning lookup 15-1" uniFECF dx=-200 dy=0 dh=-200 dv=0 dx=0 dy=0 dh=0 dv=0
PairPos2: "'kern' Horizontal Kerning lookup 15-1" uniFECB dx=-200 dy=0 dh=-200 dv=0 dx=0 dy=0 dh=0 dv=0
PairPos2: "'kern' Horizontal Kerning lookup 15-1" uniFEC7 dx=-200 dy=0 dh=-200 dv=0 dx=0 dy=0 dh=0 dv=0
PairPos2: "'kern' Horizontal Kerning lookup 15-1" uni0638 dx=-200 dy=0 dh=-200 dv=0 dx=0 dy=0 dh=0 dv=0
PairPos2: "'kern' Horizontal Kerning lookup 15-1" uniFEC3 dx=-200 dy=0 dh=-200 dv=0 dx=0 dy=0 dh=0 dv=0
PairPos2: "'kern' Horizontal Kerning lookup 15-1" uni0637 dx=-200 dy=0 dh=-200 dv=0 dx=0 dy=0 dh=0 dv=0
PairPos2: "'kern' Horizontal Kerning lookup 15-1" uniFEBF dx=-200 dy=0 dh=-200 dv=0 dx=0 dy=0 dh=0 dv=0
PairPos2: "'kern' Horizontal Kerning lookup 15-1" uni0636 dx=-200 dy=0 dh=-200 dv=0 dx=0 dy=0 dh=0 dv=0
PairPos2: "'kern' Horizontal Kerning lookup 15-1" uniFEBB dx=-200 dy=0 dh=-200 dv=0 dx=0 dy=0 dh=0 dv=0
PairPos2: "'kern' Horizontal Kerning lookup 15-1" uni0635 dx=-200 dy=0 dh=-200 dv=0 dx=0 dy=0 dh=0 dv=0
PairPos2: "'kern' Horizontal Kerning lookup 15-1" uniFEB7 dx=-200 dy=0 dh=-200 dv=0 dx=0 dy=0 dh=0 dv=0
PairPos2: "'kern' Horizontal Kerning lookup 15-1" uni0634 dx=-200 dy=0 dh=-200 dv=0 dx=0 dy=0 dh=0 dv=0
PairPos2: "'kern' Horizontal Kerning lookup 15-1" uniFEB3 dx=-200 dy=0 dh=-200 dv=0 dx=0 dy=0 dh=0 dv=0
PairPos2: "'kern' Horizontal Kerning lookup 15-1" uni0633 dx=-200 dy=0 dh=-200 dv=0 dx=0 dy=0 dh=0 dv=0
PairPos2: "'kern' Horizontal Kerning lookup 15-1" uni0632 dx=-80 dy=0 dh=-80 dv=0 dx=0 dy=0 dh=0 dv=0
PairPos2: "'kern' Horizontal Kerning lookup 15-1" uni0631 dx=-80 dy=0 dh=-80 dv=0 dx=0 dy=0 dh=0 dv=0
PairPos2: "'kern' Horizontal Kerning lookup 15-1" uni0630 dx=-200 dy=0 dh=-200 dv=0 dx=0 dy=0 dh=0 dv=0
PairPos2: "'kern' Horizontal Kerning lookup 15-1" uni062F dx=-200 dy=0 dh=-200 dv=0 dx=0 dy=0 dh=0 dv=0
PairPos2: "'kern' Horizontal Kerning lookup 15-1" uniFEA7 dx=-200 dy=0 dh=-200 dv=0 dx=0 dy=0 dh=0 dv=0
PairPos2: "'kern' Horizontal Kerning lookup 15-1" uniFEA3 dx=-200 dy=0 dh=-200 dv=0 dx=0 dy=0 dh=0 dv=0
PairPos2: "'kern' Horizontal Kerning lookup 15-1" uniFE9F dx=-200 dy=0 dh=-200 dv=0 dx=0 dy=0 dh=0 dv=0
PairPos2: "'kern' Horizontal Kerning lookup 15-1" uniFE9B dx=-200 dy=0 dh=-200 dv=0 dx=0 dy=0 dh=0 dv=0
PairPos2: "'kern' Horizontal Kerning lookup 15-1" uni062B dx=-200 dy=0 dh=-200 dv=0 dx=0 dy=0 dh=0 dv=0
PairPos2: "'kern' Horizontal Kerning lookup 15-1" uniFE97 dx=-200 dy=0 dh=-200 dv=0 dx=0 dy=0 dh=0 dv=0
PairPos2: "'kern' Horizontal Kerning lookup 15-1" uni062A dx=-200 dy=0 dh=-200 dv=0 dx=0 dy=0 dh=0 dv=0
PairPos2: "'kern' Horizontal Kerning lookup 15-1" uni0629 dx=-200 dy=0 dh=-200 dv=0 dx=0 dy=0 dh=0 dv=0
PairPos2: "'kern' Horizontal Kerning lookup 15-1" uniFE91 dx=-80 dy=0 dh=-80 dv=0 dx=0 dy=0 dh=0 dv=0
PairPos2: "'kern' Horizontal Kerning lookup 15-1" uni0628 dx=-200 dy=0 dh=-200 dv=0 dx=0 dy=0 dh=0 dv=0
PairPos2: "'kern' Horizontal Kerning lookup 15-1" uni0627 dx=-200 dy=0 dh=-200 dv=0 dx=0 dy=0 dh=0 dv=0
PairPos2: "'kern' Horizontal Kerning lookup 15-1" uni0623 dx=-200 dy=0 dh=-200 dv=0 dx=0 dy=0 dh=0 dv=0
PairPos2: "'kern' Horizontal Kerning lookup 15-1" uni0622 dx=-200 dy=0 dh=-200 dv=0 dx=0 dy=0 dh=0 dv=0
PairPos2: "'kern' Horizontal Kerning lookup 15-1" uni0621 dx=-200 dy=0 dh=-200 dv=0 dx=0 dy=0 dh=0 dv=0
PairPos2: "'kern' Horizontal Kerning lookup 15-1" uniFB94 dx=-200 dy=0 dh=-200 dv=0 dx=0 dy=0 dh=0 dv=0
PairPos2: "'kern' Horizontal Kerning lookup 15-1" uniFB92 dx=-200 dy=0 dh=-200 dv=0 dx=0 dy=0 dh=0 dv=0
PairPos2: "'kern' Horizontal Kerning lookup 15-1" afii57509 dx=-200 dy=0 dh=-200 dv=0 dx=0 dy=0 dh=0 dv=0
PairPos2: "'kern' Horizontal Kerning lookup 15-1" afii57508 dx=-80 dy=0 dh=-80 dv=0 dx=0 dy=0 dh=0 dv=0
PairPos2: "'kern' Horizontal Kerning lookup 15-1" uniFB7C dx=-150 dy=0 dh=-150 dv=0 dx=0 dy=0 dh=0 dv=0
PairPos2: "'kern' Horizontal Kerning lookup 15-1" afii57506 dx=-200 dy=0 dh=-200 dv=0 dx=0 dy=0 dh=0 dv=0
PairPos2: "'kern' Horizontal Kerning lookup 15-1" afii57440 dx=-200 dy=0 dh=-200 dv=0 dx=0 dy=0 dh=0 dv=0
PairPos2: "'kern' Horizontal Kerning lookup 15-1" uniFE8B dx=-200 dy=0 dh=-200 dv=0 dx=0 dy=0 dh=0 dv=0
Substitution2: "'fina' Terminal Forms in Arabic lookup 9 subtable" uniFEAE
EndChar
StartChar: uni0633
Encoding: 1587 1587 56
Width: 2312
VWidth: 2237
GlyphClass: 2
Flags: W
AnchorPoint: "Anchor-10" 492.51 897.5 basechar 0
AnchorPoint: "Anchor-7" 350.5 -669.03 basechar 0
LayerCount: 2
Fore
SplineSet
1868.39 273.023 m 0,0,1
 1943.6 266.681 1943.6 266.681 1957.44 312 c 0,2,3
 1976.16 376.375 1976.16 376.375 1965.16 467.659 c 0,4,5
 1958.94 519.315 1958.94 519.315 1928.59 686.862 c 2,6,-1
 1920.62 730.871 l 1,7,-1
 2153.58 805.527 l 1,8,-1
 2169.93 758.536 l 2,9,10
 2211.55 638.933 2211.55 638.933 2221.65 499.55 c 0,11,12
 2238.5 255.275 2238.5 255.275 2147.27 128.311 c 0,13,14
 2057.85 2.42773 2057.85 2.42773 1875.65 0.00488281 c 0,15,16
 1733.04 -1.93555 1733.04 -1.93555 1650.16 94.4219 c 1,17,18
 1576.67 3.91211 1576.67 3.91211 1432.95 1.54785 c 0,19,20
 1332.77 -0.0996094 1332.77 -0.0996094 1269.13 24.7188 c 1,21,22
 1242.42 -224.215 1242.42 -224.215 1087.19 -354.506 c 128,-1,23
 931.964 -484.797 931.964 -484.797 662.907 -488.246 c 0,24,25
 375.918 -491.925 375.918 -491.925 216.217 -352.588 c 128,-1,26
 56.5146 -213.252 56.5146 -213.252 40.4854 57.8438 c 0,27,28
 35.6602 139.457 35.6602 139.457 57.4072 251.545 c 0,29,30
 80.1027 368.52 80.1027 368.52 130.537 475.282 c 2,31,-1
 150.035 516.557 l 1,32,-1
 388.593 434.662 l 1,33,-1
 368.021 384.608 l 2,34,35
 284.623 181.697 284.623 181.697 301.347 55.3281 c 0,36,37
 320.672 -90.7041 320.672 -90.7041 405.854 -159.657 c 128,-1,38
 491.035 -228.611 491.035 -228.611 657.067 -229.072 c 0,39,40
 835.598 -229.558 835.598 -229.558 925.854 -159.755 c 128,-1,41
 1016.11 -89.9521 1016.11 -89.9521 1034.52 57.3262 c 0,42,43
 1058.79 251.534 1058.79 251.534 939.628 403.696 c 2,44,-1
 911.079 440.15 l 1,45,-1
 1131.13 649.653 l 1,46,-1
 1159.93 581.947 l 2,47,48
 1189.53 498.565 1189.53 498.565 1252.37 357.588 c 0,49,50
 1262.76 334.271 1262.76 334.271 1277.19 317.252 c 0,51,52
 1320.45 266.216 1320.45 266.216 1399.5 266.216 c 0,53,54
 1496.35 266.214 1496.35 266.214 1511.58 405.027 c 6,55,-1
 1537.61 642.361 l 5,56,-1
 1747.55 642.361 l 1,57,-1
 1776.78 436.598 l 2,58,59
 1799.21 278.732 1799.21 278.732 1868.39 273.023 c 0,0,1
EndSplineSet
Substitution2: "'fina' Terminal Forms in Arabic lookup 9 subtable" uniFEB2
Substitution2: "'medi' Medial Forms in Arabic lookup 11 subtable" uniFEB4
Substitution2: "'init' Initial Forms in Arabic lookup 13 subtable" uniFEB3
EndChar
StartChar: uni0635
Encoding: 1589 1589 58
Width: 2458
VWidth: 2232
GlyphClass: 2
Flags: W
AnchorPoint: "Anchor-10" 382.84 897.5 basechar 0
AnchorPoint: "Anchor-7" 347.84 -650.5 basechar 0
LayerCount: 2
Fore
SplineSet
1546.39 282.009 m 1,0,-1
 1616.12 282.009 l 2,1,2
 1905.66 282.009 1905.66 282.009 2006.45 321.487 c 0,3,4
 2092.89 355.343 2092.89 355.343 2106.91 414.065 c 1,5,6
 2112.5 462.722 2112.5 462.722 2092.59 489.83 c 0,7,8
 2068.22 523.641 2068.22 523.641 2013.21 531.622 c 0,9,10
 1899.82 547.972 1899.82 547.972 1779.28 473.025 c 1,11,12
 1649.33 393.686 1649.33 393.686 1546.39 282.009 c 1,0,-1
1674.04 0 m 1,13,-1
 1371.56 -1.6543 l 2,14,15
 1317.45 -2.00488 1317.45 -2.00488 1269.47 27.9287 c 1,16,17
 1243.42 -222.669 1243.42 -222.669 1088.14 -353.728 c 128,-1,18
 932.862 -484.785 932.862 -484.785 662.903 -488.246 c 0,19,20
 375.914 -491.925 375.914 -491.925 216.212 -352.589 c 128,-1,21
 56.5098 -213.253 56.5098 -213.253 40.4805 57.8428 c 0,22,23
 35.6553 139.456 35.6553 139.456 57.4033 251.545 c 0,24,25
 80.0996 368.524 80.0996 368.524 130.533 475.282 c 2,26,-1
 150.031 516.557 l 1,27,-1
 388.589 434.662 l 1,28,-1
 368.017 384.608 l 2,29,30
 284.618 181.699 284.618 181.699 301.343 55.3281 c 0,31,32
 320.668 -90.7041 320.668 -90.7041 405.85 -159.657 c 128,-1,33
 491.031 -228.611 491.031 -228.611 657.063 -229.072 c 0,34,35
 835.601 -229.558 835.601 -229.558 925.854 -159.756 c 128,-1,36
 1016.11 -89.9551 1016.11 -89.9551 1034.51 57.3262 c 0,37,38
 1058.79 251.538 1058.79 251.538 939.624 403.696 c 2,39,-1
 911.075 440.15 l 1,40,-1
 1131.12 649.651 l 1,41,-1
 1159.93 581.946 l 2,42,43
 1194.52 500.637 1194.52 500.637 1251.87 358.812 c 1,44,45
 1260.4 342.539 1260.4 342.539 1273.27 336.143 c 1,46,47
 1496.78 648.504 1496.78 648.504 1746.3 756.263 c 0,48,49
 2007.53 869.092 2007.53 869.092 2209.17 748.736 c 0,50,51
 2304.53 691.82 2304.53 691.82 2344.03 595.281 c 128,-1,52
 2383.53 498.741 2383.53 498.741 2366.55 373.209 c 0,53,54
 2346.32 220.54 2346.32 220.54 2198.95 116.786 c 0,55,56
 2034.18 0 2034.18 0 1674.04 0 c 1,13,-1
EndSplineSet
Substitution2: "'fina' Terminal Forms in Arabic lookup 9 subtable" uniFEBA
Substitution2: "'medi' Medial Forms in Arabic lookup 11 subtable" uniFEBC
Substitution2: "'init' Initial Forms in Arabic lookup 13 subtable" uniFEBB
EndChar
StartChar: uni0637
Encoding: 1591 1591 31
Width: 1547
VWidth: 2181
GlyphClass: 2
Flags: W
AnchorPoint: "Anchor-10" 333.72 1541.47 basechar 0
AnchorPoint: "Anchor-7" 755.72 -210 basechar 0
LayerCount: 2
Fore
SplineSet
670.560546875 266.008789062 m 1,0,-1
 745.166015625 266.008789062 l 2,1,2
 1127 266 1127 266 1186.93554688 360.1171875 c 0,3,4
 1204 387 1204 387 1203.74414062 438.272460938 c 0,5,6
 1203 475 1203 475 1185.5 499 c 0,7,8
 1157 542 1157 542 1073.45898438 541.639648438 c 0,9,10
 1042 542 1042 542 1004.70898438 533.172851562 c 0,11,12
 886 506 886 506 670.560546875 266.008789062 c 1,0,-1
473.071289062 418.844726562 m 1,13,14
 783 800 783 800 1081 800 c 0,15,16
 1244 800 1244 800 1348.96191406 703.458007812 c 128,-1,17
 1454 607 1454 607 1455.69824219 445.090820312 c 0,18,19
 1458 238 1458 238 1288.90576172 118.801269531 c 0,20,21
 1120 0 1120 0 760.948242188 0 c 2,22,-1
 91.75 0 l 1,23,-1
 91.75 264.977539062 l 1,24,-1
 257.665039062 264.979492188 l 1,25,-1
 217.189453125 1377.05957031 l 1,26,-1
 473.165039062 1478.56152344 l 5,27,-1
 473.071289062 418.844726562 l 1,13,14
EndSplineSet
Substitution2: "'fina' Terminal Forms in Arabic lookup 9 subtable" uniFEC2
Substitution2: "'medi' Medial Forms in Arabic lookup 11 subtable" uniFEC4
Substitution2: "'init' Initial Forms in Arabic lookup 13 subtable" uniFEC3
EndChar
StartChar: uni0639
Encoding: 1593 1593 43
Width: 1236
VWidth: 2181
GlyphClass: 2
Flags: W
AnchorPoint: "Anchor-10" 484.325 1350.51 basechar 0
AnchorPoint: "Anchor-7" 289.235 -739.76 basechar 0
LayerCount: 2
Fore
SplineSet
356.720455165 48.3552435197 m 0,0,1
 300 -33 300 -33 300.029314828 -145.611491828 c 0,2,3
 300 -259 300 -259 392.081067396 -332.772772179 c 0,4,5
 484 -407 484 -407 734.898687104 -407.520848624 c 0,6,7
 866.730295074 -407.99902174 866.730295074 -407.99902174 1017.74380334 -364.033063638 c 2,8,-1
 1064.7648438 -350.34339363 l 1,9,-1
 1144.98218063 -589.324209588 l 1,10,-1
 1095.03480513 -604.733506284 l 2,11,12
 900 -665 900 -665 685.826149548 -665.136688418 c 0,13,14
 310 -665 310 -665 147.533264385 -473.025081638 c 0,15,16
 38 -344 38 -344 37.9742964362 -145.789577731 c 0,17,18
 38 52 38 52 144.793194659 204.210060319 c 0,19,20
 216 305 216 305 307.520350225 368.105907135 c 1,21,22
 256 402 256 402 217.214591286 455.506533223 c 0,23,24
 145 556 145 556 144.978337791 678.53201135 c 0,25,26
 145 802 145 802 205.123832214 897.862339728 c 0,27,28
 265 994 265 994 388.122865166 1037.37702911 c 0,29,30
 459 1062 459 1062 517.999841144 1062.2272774 c 0,31,32
 700 1062 700 1062 884.660529044 957.934691604 c 1,33,-1
 818.310930776 732.601382777 l 1,34,35
 641.893762568 817.675598799 641.893762568 817.675598799 561 821 c 4,36,37
 495 824 495 824 457.682117861 800.099823055 c 0,38,39
 392.992573003 755.796931943 392.992573003 755.796931943 392.961086077 678.624604003 c 0,40,41
 393 585 393 585 514.182985571 532.282994695 c 0,42,43
 554 515 554 515 590.296608456 517.379743522 c 0,44,45
 627 519 627 519 688.761857202 527.50597101 c 0,46,47
 751 536 751 536 813.42789299 542.233053256 c 0,48,49
 871.702489779 548.173551391 871.702489779 548.173551391 935.405487526 557.81833311 c 2,50,-1
 994.04 566.695734394 l 1,51,-1
 994.04 309.162010708 l 1,52,-1
 946.586141524 305.854434861 l 2,53,54
 717 290 717 290 534.253658236 193.48939828 c 0,55,56
 413 129 413 129 356.720455165 48.3552435197 c 0,0,1
EndSplineSet
Substitution2: "'fina' Terminal Forms in Arabic lookup 9 subtable" uniFECA
Substitution2: "'medi' Medial Forms in Arabic lookup 11 subtable" uniFECC
Substitution2: "'init' Initial Forms in Arabic lookup 13 subtable" uniFECB
EndChar
StartChar: afii57440
Encoding: 1600 1600 64
Width: 642
VWidth: 2232
GlyphClass: 2
Flags: W
AnchorPoint: "Anchor-10" 321 1325.5 basechar 0
AnchorPoint: "Anchor-7" 321 -65.5 basechar 0
LayerCount: 2
Fore
SplineSet
-54.4004 0 m 1,0,-1
 -54.4004 270.979 l 1,1,-1
 696.4 270.979 l 5,2,-1
 696.4 0 l 1,3,-1
 -54.4004 0 l 1,0,-1
EndSplineSet
EndChar
StartChar: uni0643
Encoding: 1603 1603 38
Width: 1860
VWidth: 2181
GlyphClass: 2
Flags: W
AnchorPoint: "Anchor-10" 579 1442.5 basechar 0
AnchorPoint: "Anchor-7" 527 -175.5 basechar 0
LayerCount: 2
Fore
SplineSet
1517.30761719 485.91796875 m 1,0,1
 1495 916 1495 916 1472.38183594 1346.88867188 c 1,2,-1
 1470.87207031 1379.30175781 l 1,3,-1
 1729.29980469 1478.90039062 l 1,4,-1
 1729.29980469 454.41015625 l 2,5,6
 1729 441 1729 441 1726.54882812 395.391601562 c 0,7,8
 1710 149 1710 149 1388.45410156 48.45703125 c 0,9,10
 1239 2 1239 2 905 1 c 128,-1,11
 571 -0 571 -0 417.871582031 64.4052734375 c 0,12,13
 120 189 120 189 96.162109375 478.060546875 c 0,14,15
 83.997959128 620.023818258 83.997959128 620.023818258 125.365234375 766.631835938 c 2,16,-1
 137.37890625 809.208984375 l 1,17,-1
 353.61328125 752.154296875 l 1,18,-1
 347.313476562 712.026367188 l 2,19,20
 326 576 326 576 328.483398438 525.538085938 c 0,21,22
 339.510869034 300.578857028 339.510869034 300.578857028 648.745605469 274.558105469 c 0,23,24
 809 261 809 261 1152.93785125 275.99724657 c 128,-1,25
 1496.87570251 290.99449314 1496.87570251 290.99449314 1511.87109375 434.052734375 c 2,26,-1
 1517.30761719 485.91796875 l 1,0,1
740.032226562 815.202148438 m 2,27,28
 801.032145182 807.158203125 801.032145182 807.158203125 853.395467122 807.158203125 c 128,-1,29
 905.758789062 807.158203125 905.758789062 807.158203125 952.604492188 825.341796875 c 128,-1,30
 999.450195312 843.525390625 999.450195312 843.525390625 999.450195312 864.074611424 c 128,-1,31
 999.450195312 884.623832224 999.450195312 884.623832224 933.602539062 894.958888768 c 128,-1,32
 867.754882812 905.293945312 867.754882812 905.293945312 825.284179688 951.97265625 c 0,33,34
 766.009755481 1017.12000513 766.009755481 1017.12000513 789.733398438 1110.56445312 c 0,35,36
 827.761304338 1260.35926664 827.761304338 1260.35926664 1092.92285156 1277.16601562 c 2,37,-1
 1140.76953125 1280.19824219 l 1,38,-1
 1140.76953125 1132.53125 l 1,39,-1
 1099.08105469 1129.45507812 l 2,40,41
 983.963583572 1120.95883008 983.963583572 1120.95883008 941.237304688 1080.13671875 c 0,42,43
 927.579499749 1067.08500643 927.579499749 1067.08500643 937.966190353 1051.19045106 c 128,-1,44
 948.352880956 1035.2958957 948.352880956 1035.2958957 1011.28239751 1026.04150254 c 0,45,46
 1076.01730494 1016.52160921 1076.01730494 1016.52160921 1111.39746094 982.66015625 c 4,47,48
 1150.04980469 945.656733365 1150.04980469 945.656733365 1150.04980469 885.258054182 c 128,-1,49
 1150.04980469 824.859375 1150.04980469 824.859375 1127.81054688 788.326660156 c 0,50,51
 1020.83754602 612.600735787 1020.83754602 612.600735787 726.725585938 661.791015625 c 2,52,-1
 689.1484375 668.076171875 l 1,53,-1
 689.1484375 821.913085938 l 1,54,-1
 740.032226562 815.202148438 l 2,27,28
EndSplineSet
Substitution2: "'fina' Terminal Forms in Arabic lookup 9 subtable" uniFEDA
Substitution2: "'medi' Medial Forms in Arabic lookup 11 subtable" uniFEDC
Substitution2: "'init' Initial Forms in Arabic lookup 13 subtable" uniFEDB
EndChar
StartChar: uni0644
Encoding: 1604 1604 39
Width: 1382
VWidth: 2181
GlyphClass: 2
Flags: W
AnchorPoint: "Anchor-10" 625.01 1112.5 basechar 0
AnchorPoint: "Anchor-7" 447.15 -510.616 basechar 0
LayerCount: 2
Fore
SplineSet
1249.02148438 203.315429688 m 1,0,1
 1250 61 1250 61 1214.19335938 -48.982421875 c 0,2,3
 1179 -159 1179 -159 1109.2734375 -234.477539062 c 0,4,5
 1040 -310 1040 -310 935.581054688 -350.102539062 c 0,6,7
 831 -390 831 -390 695.54296875 -393.356445312 c 0,8,9
 495 -398 495 -398 355.372070312 -319.46875 c 0,10,11
 216 -241 216 -241 146.91015625 -81.486328125 c 0,12,13
 80 75 80 75 110.920898438 290.46484375 c 0,14,15
 130.969708273 430.787985902 130.969708273 430.787985902 192.249023438 567.495117188 c 2,16,-1
 209.057617188 604.993164062 l 1,17,-1
 442.971679688 524.693359375 l 1,18,-1
 424.6328125 480.451171875 l 2,19,20
 389 395 389 395 371.090820312 317.588867188 c 0,21,22
 353 241 353 241 352.35546875 172.638671875 c 0,23,24
 352 145 352 145 355.793945312 118.151367188 c 0,25,26
 374 -14 374 -14 456.143554688 -77.0693359375 c 0,27,28
 538 -140 538 -140 696.799804688 -140.118164062 c 0,29,30
 847 -141 847 -141 927.17578125 -70.658203125 c 0,31,32
 1007 -1 1007 -1 1027.79492188 149.379882812 c 0,33,34
 1032.04577214 180.333299023 1032.04577214 180.333299023 1031.54101562 254.4921875 c 2,35,-1
 1029.91503906 493.380859375 l 1,36,-1
 997.862304688 1373.66601562 l 5,37,-1
 1251.79003906 1478.875 l 5,38,-1
 1251.79003906 494.336914062 l 2,39,40
 1252 284 1252 284 1251.40234375 282.66015625 c 0,41,42
 1251 219 1251 219 1249.02148438 203.315429688 c 1,0,1
EndSplineSet
Substitution2: "'fina' Terminal Forms in Arabic lookup 9 subtable" uniFEDE
Substitution2: "'medi' Medial Forms in Arabic lookup 11 subtable" uniFEE0
Substitution2: "'init' Initial Forms in Arabic lookup 13 subtable" uniFEDF
EndChar
StartChar: uni0645
Encoding: 1605 1605 50
Width: 1113
VWidth: 2232
GlyphClass: 2
Flags: W
AnchorPoint: "Anchor-10" 544.5 1057.31 basechar 0
AnchorPoint: "Anchor-7" 161.631 -744.952 basechar 0
LayerCount: 2
Fore
SplineSet
503.204 410.947 m 0,0,1
 618.835 405.167 618.835 405.167 630.123 404.999 c 0,2,3
 747.256 405.07 747.256 405.07 787.252 416.199 c 1,4,5
 795.336 421.176 795.336 421.176 805.645 443.551 c 0,6,7
 810.199 453.503 810.199 453.503 810.392 464.109 c 128,-1,8
 810.584 474.716 810.584 474.716 805.858 488.099 c 128,-1,9
 801.134 501.48 801.134 501.48 787.555 516.393 c 128,-1,10
 773.977 531.305 773.977 531.305 752.745 547.821 c 128,-1,11
 731.514 564.338 731.514 564.338 696.821 583.396 c 128,-1,12
 662.129 602.454 662.129 602.454 616.931 622.082 c 1,13,14
 572.747 639.742 572.747 639.742 549.395 635.661 c 128,-1,15
 526.042 631.581 526.042 631.581 504.822 606.581 c 1,16,17
 465.645 549 465.645 549 472.509 413.031 c 1,18,19
 485.484 411.766 485.484 411.766 503.204 410.947 c 0,0,1
376 154 m 0,20,21
 276.748 154 276.748 154 252.515 106.583 c 0,22,23
 225.454 53.3643 225.454 53.3643 233.95 -66.6523 c 2,24,-1
 268.22 -550.709 l 1,25,-1
 15 -694.656 l 1,26,-1
 15 -24 l 2,27,28
 15 181.005 15 181.005 100.879 289.482 c 0,29,30
 149.415 351.344 149.415 351.344 221.688 375.48 c 1,31,32
 215.344 666.758 215.344 666.758 341.471 785.787 c 0,33,34
 424.621 864.923 424.621 864.923 524.395 880.17 c 128,-1,35
 624.168 895.417 624.168 895.417 728.77 845.272 c 0,36,37
 1108.9 664.011 1108.9 664.011 1046.76 423.234 c 0,38,39
 1017.44 310.079 1017.44 310.079 993.531 254.69 c 128,-1,40
 969.623 199.303 969.623 199.303 927.07 177.284 c 0,41,42
 914.301 170.677 914.301 170.677 900.205 168.937 c 1,43,44
 826.094 143.061 826.094 143.061 655.573 148.021 c 0,45,46
 477.262 154 477.262 154 376 154 c 0,20,21
EndSplineSet
Substitution2: "'init' Initial Forms in Arabic lookup 13 subtable" uniFEE3
Substitution2: "'medi' Medial Forms in Arabic lookup 11 subtable" uniFEE4
Substitution2: "'fina' Terminal Forms in Arabic lookup 9 subtable" uniFEE2
EndChar
StartChar: uni0647
Encoding: 1607 1607 42
Width: 1003
VWidth: 2181
GlyphClass: 2
Flags: W
AnchorPoint: "Anchor-10" 467.924 1145.58 basechar 0
AnchorPoint: "Anchor-7" 380.864 -133.56 basechar 0
LayerCount: 2
Fore
SplineSet
495.473632812 606.46484375 m 1,0,1
 338 437 338 437 338.594726562 346.46875 c 0,2,3
 339 298 339 298 385 266 c 0,4,5
 428 236 428 236 506 236 c 0,6,7
 626 236 626 236 647.9609375 298.07421875 c 0,8,9
 666.737304688 350.700195312 666.737304688 350.700195312 629.384765625 430.889648438 c 8,10,11
 593 509 593 509 495.473632812 606.46484375 c 1,0,1
97.9621516438 349.572820936 m 0,12,13
 98 539 98 539 309.380859375 770.250976562 c 1,14,-1
 272.184570312 802.235351562 l 1,15,-1
 437.258789062 978.813476562 l 1,16,-1
 469.409179688 955.553710938 l 2,17,18
 741 759 741 759 845.328125 541.30859375 c 0,19,20
 903 421 903 421 902.66796875 322.33984375 c 0,21,22
 903 150 903 150 747.743164062 56.4423828125 c 0,23,24
 661 4 661 4 511.30859375 3.5751953125 c 0,25,26
 157 4 157 4 104.384277344 281.896972656 c 0,27,28
 98 316 98 316 97.9621516438 349.572820936 c 0,12,13
EndSplineSet
Substitution2: "'fina' Terminal Forms in Arabic lookup 9 subtable" uniFEEA
Substitution2: "'medi' Medial Forms in Arabic lookup 11 subtable" uniFEEC
Substitution2: "'init' Initial Forms in Arabic lookup 13 subtable" uniFEEB
EndChar
StartChar: uni0648
Encoding: 1608 1608 53
Width: 939
VWidth: 2232
GlyphClass: 2
Flags: W
AnchorPoint: "Anchor-10" 412.282 1083.17 basechar 0
AnchorPoint: "Anchor-7" 439.191 -679.443 basechar 0
LayerCount: 2
Fore
SplineSet
468.552 516.805 m 0,0,1
 423.083 515.529 423.083 515.529 392.679 484.877 c 128,-1,2
 362.274 454.225 362.274 454.225 343.307 380.225 c 0,3,4
 340.04 367.613 340.04 367.613 338.018 356.128 c 0,5,6
 327.982 299.157 327.982 299.157 343.61 275.64 c 128,-1,7
 359.238 252.121 359.238 252.121 410.76 243.199 c 0,8,9
 525.52 223.183 525.52 223.183 609.455 276.808 c 1,10,11
 608.218 306.743 608.218 306.743 597.313 365.105 c 0,12,13
 580.814 451.334 580.814 451.334 549.561 484.776 c 128,-1,14
 518.306 518.219 518.306 518.219 468.552 516.805 c 0,0,1
833.278 16.8789 m 0,15,16
 806.152 -141.492 806.152 -141.492 714.285 -259.872 c 0,17,18
 525.095 -503.688 525.095 -503.688 148.428 -506.998 c 2,19,-1
 117.695 -507.268 l 1,20,-1
 -2.87695 -283.857 l 1,21,-1
 76.9375 -279.091 l 2,22,23
 291.312 -266.284 291.312 -266.284 412.3 -194.176 c 128,-1,24
 533.287 -122.066 533.287 -122.066 573.577 7.7041 c 1,25,26
 518.171 -6.8125 518.171 -6.8125 442.915 -8.24219 c 0,27,28
 243.207 -11.7061 243.207 -11.7061 157.557 107.347 c 0,29,30
 83.3096 211.937 83.3096 211.937 101.742 346.756 c 1,31,32
 128.672 555.734 128.672 555.734 229.635 660.293 c 0,33,34
 298.55 730.755 298.55 730.755 380.312 758.263 c 128,-1,35
 462.076 785.771 462.076 785.771 550.418 766.62 c 0,36,37
 690.663 736.979 690.663 736.979 764.411 600.958 c 1,38,39
 833.019 472.085 833.019 472.085 847.876 311.448 c 0,40,41
 859.886 175.524 859.886 175.524 833.278 16.8789 c 0,15,16
EndSplineSet
Substitution2: "'fina' Terminal Forms in Arabic lookup 9 subtable" uniFEEE
EndChar
StartChar: uni0649
Encoding: 1609 1609 54
Width: 1481
VWidth: 2181
GlyphClass: 2
Flags: W
AnchorPoint: "Anchor-10" 578.722 1133.33 basechar 0
AnchorPoint: "Anchor-7" 441.423 -564.472 basechar 0
LayerCount: 2
Fore
SplineSet
1012.29101562 199.6953125 m 5,0,-1
 1067.64160156 200.79296875 l 6,1,2
 1275 205 1275 205 1347.06933594 97.4560546875 c 4,3,4
 1381 47 1381 47 1381 -15 c 4,5,6
 1381 -188 1381 -188 1226.84277344 -330.270507812 c 4,7,8
 1103 -446 1103 -446 852.651367188 -483.422851562 c 4,9,10
 776 -495 776 -495 702.5 -495 c 132,-1,11
 629 -495 629 -495 525.5 -479 c 4,12,13
 240 -435 240 -435 117.790039062 -244.208984375 c 4,14,15
 41 -123 41 -123 41 54.5 c 132,-1,16
 41 232 41 232 123.033203125 430.33984375 c 4,17,18
 167.833007812 539.59375 167.833007812 539.59375 237.418945312 637.538085938 c 6,19,-1
 262.126953125 672.31640625 l 5,20,-1
 486.80078125 566.505859375 l 5,21,-1
 456.1796875 517.762695312 l 6,22,23
 374 387 374 387 339.392578125 268.08984375 c 4,24,25
 306 154 306 154 306 89 c 4,26,27
 306 -1 306 -1 337.9296875 -65.26171875 c 4,28,29
 427 -242 427 -242 728.172851562 -241.465820312 c 4,30,31
 885 -241 885 -241 979 -200 c 132,-1,32
 1073 -159 1073 -159 1120.69335938 -116.076171875 c 4,33,34
 1170 -71 1170 -71 1150.69433594 -50.8291015625 c 4,35,36
 1144.69628906 -44.6884765625 1144.69628906 -44.6884765625 1125.38085938 -45.751953125 c 6,37,-1
 1025.91113281 -51.2275390625 l 5,38,39
 753 -51 753 -51 706.7890625 141.056640625 c 4,40,41
 691 208 691 208 726.418945312 312.859375 c 4,42,43
 780 468 780 468 943.905273438 607.587890625 c 4,44,45
 1092 733 1092 733 1276.41015625 731.453125 c 4,46,47
 1327 731 1327 731 1389.19824219 710.250976562 c 5,48,-1
 1308.05078125 435.826171875 l 5,49,-1
 1269.76855469 436.000976562 l 6,50,51
 1269 436 1269 436 1268.28125 436.00390625 c 4,52,53
 1111 436 1111 436 989.110351562 293.235351562 c 4,54,55
 942 238 942 238 949.5 216.5 c 4,56,57
 954 202 954 202 1012.29101562 199.6953125 c 5,0,-1
EndSplineSet
Substitution2: "'fina' Terminal Forms in Arabic lookup 9 subtable" uniFEF0
Substitution2: "'medi' Medial Forms in Arabic lookup 11 subtable" uniFBE9
Substitution2: "'init' Initial Forms in Arabic lookup 13 subtable" uniFBE8
EndChar
StartChar: uni064B
Encoding: 1611 1611 75
Width: 0
VWidth: 2186
GlyphClass: 4
Flags: W
AnchorPoint: "Anchor-10" 547.84 1041.5 mark 0
AnchorPoint: "Anchor-9" 547.84 1041.5 mark 0
AnchorPoint: "Anchor-1" 547.84 1576.5 basemark 0
AnchorPoint: "Anchor-1" 547.84 1041.5 mark 0
LayerCount: 2
Fore
SplineSet
269.4 977.41 m 1,0,-1
 269.4 1104.48 l 1,1,-1
 827.28 1332.79 l 1,2,-1
 827.28 1205.72 l 1,3,-1
 269.4 977.41 l 1,0,-1
269.4 1234.21 m 1,4,-1
 269.4 1361.28 l 1,5,-1
 827.28 1589.59 l 1,6,-1
 827.28 1462.52 l 1,7,-1
 269.4 1234.21 l 1,4,-1
EndSplineSet
EndChar
StartChar: uni064C
Encoding: 1612 1612 47
Width: -27
VWidth: 2304
GlyphClass: 4
Flags: W
AnchorPoint: "Anchor-10" 676.432 1216.14 mark 0
AnchorPoint: "Anchor-9" 676.432 1216.14 mark 0
AnchorPoint: "Anchor-1" 567.983 1908.35 basemark 0
AnchorPoint: "Anchor-1" 676.432 1216.14 mark 0
LayerCount: 2
Fore
SplineSet
652.655273437 1732.86425781 m 0,0,1
 569.463867188 1732.86425781 569.463867188 1732.86425781 569.463867188 1658.640625 c 0,2,3
 569.463867188 1604.83203125 569.463867188 1604.83203125 631.455078125 1580.03515625 c 0,4,5
 654.595973423 1570.77996279 654.595973423 1570.77996279 700.032226562 1556.78613281 c 1,6,-1
 713.090820312 1587.25292969 l 2,7,8
 724.69140625 1614.32226562 724.69140625 1614.32226562 724.69140625 1653.09667969 c 0,9,10
 724.69140625 1732.86425781 724.69140625 1732.86425781 652.655273437 1732.86425781 c 0,0,1
322.107421875 1515.49121094 m 1,11,12
 324.01496021 1292.18191739 324.01496021 1292.18191739 449.545331419 1291.76660156 c 0,13,14
 518 1292 518 1292 592.768554688 1364.57714844 c 0,15,16
 636.118126436 1406.1131846 636.118126436 1406.1131846 661.806640625 1457.5 c 2,17,-1
 672.059570312 1478.00976562 l 1,18,19
 557 1502 557 1502 506.392578125 1572.21484375 c 0,20,21
 471 1620 471 1620 478 1674.5 c 128,-1,22
 485 1729 485 1729 509 1761 c 0,23,24
 554 1822 554 1822 635.5 1822 c 128,-1,25
 717 1822 717 1822 765 1775 c 128,-1,26
 813 1728 813 1728 813.52734375 1645.08105469 c 0,27,28
 813.997428752 1605.21804078 813.997428752 1605.21804078 800.791015625 1563.41113281 c 2,29,-1
 793.893554688 1541.57617188 l 1,30,-1
 816.765625 1540.37597656 l 2,31,32
 844 1539 844 1539 880.192382812 1538.27148438 c 1,33,-1
 880.192382812 1449.32617188 l 1,34,35
 838.775681949 1450.00366941 838.775681949 1450.00366941 823.913085938 1451.43261719 c 2,36,-1
 752.243164062 1458.32324219 l 1,37,38
 719 1380 719 1380 655.074213481 1314.56331625 c 128,-1,39
 591 1249 591 1249 543.5 1226 c 128,-1,40
 496 1203 496 1203 447.08203125 1202.93164062 c 0,41,42
 332 1203 332 1203 287 1324 c 4,43,44
 257 1405 257 1405 255.86328125 1515.49121094 c 1,45,-1
 322.107421875 1515.49121094 l 1,11,12
854.4921875 1539.21972656 m 2,46,-1
 854.388671875 1539.22558594 l 2,47,48
 854.440429688 1539.22265625 854.440429688 1539.22265625 854.4921875 1539.21972656 c 2,46,-1
EndSplineSet
EndChar
StartChar: uni064F
Encoding: 1615 1615 50
Width: -27
VWidth: 2304
GlyphClass: 4
Flags: W
AnchorPoint: "Anchor-10" 615.623 1281.01 mark 0
AnchorPoint: "Anchor-9" 615.623 1281.01 mark 0
AnchorPoint: "Anchor-1" 546.519 1923.2 basemark 0
AnchorPoint: "Anchor-1" 615.623 1281.01 mark 0
LayerCount: 2
Fore
SplineSet
822.727539062 1464.22460938 m 1,0,1
 766 1465 766 1465 690.735351562 1473.01953125 c 1,2,3
 638 1399 638 1399 563.377929688 1352.99902344 c 0,4,5
 445 1279 445 1279 311 1274 c 1,6,-1
 311 1362.74121094 l 1,7,8
 442 1367 442 1367 520.314453125 1432.41015625 c 0,9,10
 554.555842932 1461.14480957 554.555842932 1461.14480957 569.69921875 1477.09472656 c 2,11,-1
 591.280273438 1499.82519531 l 1,12,13
 496.852518647 1520.78770471 496.852518647 1520.78770471 448.861328125 1586.5703125 c 0,14,15
 421 1625 421 1625 420.904296875 1671.78222656 c 0,16,17
 421 1753 421 1753 488 1803 c 0,18,19
 534 1837 534 1837 596.5 1837 c 128,-1,20
 659 1837 659 1837 707.5 1789.5 c 128,-1,21
 756 1742 756 1742 756.0625 1659.92871094 c 0,22,23
 756.000462851 1626.25126302 756.000462851 1626.25126302 741.043945312 1578.18945312 c 2,24,-1
 734.313476562 1556.56152344 l 1,25,-1
 756.931640625 1555.22460938 l 2,26,27
 795 1553 795 1553 822.727539062 1553.02832031 c 1,28,-1
 822.727539062 1464.22460938 l 1,0,1
642.567382812 1571.63476562 m 1,29,-1
 655.625976562 1602.09960938 l 2,30,31
 667 1629 667 1629 667 1668 c 128,-1,32
 667 1707 667 1707 642 1727.5 c 128,-1,33
 617 1748 617 1748 587.5 1748 c 128,-1,34
 558 1748 558 1748 534.5 1729 c 128,-1,35
 511 1710 511 1710 510 1677 c 0,36,37
 509 1621 509 1621 573.990234375 1594.88183594 c 0,38,39
 597 1586 597 1586 642.567382812 1571.63476562 c 1,29,-1
EndSplineSet
EndChar
StartChar: uni0652
Encoding: 1618 1618 53
Width: -27
VWidth: 2304
GlyphClass: 4
Flags: W
AnchorPoint: "Anchor-10" 588.527 1187.7 mark 0
AnchorPoint: "Anchor-9" 588.527 1187.7 mark 0
AnchorPoint: "Anchor-1" 573.743 1793.31 basemark 0
AnchorPoint: "Anchor-1" 588.527 1187.7 mark 0
LayerCount: 2
Fore
SplineSet
673.299804688 1373.69140625 m 128,-1,1
 707.344726562 1407.73535156 707.344726562 1407.73535156 707.344726562 1456.75927734 c 128,-1,2
 707.344726562 1505.78320312 707.344726562 1505.78320312 673.299804688 1539.828125 c 128,-1,3
 639.258789062 1573.87304688 639.258789062 1573.87304688 589.5390625 1573.87304688 c 128,-1,4
 539.819335938 1573.87304688 539.819335938 1573.87304688 506.124023438 1540.17675781 c 128,-1,5
 472.427734375 1506.48046875 472.427734375 1506.48046875 472.427734375 1456.75927735 c 128,-1,6
 472.427734375 1407.03808594 472.427734375 1407.03808594 506.124023438 1373.34277344 c 128,-1,7
 539.819335938 1339.64648438 539.819335938 1339.64648438 589.540039063 1339.64648438 c 128,-1,0
 639.260742188 1339.64648438 639.260742188 1339.64648438 673.299804688 1373.69140625 c 128,-1,1
779.41796875 1457.21875 m 128,-1,9
 779.41796875 1377.71484375 779.41796875 1377.71484375 724.528320312 1322.47265625 c 128,-1,10
 669.673828125 1267.2734375 669.673828125 1267.2734375 590.212890625 1267.2734375 c 128,-1,11
 510.752661133 1267.2734375 510.752661133 1267.2734375 455.8984375 1322.47265625 c 128,-1,12
 401.006835938 1377.71515236 401.006835938 1377.71515236 401.006835938 1457.21875 c 128,-1,13
 401.006835938 1536.6953125 401.006835938 1536.6953125 455.8671875 1591.56542969 c 128,-1,14
 510.7265625 1646.42480469 510.7265625 1646.42480469 590.212890625 1646.42480469 c 128,-1,15
 669.698242188 1646.42480469 669.698242188 1646.42480469 724.556640625 1591.56542969 c 128,-1,8
 779.41796875 1536.6953125 779.41796875 1536.6953125 779.41796875 1457.21875 c 128,-1,9
EndSplineSet
EndChar
StartChar: uni0653
Encoding: 1619 1619 64
Width: 0
VWidth: 2186
GlyphClass: 4
Flags: W
AnchorPoint: "Anchor-9" 442.84 1276.52 mark 0
AnchorPoint: "Anchor-10" 442.84 1276.52 mark 0
AnchorPoint: "Anchor-1" 442.84 1600.5 basemark 0
AnchorPoint: "Anchor-1" 442.84 1264.52 mark 0
LayerCount: 2
Fore
SplineSet
158.311391002 1186.38422386 m 1,0,-1
 20.4096585257 1263.32939343 l 1,1,-1
 30.1518895419 1280.79379169 l 2,2,3
 136 1471 136 1471 345 1471 c 2,4,-1
 555 1471 l 6,5,6
 674 1471 674 1471 736 1524 c 5,7,-1
 787.760069229 1386.13253328 l 1,8,-1
 780.407886422 1377.24864572 l 2,9,10
 726.409007207 1312 726.409007207 1312 559 1312 c 2,11,-1
 344 1312 l 2,12,13
 220.422247872 1312 220.422247872 1312 167.628290172 1205.22713763 c 2,14,-1
 158.311391002 1186.38422386 l 1,0,-1
EndSplineSet
EndChar
StartChar: uni0657
Encoding: 1623 1623 57
Width: 0
VWidth: 2186
GlyphClass: 4
Flags: W
AnchorPoint: "Anchor-10" 547.84 1279.5 mark 0
AnchorPoint: "Anchor-9" 547.84 1279.5 mark 0
AnchorPoint: "Anchor-1" 547.84 1975 basemark 0
AnchorPoint: "Anchor-1" 547.84 1279.5 mark 0
LayerCount: 2
Fore
SplineSet
248.4 1715.83 m 1,0,1
 304.333151752 1715.23793859 304.333151752 1715.23793859 375.369 1707.67 c 1,2,3
 424.241206385 1776.99621196 424.241206385 1776.99621196 495.801 1820.55 c 0,4,5
 697.387 1944.51 697.387 1944.51 847.28 1950 c 1,6,-1
 847.28 1858.35 l 1,7,8
 687.009 1853.71 687.009 1853.71 540.898 1739.14 c 0,9,10
 515.54 1719.29 515.54 1719.29 494.545 1697.2 c 2,11,-1
 478.72 1680.54 l 1,12,-1
 501.148 1675.55 l 2,13,14
 509.083 1673.79 509.083 1673.79 527.945 1663.86 c 0,15,16
 636.49 1607.58 636.49 1607.58 636.49 1517.4 c 128,-1,17
 636.49 1427.22 636.49 1427.22 567.86 1375.5 c 0,18,19
 541.366 1355.63 541.366 1355.63 473.417 1355.63 c 128,-1,20
 405.468 1355.63 405.468 1355.63 358.499 1401.61 c 128,-1,21
 311.53 1447.59 311.53 1447.59 311.53 1526.67 c 0,22,23
 311.53 1558.944077 311.53 1558.944077 330.858 1621.06 c 1,24,25
 283.72483467 1623.84490908 283.72483467 1623.84490908 248.4 1624.15 c 1,26,-1
 248.4 1715.83 l 1,0,1
424.935 1605.66 m 1,27,-1
 413.911 1579.94 l 2,28,29
 403.23 1555.02 403.23 1555.02 403.23 1519.59 c 128,-1,30
 403.23 1484.16 403.23 1484.16 425.588 1465.745 c 128,-1,31
 447.946 1447.33 447.946 1447.33 475.192 1447.33 c 0,32,33
 542.65 1447.33 542.65 1447.33 542.65 1513.83 c 0,34,35
 542.65 1562.22 542.65 1562.22 486.328 1584.75 c 0,36,37
 464.636796909 1593.43203139 464.636796909 1593.43203139 424.935 1605.66 c 1,27,-1
EndSplineSet
EndChar
StartChar: afii57392
Encoding: 1632 1632 59
Width: 807
VWidth: 2181
GlyphClass: 2
Flags: W
LayerCount: 2
Fore
SplineSet
320.24609375 521.068359375 m 132,-1,1
 320.24609375 484.6015625 320.24609375 484.6015625 345.985351562 458.713867188 c 132,-1,2
 371.7421875 432.8046875 371.7421875 432.8046875 408.05078125 432.8046875 c 132,-1,3
 444.35546875 432.8046875 444.35546875 432.8046875 470.115234375 458.713867188 c 132,-1,4
 495.853515625 484.602539062 495.853515625 484.602539062 495.853515625 521.068359375 c 132,-1,5
 495.853515625 557.533203125 495.853515625 557.533203125 470.116210938 583.422851562 c 132,-1,6
 444.358398438 609.333007812 444.358398438 609.333007812 408.05078125 609.333007812 c 132,-1,7
 371.743164062 609.333007812 371.743164062 609.333007812 345.984375 583.422851562 c 132,-1,0
 320.24609375 557.536132812 320.24609375 557.536132812 320.24609375 521.068359375 c 132,-1,1
110.8203125 529.561523438 m 132,-1,9
 110.8203125 651.120117188 110.8203125 651.120117188 196.615234375 737.41015625 c 132,-1,10
 282.478515625 823.775390625 282.478515625 823.775390625 403.500976562 823.775390625 c 132,-1,11
 524.528320312 823.775390625 524.528320312 823.775390625 610.387695312 737.41015625 c 132,-1,12
 696.1796875 651.112304688 696.1796875 651.112304688 696.1796875 529.561523438 c 132,-1,13
 696.1796875 408.008789062 696.1796875 408.008789062 610.384765625 321.712890625 c 132,-1,14
 524.516601562 235.350585938 524.516601562 235.350585938 403.500976562 235.350585938 c 132,-1,15
 282.475585938 235.350585938 282.475585938 235.350585938 196.6171875 321.713867188 c 132,-1,8
 110.8203125 408.006835938 110.8203125 408.006835938 110.8203125 529.561523438 c 132,-1,9
EndSplineSet
EndChar
StartChar: afii57393
Encoding: 1633 1633 70
Width: 1177
VWidth: 2334
GlyphClass: 2
Flags: W
LayerCount: 2
Fore
SplineSet
523.386 59.4033 m 2,0,1
 522.569 490.753 522.569 490.753 480.407 752.816 c 1,2,3
 434.906 1056.21 434.906 1056.21 309.577 1325.1 c 2,4,-1
 288.395 1370.55 l 1,5,-1
 514.66 1480.73 l 1,6,-1
 538.768 1440.92 l 2,7,8
 651.363 1255 651.363 1255 728.639 899.483 c 0,9,10
 779.775 664.223 779.775 664.223 781.99 59.6865 c 2,11,-1
 782.177 8.5 l 1,12,-1
 523.482 8.5 l 1,13,-1
 523.386 59.4033 l 2,0,1
EndSplineSet
EndChar
StartChar: afii57394
Encoding: 1634 1634 90
Width: 1177
VWidth: 2283
GlyphClass: 2
Flags: W
LayerCount: 2
Fore
SplineSet
335.69 1434.49 m 6,0,1
 395.073 1295.1 395.073 1295.1 403.362 1277.43 c 6,2,-1
 404.503 1275.12 l 6,3,4
 435.188 1212.96 435.188 1212.96 478.131 1182.94 c 132,-1,5
 521.073 1152.93 521.073 1152.93 582.08 1149.42 c 4,6,7
 753.231 1139.73 753.231 1139.73 799.262 1229.59 c 4,8,9
 837.228 1303.72 837.228 1303.72 852.563 1420.96 c 6,10,-1
 859.984 1477.7 l 5,11,12
 869.808 1475.2 869.808 1475.2 888.75 1470.55 c 132,-1,13
 907.692 1465.9 907.692 1465.9 915.499 1463.82 c 6,14,-1
 1106.01 1416.2 l 5,15,-1
 1097.28 1369.06 l 6,16,17
 1086.86 1312.78 1086.86 1312.78 1066.24 1238.57 c 4,18,19
 1018.71 1070.56 1018.71 1070.56 910.543 978.443 c 132,-1,20
 802.376 886.324 802.376 886.324 641.32 879.545 c 4,21,22
 580.68 876.993 580.68 876.993 517.092 889.188 c 5,23,24
 540.507 789.854 540.507 789.854 557.872 631.046 c 0,25,26
 566.194 554.986 566.194 554.986 572.266 60.124 c 2,27,-1
 572.897 8.5 l 1,28,-1
 313.753 8.5 l 1,29,-1
 313.663 59.4102 l 2,30,31
 312.896 493.292 312.896 493.292 274.515 726.373 c 0,32,33
 222.792 1040.48 222.792 1040.48 103.934 1295.99 c 6,34,-1
 85.8955 1334.76 l 5,35,-1
 311.045 1492.34 l 5,36,-1
 335.69 1434.49 l 6,0,1
EndSplineSet
EndChar
StartChar: afii57395
Encoding: 1635 1635 62
Width: 1332
GlyphClass: 2
Flags: W
LayerCount: 2
Fore
SplineSet
761.53125 869.952148438 m 1,0,1
 671 781 671 781 513 807 c 1,2,3
 585.116210938 498.502929688 585.116210938 498.502929688 571.15625 52.0947265625 c 2,4,-1
 569.79296875 8.5 l 1,5,-1
 316.7421875 8.5 l 1,6,-1
 316.6640625 56.416015625 l 2,7,8
 316 425 316 425 272.837890625 689.2265625 c 0,9,10
 228.057617188 962.650390625 228.057617188 962.650390625 107.40625 1221.91992188 c 2,11,-1
 91.484375 1256.13476562 l 1,12,-1
 311.54296875 1410.1484375 l 1,13,-1
 333.291015625 1359.11035156 l 2,14,15
 405 1192 405 1192 411.811523438 1175.390625 c 0,16,17
 440 1115 440 1115 464.811523438 1092.390625 c 0,18,19
 495 1065 495 1065 533.380859375 1061.92480469 c 0,20,21
 593 1056 593 1056 614.654296875 1084.93554688 c 0,22,23
 649.108398438 1132.1484375 649.108398438 1132.1484375 649.108398438 1292.140625 c 2,24,-1
 649.108398438 1340.50195312 l 1,25,-1
 860.61328125 1338.91601562 l 1,26,-1
 861.169921875 1294.81640625 l 2,27,28
 863 1137 863 1137 872.790039062 1108.44726562 c 0,29,30
 883 1078 883 1078 897.811523438 1068.97363281 c 0,31,32
 939 1042 939 1042 966.278320312 1070.40625 c 0,33,34
 1001 1106 1001 1106 1011.35058594 1329.2421875 c 1,35,-1
 1015.05859375 1386.28613281 l 1,36,-1
 1240.93164062 1356.22949219 l 1,37,38
 1236 1087 1236 1087 1159.81152344 939.390625 c 0,39,40
 1088 800 1088 800 944.994140625 803.452148438 c 0,41,42
 830 806 830 806 761.53125 869.952148438 c 1,0,1
EndSplineSet
EndChar
StartChar: afii57396
Encoding: 1636 1636 63
Width: 1042
VWidth: 2304
GlyphClass: 2
Flags: W
LayerCount: 2
Fore
SplineSet
443.17578125 1093.59863281 m 0,0,1
 443.055664062 991.01953125 443.055664062 991.01953125 684.541992188 1006.28222656 c 0,2,3
 708.130859375 1007.7734375 708.130859375 1007.7734375 730.598632812 1010.97070312 c 2,4,-1
 781.360351562 1018.1953125 l 1,5,-1
 784.352539062 751.950195312 l 1,6,-1
 757.284179688 739.931640625 l 2,7,8
 552.137695312 648.841796875 552.137695312 648.841796875 454.068359375 558.401367188 c 128,-1,9
 356 467.9609375 356 467.9609375 356 387 c 0,10,11
 356 260.171875 356 260.171875 598.836914062 261 c 2,12,-1
 939.422851562 262.162109375 l 1,13,-1
 942.58203125 -0.052734375 l 1,14,-1
 561.129882812 0.3642578125 l 2,15,16
 341.083007812 0.703125 341.083007812 0.703125 220.541992188 89.169921875 c 128,-1,17
 100 177.635742188 100 177.635742188 100 351 c 0,18,19
 100 608.84765625 100 608.84765625 355.166015625 815.228515625 c 1,20,21
 173.034179688 879.307617188 173.034179688 879.307617188 173.370117188 1102.59375 c 0,22,23
 173.063476562 1370.02832031 173.063476562 1370.02832031 463.508789062 1464.53613281 c 0,24,25
 566.126953125 1497.92773438 566.126953125 1497.92773438 702.142578125 1507.71972656 c 2,26,-1
 750.374023438 1511.19238281 l 1,27,-1
 750.374023438 1242.203125 l 1,28,-1
 707.932617188 1239.78613281 l 2,29,30
 443.044921875 1224.69824219 443.044921875 1224.69824219 443.17578125 1093.59863281 c 0,0,1
EndSplineSet
EndChar
StartChar: afii57397
Encoding: 1637 1637 64
Width: 1258
VWidth: 2181
GlyphClass: 2
Flags: W
LayerCount: 2
Fore
SplineSet
873.387695312 361.899414062 m 0,0,1
 915.95703125 435.142578125 915.95703125 435.142578125 904.157226562 583.09375 c 128,-1,2
 892.357421875 731.045898438 892.357421875 731.045898438 789.02734375 855.556640625 c 128,-1,3
 685.696289062 980.06640625 685.696289062 980.06640625 618.0703125 1029.31054688 c 1,4,5
 513.065429688 935.686523438 513.065429688 935.686523438 438.727539062 807.366210938 c 128,-1,6
 364.389648438 679.045898438 364.389648438 679.045898438 357.736328125 538.87890625 c 128,-1,7
 351.08203125 398.711914062 351.08203125 398.711914062 427.227539062 335.809570312 c 128,-1,8
 503.373046875 272.90625 503.373046875 272.90625 661.938476562 272.030273438 c 128,-1,9
 820.504882812 271.154296875 820.504882812 271.154296875 873.387695312 361.899414062 c 0,0,1
353.046875 1210.24121094 m 1,10,-1
 513.209960938 1420.74023438 l 1,11,-1
 546.794921875 1403.37597656 l 2,12,13
 647.268554688 1351.4296875 647.268554688 1351.4296875 797.333007812 1232.41210938 c 128,-1,14
 947.397460938 1113.39550781 947.397460938 1113.39550781 1051.87695312 944.662109375 c 0,15,16
 1202.6015625 701.2421875 1202.6015625 701.2421875 1162.35839844 402.149414062 c 0,17,18
 1141.24804688 245.249023438 1141.24804688 245.249023438 1056.22558594 153.39453125 c 0,19,20
 929.938476562 16.958984375 929.938476562 16.958984375 637.415039062 17.498046875 c 128,-1,21
 344.96484375 18.0361328125 344.96484375 18.0361328125 202.803710938 171.904296875 c 0,22,23
 35.0029296875 353.524414062 35.0029296875 353.524414062 107.546875 664.58984375 c 0,24,25
 139.760742188 802.734375 139.760742188 802.734375 218.736328125 937.645507812 c 128,-1,26
 297.7109375 1072.55761719 297.7109375 1072.55761719 406.369140625 1174.20117188 c 1,27,-1
 353.046875 1210.24121094 l 1,10,-1
EndSplineSet
EndChar
StartChar: afii57398
Encoding: 1638 1638 65
Width: 1235
VWidth: 2181
GlyphClass: 2
Flags: W
LayerCount: 2
Fore
SplineSet
146.35546875 1453.40820312 m 2,0,1
 500.677734375 1360.57324219 500.677734375 1360.57324219 909.184570312 1454.37109375 c 2,2,-1
 963.990234375 1466.95605469 l 1,3,-1
 964.271484375 1406.97851562 l 2,4,5
 965.712890625 1104.41015625 965.712890625 1104.41015625 999.6171875 780.76171875 c 128,-1,6
 1033.52246094 457.11328125 1033.52246094 457.11328125 1133.94042969 64.654296875 c 2,7,-1
 1148.30859375 8.5 l 1,8,-1
 876.731445312 8.5 l 1,9,-1
 868.00390625 42.2255859375 l 2,10,11
 737.533203125 546.375 737.533203125 546.375 714.965820312 1164.02148438 c 1,12,13
 608.053710938 1141.40039062 608.053710938 1141.40039062 454.818359375 1141.40039062 c 128,-1,14
 301.583007812 1141.40039062 301.583007812 1141.40039062 122.518554688 1192.87207031 c 2,15,-1
 89.9501953125 1202.234375 l 1,16,-1
 89.9501953125 1468.1875 l 1,17,-1
 146.35546875 1453.40820312 l 2,0,1
EndSplineSet
EndChar
StartChar: afii57399
Encoding: 1639 1639 76
Width: 1177
VWidth: 2283
GlyphClass: 2
Flags: W
LayerCount: 2
Fore
SplineSet
337.174 632.484 m 0,0,1
 230.972 1021.17 230.972 1021.17 63.1396 1309.87 c 2,2,-1
 36.0176 1356.53 l 1,3,-1
 285.661 1483.34 l 1,4,-1
 308.487 1437.06 l 2,5,6
 471.243 1107.03 471.243 1107.03 566.73 772.816 c 0,7,8
 578.862 730.326 578.862 730.326 588.5 696.391 c 1,9,10
 598.237 730.685 598.237 730.685 610.27 772.816 c 0,11,12
 705.772 1107.08 705.772 1107.08 868.514 1437.06 c 2,13,-1
 891.349 1483.36 l 1,14,-1
 1141 1356.42 l 1,15,-1
 1113.62 1309.71 l 2,16,17
 948.058 1027.3 948.058 1027.3 839.675 631.976 c 0,18,19
 752.152 312.734 752.152 312.734 719.478 53.1309 c 2,20,-1
 713.86 8.5 l 1,21,-1
 461.792 8.5 l 1,22,-1
 458.076 55.4795 l 2,23,24
 443.107 244.785 443.107 244.785 337.174 632.484 c 0,0,1
EndSplineSet
EndChar
StartChar: afii57400
Encoding: 1640 1640 67
Width: 1267
VWidth: 2181
GlyphClass: 2
Flags: W
LayerCount: 2
Fore
SplineSet
509.551757812 1459.5 m 1,0,-1
 756.219726562 1459.5 l 1,1,-1
 761.171875 1420.11425781 l 2,2,3
 796.874023438 1136.18359375 796.874023438 1136.18359375 881.6484375 838.709960938 c 0,4,5
 1005.6875 403.474609375 1005.6875 403.474609375 1170.20996094 141.94140625 c 2,6,-1
 1199.62011719 95.1904296875 l 1,7,-1
 935.408203125 -3.671875 l 1,8,-1
 917.404296875 32.8349609375 l 2,9,10
 738.470703125 395.65234375 738.470703125 395.65234375 633.5 787.985351562 c 1,11,12
 528.434570312 395.314453125 528.434570312 395.314453125 349.592773438 32.830078125 c 2,13,-1
 331.590820312 -3.658203125 l 1,14,-1
 68.6015625 94.66015625 l 1,15,-1
 96.14453125 140.955078125 l 2,16,17
 221.532226562 351.71484375 221.532226562 351.71484375 385.852539062 840.284179688 c 0,18,19
 483.500976562 1128.89453125 483.500976562 1128.89453125 506.284179688 1418.03515625 c 2,20,-1
 509.551757812 1459.5 l 1,0,-1
EndSplineSet
EndChar
StartChar: afii57401
Encoding: 1641 1641 68
Width: 1204
VWidth: 2181
GlyphClass: 2
Flags: W
LayerCount: 2
Fore
SplineSet
740.46875 595.54296875 m 1,0,1
 700 594 700 594 661.903320312 593.512695312 c 0,2,3
 227 594 227 594 116.325195312 859.3984375 c 0,4,5
 91 920 91 920 91 986.650390625 c 0,6,7
 91 1158 91 1158 199.444335938 1266.66796875 c 0,8,9
 342 1411 342 1411 527.15625 1410.70703125 c 0,10,11
 714 1411 714 1411 811.637695312 1316.34667969 c 0,12,13
 936 1195 936 1195 958.767578125 983.514648438 c 0,14,15
 972 862 972 862 1002.92578125 654.510742188 c 0,16,17
 1082 104 1082 104 1112.70117188 8.5 c 1,18,-1
 840.405273438 8.5 l 1,19,20
 827 53 827 53 740.46875 595.54296875 c 1,0,1
710.530273438 847.6953125 m 1,21,-1
 710.530273438 901.049804688 l 2,22,23
 711 1069 711 1069 600.979492188 1133.72753906 c 0,24,25
 565 1155 565 1155 515.630859375 1154.6015625 c 0,26,27
 411 1155 411 1155 370 1082 c 0,28,29
 345 1037 345 1037 349.225585938 983.629882812 c 0,30,31
 355 915 355 915 442.151367188 872.846679688 c 0,32,33
 503 844 503 844 582.110351562 843.736328125 c 0,34,35
 661 844 661 844 710.530273438 847.6953125 c 1,21,-1
EndSplineSet
EndChar
StartChar: afii57381
Encoding: 1642 1642 69
Width: 1183
VWidth: 2186
GlyphClass: 2
Flags: W
LayerCount: 2
Fore
SplineSet
757.192382812 67.84765625 m 2,0,1
 675.193359375 67.84765625 675.193359375 67.84765625 675.193359375 153.84765625 c 2,2,-1
 675.193359375 281.84765625 l 2,3,4
 675.193359375 361.84765625 675.193359375 361.84765625 761.193359375 361.84765625 c 2,5,-1
 876.193359375 361.84765625 l 2,6,7
 962.193359375 361.84765625 962.193359375 361.84765625 962.193359375 281.84765625 c 2,8,-1
 962.193359375 152.84765625 l 2,9,10
 962.193359375 67.859375 962.193359375 67.859375 884.189453125 67.837890625 c 2,11,-1
 757.192382812 67.84765625 l 2,0,1
305.388671875 1121.04980469 m 2,12,13
 223.389648438 1121.04980469 223.389648438 1121.04980469 223.389648438 1207.04980469 c 2,14,-1
 223.389648438 1335.04980469 l 2,15,16
 223.389648438 1415.04980469 223.389648438 1415.04980469 309.389648438 1415.04980469 c 2,17,-1
 424.389648438 1415.04980469 l 2,18,19
 510.389648438 1415.04980469 510.389648438 1415.04980469 510.389648438 1335.04980469 c 2,20,-1
 510.389648438 1206.04980469 l 2,21,22
 510.389648438 1121.061454 510.389648438 1121.061454 432.385742188 1121.04003906 c 2,23,-1
 305.388671875 1121.04980469 l 2,12,13
853.840820312 1486.08398438 m 1,24,-1
 1050.75683594 1384.63378906 l 1,25,-1
 323.986328125 -17.75390625 l 1,26,-1
 128.798828125 89.51171875 l 1,27,-1
 853.840820312 1486.08398438 l 1,24,-1
EndSplineSet
EndChar
StartChar: uni066B
Encoding: 1643 1643 70
Width: 717
VWidth: 2186
GlyphClass: 2
Flags: W
LayerCount: 2
Fore
SplineSet
439.702148438 597.577148438 m 5,0,-1
 646.896484375 500.194335938 l 5,1,-1
 232.452148438 -246.104492188 l 5,2,-1
 31.0361328125 -143.201171875 l 5,3,-1
 439.702148438 597.577148438 l 5,0,-1
EndSplineSet
EndChar
StartChar: uni066C
Encoding: 1644 1644 71
Width: 702
VWidth: 2186
GlyphClass: 2
Flags: W
LayerCount: 2
Fore
SplineSet
246.200195312 1676.00976562 m 1,0,-1
 541.969726562 1676.00976562 l 1,1,-1
 541.969726562 1469.90429688 l 1,2,-1
 352.8515625 1102.04003906 l 1,3,-1
 148.326171875 1102.04003906 l 1,4,-1
 246.200195312 1482.80078125 l 1,5,-1
 246.200195312 1676.00976562 l 1,0,-1
EndSplineSet
EndChar
StartChar: uni066E
Encoding: 1646 1646 102
Width: 1806
VWidth: 2232
GlyphClass: 2
Flags: W
AnchorPoint: "Anchor-10" 763.22 1102.5 basechar 0
AnchorPoint: "Anchor-7" 763.22 -128 basechar 0
LayerCount: 2
Fore
SplineSet
871.342 0.987305 m 0,0,1
 527.645 -0.03125 527.645 -0.03125 359.331 70.3232 c 0,2,3
 218.717 129.1 218.717 129.1 138.948 237.435 c 128,-1,4
 59.1807 345.77 59.1807 345.77 45.5898 496.569 c 0,5,6
 34.5693 614.426 34.5693 614.426 78.751 767.869 c 2,7,-1
 92.5498 815.794 l 1,8,-1
 314.134 757.327 l 1,9,-1
 306.833 711.732 l 2,10,11
 285.816 580.478 285.816 580.478 288.471 528.857 c 0,12,13
 293.739 426.411 293.739 426.411 360.14 366.613 c 128,-1,14
 426.54 306.815 426.54 306.815 569.563 284.78 c 0,15,16
 642.216 273.56 642.216 273.56 814.039 273.017 c 1,17,18
 1035.01 274.204 1035.01 274.204 1061.48 276.766 c 0,19,20
 1415.07 310.776 1415.07 310.776 1436.93 370.72 c 1,21,22
 1444.87 431.354 1444.87 431.354 1439.09 491.241 c 0,23,24
 1420.58 670.563 1420.58 670.563 1398.49 740.18 c 2,25,-1
 1385.4 781.414 l 1,26,-1
 1640.42 911.327 l 1,27,-1
 1655.66 848.659 l 2,28,29
 1682.88 736.724 1682.88 736.724 1695.87 601.484 c 0,30,31
 1720.07 349.469 1720.07 349.469 1664.36 228.051 c 0,32,33
 1608.1 105.331 1608.1 105.331 1411.38 53.5723 c 128,-1,34
 1214.67 1.81445 1214.67 1.81445 871.342 0.987305 c 0,0,1
EndSplineSet
Substitution2: "'init' Initial Forms in Arabic lookup 13 subtable" uni066E.init
Substitution2: "'medi' Medial Forms in Arabic lookup 11 subtable" uni066E.medi
Substitution2: "'fina' Terminal Forms in Arabic lookup 9 subtable" uni066E.fina
EndChar
StartChar: uni066F
Encoding: 1647 1647 73
Width: 1595
VWidth: 2181
GlyphClass: 2
Flags: W
AnchorPoint: "Anchor-10" 361 1093.5 basechar 0
AnchorPoint: "Anchor-7" 485 -555 basechar 0
LayerCount: 2
Fore
SplineSet
1152.82324219 686.8515625 m 0,0,1
 1106.65917969 685.8203125 1106.65917969 685.8203125 1074.89355469 658.208007812 c 128,-1,2
 1043.12792969 630.595703125 1043.12792969 630.595703125 1025.96582031 580.631347656 c 128,-1,3
 1008.80371094 530.666992188 1008.80371094 530.666992188 1006.76318359 501.517089844 c 128,-1,4
 1004.72265625 472.3671875 1004.72265625 472.3671875 1013.82617188 453.556640625 c 0,5,6
 1033.383518 413.145398282 1033.383518 413.145398282 1132.19824219 406.595703125 c 0,7,8
 1186.7060957 402.943166955 1186.7060957 402.943166955 1266.00585938 419.536132812 c 1,9,10
 1260.515625 689.262695312 1260.515625 689.262695312 1152.82324219 686.8515625 c 0,0,1
1280.203125 909.809570312 m 0,11,12
 1485.97743326 821.977179407 1485.97743326 821.977179407 1503.13671875 470.366210938 c 0,13,14
 1516.6108034 194.256761389 1516.6108034 194.256761389 1472.96386719 45.9658203125 c 0,15,16
 1425.18979481 -116.344996939 1425.18979481 -116.344996939 1310.81933594 -228.537109375 c 1,17,18
 1103.671875 -420.565429688 1103.671875 -420.565429688 731.73828125 -411.733398438 c 0,19,20
 417.877929688 -404.435546875 417.877929688 -404.435546875 253.016601562 -236.937011719 c 128,-1,21
 88.1552734375 -69.4384765625 88.1552734375 -69.4384765625 91.85546875 217.211914062 c 0,22,23
 94.75390625 433.944335938 94.75390625 433.944335938 190.91796875 628.631835938 c 2,24,-1
 207.048828125 661.290039062 l 1,25,-1
 446.500976562 600.421875 l 1,26,-1
 428.484375 553.212890625 l 2,27,28
 344.947265625 334.317382812 344.947265625 334.317382812 345.782226562 206.411132812 c 0,29,30
 347.090820312 15.33984375 347.090820312 15.33984375 450.655273438 -74.40625 c 128,-1,31
 554.220703125 -164.151367188 554.220703125 -164.151367188 755.087402344 -162.214355469 c 128,-1,32
 955.954101562 -160.27734375 955.954101562 -160.27734375 1065.92578125 -102.583984375 c 0,33,34
 1227.33627405 -17.9047870156 1227.33627405 -17.9047870156 1253.63671875 165.975585938 c 1,35,36
 970.248046875 129.560546875 970.248046875 129.560546875 852.201171875 261.728515625 c 0,37,38
 759.576171875 365.4296875 759.576171875 365.4296875 781.645996094 542.561035156 c 128,-1,39
 803.715820312 719.692382812 803.715820312 719.692382812 919.074707031 831.469726562 c 128,-1,40
 1034.43359375 943.247070312 1034.43359375 943.247070312 1169.94238281 934.938476562 c 0,41,42
 1229.72851562 931.35546875 1229.72851562 931.35546875 1280.203125 909.809570312 c 0,11,12
EndSplineSet
Substitution2: "'init' Initial Forms in Arabic lookup 13 subtable" uni066F.init
Substitution2: "'medi' Medial Forms in Arabic lookup 11 subtable" uni066F.medi
Substitution2: "'fina' Terminal Forms in Arabic lookup 9 subtable" uni066F.fina
EndChar
StartChar: uni0670
Encoding: 1648 1648 84
Width: 0
VWidth: 2186
GlyphClass: 4
Flags: W
AnchorPoint: "Anchor-10" 547.84 1279.5 mark 0
AnchorPoint: "Anchor-9" 547.84 1279.5 mark 0
AnchorPoint: "Anchor-1" 557.84 1911 basemark 0
AnchorPoint: "Anchor-1" 547.84 1279.5 mark 0
LayerCount: 2
Fore
SplineSet
525.99 1327.81 m 5,0,-1
 501.99 1781.69 l 5,1,-1
 593.69 1835.69 l 5,2,-1
 593.69 1327.81 l 5,3,-1
 525.99 1327.81 l 5,0,-1
EndSplineSet
EndChar
StartChar: uni0674
Encoding: 1652 1652 85
Width: 639
VWidth: 2186
GlyphClass: 2
Flags: W
LayerCount: 2
Fore
SplineSet
143.54 1515.26 m 5,0,-1
 254.306 1540.82 l 5,1,2
 145.68 1590.21 145.68 1590.21 145.68 1692.52 c 4,3,4
 145.68 1778.8 145.68 1778.8 206 1832 c 4,5,6
 256.995 1876.48 256.995 1876.48 343 1877 c 4,7,8
 410.823 1877 410.823 1877 462.08 1846.81 c 5,9,-1
 462.08 1769.8 l 5,10,11
 397.433 1802.12 397.433 1802.12 332 1795 c 4,12,13
 227.549 1783.73 227.549 1783.73 220.26 1701.08 c 4,14,15
 212.646 1612.93 212.646 1612.93 330.161 1577.33 c 4,16,17
 366.368 1566.36 366.368 1566.36 484.55 1593.69 c 5,18,-1
 484.55 1511.4 l 5,19,-1
 143.54 1434.84 l 5,20,-1
 143.54 1515.26 l 5,0,-1
EndSplineSet
EndChar
StartChar: uni06A1
Encoding: 1697 1697 109
Width: 1757
VWidth: 2232
GlyphClass: 2
Flags: W
AnchorPoint: "Anchor-10" 515.55 1276.28 basechar 0
AnchorPoint: "Anchor-7" 467.55 -211.88 basechar 0
LayerCount: 2
Fore
SplineSet
354.331 70.3232 m 0,0,1
 213.717 129.1 213.717 129.1 133.948 237.435 c 128,-1,2
 54.1807 345.77 54.1807 345.77 40.5898 496.568 c 0,3,4
 29.5693 614.425 29.5693 614.425 73.751 767.868 c 2,5,-1
 87.5498 815.793 l 1,6,-1
 308.657 757.452 l 1,7,-1
 301.916 712.269 l 2,8,9
 283.13 586.34 283.13 586.34 285.496 528.316 c 0,10,11
 289.71 425.043 289.71 425.043 355.433 365.487 c 128,-1,12
 421.154 305.931 421.154 305.931 564.22 284.831 c 0,13,14
 601.271 279.367 601.271 279.367 801.731 272.989 c 0,15,16
 1125.88 262.593 1125.88 262.593 1308.96 317.992 c 0,17,18
 1372.39 337.163 1372.39 337.163 1407.86 374.887 c 1,19,20
 1363.9 367.149 1363.9 367.149 1309.04 366.146 c 0,21,22
 1120.15 362.803 1120.15 362.803 1038.27 477.855 c 1,23,24
 966.348 576.684 966.348 576.684 983.684 723.201 c 0,25,26
 1004.91 907.242 1004.91 907.242 1104.89 1012.21 c 0,27,28
 1168.96 1079.47 1168.96 1079.47 1247.03 1105.87 c 128,-1,29
 1325.1 1132.28 1325.1 1132.28 1410.58 1114.29 c 0,30,31
 1537.33 1087.63 1537.33 1087.63 1611.41 960.814 c 0,32,33
 1677.45 847.754 1677.45 847.754 1694.99 695.27 c 1,34,35
 1717.34 511.515 1717.34 511.515 1679.89 357.233 c 0,36,37
 1652.58 244.981 1652.58 244.981 1573.39 167.055 c 128,-1,38
 1494.2 89.127 1494.2 89.127 1369.81 48.9629 c 0,39,40
 1208.95 -2.97852 1208.95 -2.97852 852.353 0.00195312 c 0,41,42
 515.837 2.81445 515.837 2.81445 354.331 70.3232 c 0,0,1
1336.65 863.924 m 0,43,44
 1296.63 862.778 1296.63 862.778 1269.5 834.852 c 128,-1,45
 1242.36 806.926 1242.36 806.926 1225.07 738.016 c 0,46,47
 1222.33 726.956 1222.33 726.956 1220.59 716.736 c 0,48,49
 1211.72 664.499 1211.72 664.499 1225.13 644.17 c 128,-1,50
 1238.54 623.84 1238.54 623.84 1283.83 616.187 c 0,51,52
 1389.71 597.836 1389.71 597.836 1462.43 642.883 c 1,53,54
 1461.05 670.83 1461.05 670.83 1451.27 723.772 c 0,55,56
 1436.17 804.338 1436.17 804.338 1408.29 834.766 c 128,-1,57
 1380.42 865.193 1380.42 865.193 1336.65 863.924 c 0,43,44
EndSplineSet
Substitution2: "'init' Initial Forms in Arabic lookup 13 subtable" uni06A1.init
Substitution2: "'medi' Medial Forms in Arabic lookup 11 subtable" uni06A1.medi
Substitution2: "'fina' Terminal Forms in Arabic lookup 9 subtable" uni06A1.fina
EndChar
StartChar: uni06A9
Encoding: 1705 1705 80
Width: 1975
VWidth: 2181
GlyphClass: 2
Flags: W
AnchorPoint: "Anchor-10" 428 1212.95 basechar 0
AnchorPoint: "Anchor-7" 514 -223.68 basechar 0
LayerCount: 2
Fore
SplineSet
888.779296875 0 m 2,0,1
 570.962890625 0 570.962890625 0 403.423828125 70.1171875 c 0,2,3
 76.0399986611 208.076213853 76.0399986611 208.076213853 91.56640625 569.576171875 c 0,4,5
 95.6152732554 663.845579921 95.6152732554 663.845579921 125.469726562 766.924804688 c 2,6,-1
 137.692382812 809.125976562 l 1,7,-1
 354.564453125 751.903320312 l 1,8,-1
 347.205078125 711.018554688 l 2,9,10
 322.197265625 572.080078125 322.197265625 572.080078125 325.235839844 509.75 c 128,-1,11
 328.274414062 447.419921875 328.274414062 447.419921875 367.4375 394.110351562 c 0,12,13
 448.831790095 283.316857118 448.831790095 283.316857118 705.999023438 270.546875 c 0,14,15
 788.955078125 267 788.955078125 267 848.293945312 267.016601562 c 2,16,-1
 1100.91210938 265.00390625 l 1,17,-1
 1268.96875 265.129882812 l 2,18,19
 1445.41546057 265.262386609 1445.41546057 265.262386609 1465.99121094 364.677734375 c 0,20,21
 1477.31933594 419.705078125 1477.31933594 419.705078125 1416.37988281 486.955078125 c 2,22,-1
 1155.37402344 776.728515625 l 2,23,24
 1053.63441801 889.682821722 1053.63441801 889.682821722 1050.53417969 975.189453125 c 0,25,26
 1044.93296198 1118.3153057 1044.93296198 1118.3153057 1189.7265625 1196.22265625 c 2,27,-1
 1935.375 1598.71582031 l 1,28,-1
 1935.375 1322.86132812 l 1,29,-1
 1304.60058594 980.93359375 l 1,30,-1
 1594.72558594 660.196289062 l 2,31,32
 1741.54101562 497.887695312 1741.54101562 497.887695312 1693.73730469 304.541992188 c 0,33,34
 1619.32969311 -8.24229573482e-13 1619.32969311 -8.24229573482e-13 1189 0 c 2,35,-1
 888.779296875 0 l 2,0,1
EndSplineSet
Substitution2: "'init' Initial Forms in Arabic lookup 13 subtable" uniFB90
Substitution2: "'medi' Medial Forms in Arabic lookup 11 subtable" uniFB91
Substitution2: "'fina' Terminal Forms in Arabic lookup 9 subtable" uniFB8F
EndChar
StartChar: afii57514
Encoding: 1722 1722 82
Width: 1381
VWidth: 2186
GlyphClass: 2
Flags: W
AnchorPoint: "Anchor-10" 595.734 1100.15 basechar 0
AnchorPoint: "Anchor-7" 541.58 -441.02 basechar 0
LayerCount: 2
Fore
SplineSet
1194.20898438 822.850585938 m 2,0,1
 1326.99972988 600.950261219 1326.99972988 600.950261219 1325.75976562 372.631835938 c 4,2,3
 1323 -61 1323 -61 1031.23730469 -206.53515625 c 0,4,5
 885 -279 885 -279 677.341796875 -281.997070312 c 0,6,7
 385 -285 385 -285 224.1328125 -144.32421875 c 0,8,9
 62 -2 62 -2 46.6533203125 271.567382812 c 0,10,11
 42 356 42 356 64.599609375 474.686523438 c 0,12,13
 88.323492098 594.635591276 88.323492098 594.635591276 139.795898438 705.043945312 c 2,14,-1
 157.5625 743.153320312 l 1,15,-1
 379.928710938 657.310546875 l 1,16,-1
 362.673828125 614.876953125 l 2,17,18
 278 407 278 407 294.283691406 258.322265625 c 0,19,20
 311 110 311 110 403.1796875 36.142578125 c 0,21,22
 496 -38 496 -38 654.034667969 -36.7783203125 c 0,23,24
 812 -36 812 -36 899.75 3.27734375 c 0,25,26
 1071 80 1071 80 1081.80078125 319.6953125 c 0,27,28
 1089.02172566 483.492817554 1089.02172566 483.492817554 978.19140625 639.16796875 c 2,29,-1
 955.603515625 670.895507812 l 1,30,-1
 1165.26367188 871.219726562 l 1,31,-1
 1194.20898438 822.850585938 l 2,0,1
EndSplineSet
Substitution2: "'init' Initial Forms in Arabic lookup 13 subtable" uni06BA.init
Substitution2: "'medi' Medial Forms in Arabic lookup 11 subtable" uni06BA.medi
Substitution2: "'fina' Terminal Forms in Arabic lookup 9 subtable" uniFB9F
EndChar
StartChar: uni06F3
Encoding: 1779 1779 88
Width: 1351
GlyphClass: 2
Flags: W
LayerCount: 2
Fore
SplineSet
1259.93164062 1356.22949219 m 1,0,1
 1255 1087 1255 1087 1181.86816406 945.184570312 c 0,2,3
 1109 803 1109 803 959.276367188 803.369140625 c 0,4,5
 833 803 833 803 761.53125 869.952148438 c 1,6,7
 691 801 691 801 581.021660312 801.119292165 c 0,8,9
 549 801 549 801 513 807 c 1,10,11
 576 538 576 538 573.420297124 193.265559182 c 0,12,13
 573.000328442 111.064286533 573.000328442 111.064286533 571.15625 52.0947265625 c 2,14,-1
 569.79296875 8.5 l 1,15,-1
 316.7421875 8.5 l 1,16,-1
 316.6640625 56.416015625 l 2,17,18
 316 425 316 425 272.028808594 693.825195312 c 128,-1,19
 228.05711949 962.650793923 228.05711949 962.650793923 107.40625 1221.91992188 c 2,20,-1
 91.484375 1256.13476562 l 1,21,-1
 311.54296875 1410.1484375 l 1,22,23
 397 1210 397 1210 422.5 1153.5 c 0,24,25
 465 1061 465 1061 552.549744895 1060.9178352 c 0,26,27
 597 1061 597 1061 614.654296875 1084.93554688 c 0,28,29
 649.108398438 1132.14854007 649.108398438 1132.14854007 649.108398438 1292.140625 c 2,30,-1
 649.108398438 1340.50195312 l 1,31,-1
 860.61328125 1338.91601562 l 1,32,-1
 861.169921875 1294.81640625 l 2,33,34
 863 1137 863 1137 873 1107.5 c 0,35,36
 891 1056 891 1056 942.634765625 1055.8359375 c 4,37,38
 971 1056 971 1056 985.278320312 1070.40625 c 0,39,40
 1020 1106 1020 1106 1030.35058594 1329.2421875 c 1,41,-1
 1034.05859375 1386.28613281 l 1,42,-1
 1259.93164062 1356.22949219 l 1,0,1
EndSplineSet
EndChar
StartChar: uni06F4
Encoding: 1780 1780 119
Width: 1177
VWidth: 2334
GlyphClass: 2
Flags: W
LayerCount: 2
Fore
SplineSet
394.545 1263.03 m 1,0,1
 472.212 1417.42 472.212 1417.42 604.548 1455.98 c 0,2,3
 762.989 1502.03 762.989 1502.03 968.225 1459.34 c 2,4,-1
 1008.84 1450.89 l 1,5,-1
 1008.84 1212.39 l 1,6,-1
 943.992 1230.69 l 2,7,8
 907.821 1240.89 907.821 1240.89 827.775 1251.03 c 0,9,10
 688.772 1268.65 688.772 1268.65 622.195 1200.71 c 0,11,12
 576.789 1154.66 576.789 1154.66 569.782 1116.02 c 128,-1,13
 562.775 1077.37 562.775 1077.37 588.243 1038.92 c 0,14,15
 603.31 1014.98 603.31 1014.98 653.327 998.475 c 128,-1,16
 703.345 981.968 703.345 981.968 791.291 981.86 c 0,17,18
 841.314 981.814 841.314 981.814 1007.99 1006.32 c 2,19,-1
 1065.5 1014.77 l 1,20,-1
 1069.21 775.513 l 1,21,-1
 1024.17 769.585 l 2,22,23
 826.645 743.59 826.645 743.59 761.84 743.59 c 0,24,25
 627.028 743.59 627.028 743.59 528.736 784.815 c 1,26,27
 528.49 783.799 528.49 783.799 536.596 727.699 c 0,28,29
 575.732 474.125 575.732 474.125 572.439 59.0957 c 2,30,-1
 572.038 8.5 l 1,31,-1
 313.754 8.5 l 1,32,-1
 313.664 59.4102 l 2,33,34
 312.915 483.829 312.915 483.829 274.477 726.61 c 0,35,36
 228.902 1010.55 228.902 1010.55 99.625 1300.44 c 2,37,-1
 81.9854 1340 l 1,38,-1
 314.417 1493.01 l 1,39,-1
 336.035 1431.38 l 2,40,41
 372.066 1328.67 372.066 1328.67 394.545 1263.03 c 1,0,1
EndSplineSet
EndChar
StartChar: uni06F5
Encoding: 1781 1781 120
Width: 1177
VWidth: 2232
GlyphClass: 2
Flags: W
LayerCount: 2
Fore
SplineSet
699.484 370.299 m 2,0,1
 712.231 322.028 712.231 322.028 735.881 303.556 c 128,-1,2
 759.53 285.083 759.53 285.083 804.814 286.373 c 0,3,4
 836.884 287.139 836.884 287.139 858.807 294.777 c 0,5,6
 877.567 301.316 877.567 301.316 888.971 313.711 c 128,-1,7
 900.375 326.105 900.375 326.105 906.103 349.224 c 128,-1,8
 911.831 372.342 911.831 372.342 905.368 411.596 c 128,-1,9
 898.906 450.85 898.906 450.85 879.938 505.06 c 0,10,11
 774.529 804.396 774.529 804.396 589.421 1049.51 c 1,12,13
 399.875 782.53 399.875 782.53 308.484 500.959 c 0,14,15
 285.365 429.235 285.365 429.235 285.327 380.975 c 0,16,17
 285.285 330.13 285.285 330.13 308.015 310.037 c 128,-1,18
 330.744 289.945 330.744 289.945 395.245 289.945 c 0,19,20
 431.318 289.945 431.318 289.945 454.3 308.472 c 128,-1,21
 477.282 326.999 477.282 326.999 493.842 374.171 c 2,22,-1
 505.815 408.276 l 1,23,-1
 689.456 408.278 l 1,24,-1
 699.484 370.299 l 2,0,1
366.972 8.36426 m 0,25,26
 213.318 8.36426 213.318 8.36426 125.26 91.4092 c 128,-1,27
 37.2012 174.453 37.2012 174.453 29.0723 327.291 c 0,28,29
 18.7305 521.723 18.7305 521.723 138.86 775.857 c 128,-1,30
 258.991 1029.99 258.991 1029.99 507.887 1352.6 c 0,31,32
 519.535 1367.7 519.535 1367.7 532.108 1378.02 c 0,33,34
 558.212 1399.46 558.212 1399.46 588.545 1400.61 c 0,35,36
 636.723 1402.44 636.723 1402.44 676.57 1353.57 c 0,37,38
 930.792 1041.8 930.792 1041.8 1049.43 787.317 c 128,-1,39
 1168.06 532.839 1168.06 532.839 1147.75 328.965 c 0,40,41
 1132.83 178.641 1132.83 178.641 1048.35 95.1104 c 128,-1,42
 963.874 11.5801 963.874 11.5801 820.697 8.87402 c 0,43,44
 669.771 5.81152 669.771 5.81152 591.341 107.402 c 1,45,46
 514.932 8.36621 514.932 8.36621 366.972 8.36426 c 0,25,26
EndSplineSet
EndChar
StartChar: uni06F6
Encoding: 1782 1782 91
Width: 1021
VWidth: 2181
GlyphClass: 2
Flags: W
LayerCount: 2
Fore
SplineSet
603.370117188 1403.71191406 m 4,0,1
 696.234320379 1404.00072875 696.234320379 1404.00072875 784.506835938 1375.96484375 c 2,2,-1
 815.884765625 1365.99902344 l 1,3,-1
 814.884765625 1138.7109375 l 1,4,5
 563 1192 563 1192 462.0859375 1118.61132812 c 0,6,7
 390 1067 390 1067 390.25 995.633789062 c 0,8,9
 390 928 390 928 446.375976562 879.75390625 c 0,10,11
 500 835 500 835 651.165039062 859.525390625 c 0,12,13
 727.394986655 871.901772513 727.394986655 871.901772513 866.975585938 929.28125 c 2,14,-1
 929.084960938 954.813476562 l 1,15,-1
 929.084960938 695.108398438 l 1,16,17
 581 620 581 620 435.3359375 276.026367188 c 0,18,19
 395 181 395 181 347.483398438 8.5 c 1,20,-1
 91.4951171875 8.5 l 1,21,22
 151 227 151 227 239 412 c 0,23,24
 303 546 303 546 382.6640625 655.151367188 c 1,25,26
 273 681 273 681 212.663085938 759.221679688 c 0,27,28
 152 837 152 837 145.326171875 958.426757812 c 0,29,30
 134 1149 134 1149 269.013671875 1278.88574219 c 0,31,32
 398 1403 398 1403 603.370117188 1403.71191406 c 4,0,1
EndSplineSet
EndChar
StartChar: uniFB8F
Encoding: 64399 64399 116
Width: 2024
VWidth: 2232
GlyphClass: 2
Flags: W
AnchorPoint: "Anchor-10" 450 1225.5 basechar 0
AnchorPoint: "Anchor-7" 499 -239 basechar 0
LayerCount: 2
Fore
SplineSet
360.365 70.3086 m 0,0,1
 219 129 219 129 139.213 237.391 c 0,2,3
 59 346 59 346 45.584 496.629 c 0,4,5
 34.9843905841 615.174575035 34.9843905841 615.174575035 79.8193 768.105 c 2,6,-1
 93.7822 815.732 l 1,7,-1
 315.134 757.327 l 1,8,-1
 307.833 711.732 l 2,9,10
 287 580 287 580 289.471 528.857 c 0,11,12
 295 426 295 426 361.141 366.614 c 0,13,14
 428 307 428 307 570.559 284.781 c 0,15,16
 644 274 644 274 802.718 271.479 c 1,17,-1
 1252.65 271.63 l 2,18,19
 1349 272 1349 272 1392.91 296.633 c 0,20,21
 1437 322 1437 322 1446.72 368.75 c 0,22,23
 1457.93807489 421.707667372 1457.93807489 421.707667372 1397.78 488.498 c 2,24,-1
 1136.83 778.217 l 2,25,26
 1034 893 1034 893 1030.27 980.854 c 0,27,28
 1029 1005 1029 1005 1033.24 1028.43 c 0,29,30
 1052.05456567 1136.31288002 1052.05456567 1136.31288002 1171.95 1201.23 c 2,31,-1
 1922.05 1607.37 l 1,32,-1
 1922.05 1324.58 l 1,33,-1
 1292.94 983.551 l 1,34,-1
 1865.23 348.276 l 2,35,36
 1934.65467294 270.387427559 1934.65467294 270.387427559 2024.29 271.79 c 2,37,-1
 2044.95019531 272.11328125 l 5,38,-1
 2044.95019531 1 l 5,39,-1
 1994.21 1 l 2,40,41
 1827 1 1827 1 1649.02 203.704 c 1,42,43
 1554.23323057 0.5 1554.23323057 0.5 1172.67 0.5 c 2,44,-1
 810.445 0.5 l 2,45,46
 527 0 527 0 360.365 70.3086 c 0,0,1
EndSplineSet
EndChar
StartChar: uniFB9F
Encoding: 64415 64415 114
Width: 1431
VWidth: 2181
GlyphClass: 2
Flags: W
AnchorPoint: "Anchor-10" 418.092 759.45 basechar 0
AnchorPoint: "Anchor-7" 323.712 -653.104 basechar 0
LayerCount: 2
Fore
SplineSet
707.17578125 -488.2421875 m 0,0,1
 271.1015625 -493.97265625 271.1015625 -493.97265625 132.6875 -176.390625 c 0,2,3
 65 -20 65 -20 96.70703125 195.7109375 c 0,4,5
 116.750976562 335.266601562 116.750976562 335.266601562 177.983398438 472.5390625 c 2,6,-1
 194.75390625 510.135742188 l 1,7,-1
 428.6640625 429.836914062 l 1,8,-1
 410.428710938 385.637695312 l 2,9,10
 338 210 338 210 338.125976562 78.2041015625 c 0,11,12
 337 -93 337 -93 446.6484375 -171.586914062 c 0,13,14
 534 -235 534 -235 710.630859375 -235.232421875 c 0,15,16
 887 -235 887 -235 977.885742188 -164.838867188 c 0,17,18
 1069 -94 1069 -94 1087.49316406 53.9677734375 c 0,19,20
 1112.00585938 249.049804688 1112.00585938 249.049804688 990.287109375 404.71875 c 2,21,-1
 965.141601562 436.877929688 l 1,22,-1
 1183.04394531 644.33984375 l 1,23,-1
 1206.546875 579.6953125 l 2,24,25
 1261 429 1261 429 1305.39550781 347.408203125 c 0,26,27
 1349.79394531 265.379882812 1349.79394531 265.379882812 1406.28027344 265.379882812 c 2,28,-1
 1441.53027344 265.379882812 l 1,29,-1
 1441.53027344 0.5 l 1,30,-1
 1407.58203125 0.5 l 2,31,32
 1358 0 1358 0 1318.046875 19.12890625 c 1,33,34
 1296 -224 1296 -224 1139.32226562 -352.525390625 c 0,35,36
 978 -485 978 -485 707.17578125 -488.2421875 c 0,0,1
EndSplineSet
EndChar
StartChar: uniFBE8
Encoding: 64488 64488 117
Width: 650
VWidth: 2186
GlyphClass: 2
Flags: W
AnchorPoint: "Anchor-10" 276.93 1064.5 basechar 0
AnchorPoint: "Anchor-7" 308.93 -64.5 basechar 0
LayerCount: 2
Fore
SplineSet
80.6494140625 0 m 2,0,-1
 -10.400390625 0 l 5,1,-1
 -10.400390625 264.98046875 l 5,2,-1
 94.0341796875 264.98046875 l 2,3,4
 269 265 269 265 292.962956913 322.425508657 c 128,-1,5
 317 380 317 380 306.840820312 505.467285156 c 0,6,7
 295.731619759 634.107744556 295.731619759 634.107744556 273.920898438 720.461914062 c 2,8,-1
 262.46484375 765.819335938 l 1,9,-1
 497.434570312 815.5546875 l 1,10,-1
 511.41796875 780.220703125 l 2,11,12
 574 621 574 621 558.469726562 381.073242188 c 0,13,14
 545 171 545 171 444.210645003 85.4691106876 c 0,15,16
 344 0 344 0 80.6494140625 0 c 2,0,-1
EndSplineSet
EndChar
StartChar: uniFBE9
Encoding: 64489 64489 118
Width: 702
VWidth: 2181
GlyphClass: 2
Flags: W
AnchorPoint: "Anchor-10" 299.93 1012.5 basechar 0
AnchorPoint: "Anchor-7" 268.93 -204.5 basechar 0
LayerCount: 2
Fore
SplineSet
407.227539062 88.154296875 m 1,0,1
 311 0 311 0 161.900390625 -0 c 2,2,-1
 -10.400390625 0 l 1,3,-1
 -10.400390625 264.98046875 l 1,4,-1
 115.041015625 264.98046875 l 2,5,6
 282.73681336 264.999969395 282.73681336 264.999969395 285.473632812 391.818359375 c 2,7,-1
 290.852539062 641.065429688 l 1,8,-1
 522.836914062 681.154296875 l 1,9,-1
 533.368164062 392.467773438 l 2,10,11
 535 336 535 336 576.120460861 300.674687514 c 0,12,13
 617.022380813 264.98046875 617.022380813 264.98046875 689.810546875 264.98046875 c 2,14,-1
 712.66015625 264.98046875 l 5,15,-1
 712.66015625 0 l 5,16,-1
 666.959960938 0 l 2,17,18
 506 0 506 0 407.227539062 88.154296875 c 1,0,1
EndSplineSet
EndChar
StartChar: uniFE73
Encoding: 65139 65139 126
Width: 579
VWidth: 2186
GlyphClass: 2
Flags: W
AnchorPoint: "Anchor-10" 213.79 1327.5 basechar 0
AnchorPoint: "Anchor-7" 213.79 -63.5 basechar 0
LayerCount: 2
Fore
SplineSet
347.23046875 398.740234375 m 2,0,1
 347.23046875 354.388671875 347.23046875 354.388671875 386.733398438 314.883789062 c 128,-1,2
 426.236328125 275.379882812 426.236328125 275.379882812 517.669921875 275.379882812 c 2,3,-1
 632.919921875 275.379882812 l 1,4,-1
 632.919921875 8.5 l 1,5,-1
 458.8203125 8.5 l 2,6,7
 292.383789062 8.5 292.383789062 8.5 186.3671875 114.515625 c 128,-1,8
 80.349609375 220.532226562 80.349609375 220.532226562 80.349609375 385.900390625 c 2,9,-1
 80.349609375 466.91015625 l 1,10,-1
 347.23046875 466.91015625 l 1,11,-1
 347.23046875 398.740234375 l 2,0,1
EndSplineSet
EndChar
StartChar: uniFE8E
Encoding: 65166 65166 162
Width: 549
VWidth: 2181
GlyphClass: 2
Flags: W
AnchorPoint: "Anchor-10" 273.95 1522 basechar 0
AnchorPoint: "Anchor-7" 297.95 -239.5 basechar 0
LayerCount: 2
Fore
SplineSet
145.545898438 453.030273438 m 2,0,-1
 107.259765625 1355.76464844 l 1,1,-1
 367.418945312 1470.18945312 l 1,2,-1
 366.989257812 467.78515625 l 2,3,4
 367 379 367 379 390.5 343 c 0,5,6
 438.012695312 270.98046875 438.012695312 270.98046875 539.830078125 270.98046875 c 2,7,-1
 569.080078125 270.98046875 l 1,8,-1
 569.080078125 0 l 1,9,-1
 519.98046875 0 l 2,10,11
 322 0 322 0 216.41796875 146.624023438 c 0,12,13
 155 232 155 232 145.545898438 453.030273438 c 2,0,-1
EndSplineSet
EndChar
StartChar: uniFEA2
Encoding: 65186 65186 172
Width: 1350
VWidth: 2181
GlyphClass: 2
Flags: W
AnchorPoint: "Anchor-10" 626.5 1166 basechar 0
AnchorPoint: "Anchor-7" 457.84 -717.64 basechar 0
LayerCount: 2
Fore
SplineSet
1337.47460938 -0.5 m 2,0,1
 1154.55530473 -0.5 1154.55530473 -0.5 1039.41308594 103.174804688 c 0,2,3
 925 207 925 207 888.381835938 402.374023438 c 1,4,5
 727 368 727 368 604.997070312 297.428710938 c 0,6,7
 341 144 341 144 341.080078125 -87.1708984375 c 0,8,9
 341 -212 341 -212 434.001464844 -287.041503906 c 128,-1,10
 527 -362 527 -362 746.122558594 -362.508300781 c 128,-1,11
 965.189028825 -363.000424646 965.189028825 -363.000424646 1122.59277344 -318.052734375 c 2,12,-1
 1164.1953125 -306.172851562 l 1,13,-1
 1239.87207031 -536.489257812 l 1,14,-1
 1196.04003906 -549.977539062 l 2,15,16
 991 -613 991 -613 772 -613 c 0,17,18
 367 -613 367 -613 204.8828125 -422.15625 c 0,19,20
 91 -289 91 -289 90.9985351562 -95.15234375 c 0,21,22
 91 98 91 98 197.221679688 259.611328125 c 0,23,24
 346 486 346 486 703.465820312 589.844726562 c 1,25,26
 552 661 552 661 519.486328125 664.14453125 c 0,27,28
 425.716874272 672.023790487 425.716874272 672.023790487 302.881835938 515.979492188 c 2,29,-1
 275.357421875 481.013671875 l 1,30,-1
 97.810546875 617.587890625 l 1,31,-1
 121.743164062 652.696289062 l 2,32,33
 296 908 296 908 508 908 c 0,34,35
 565 908 565 908 611.048391776 888.66015625 c 0,36,37
 677 861 677 861 764.970024026 818.24456137 c 0,38,39
 926 739 926 739 999.297959399 714.171384153 c 0,40,41
 1072.19525844 688.932396323 1072.19525844 688.932396323 1155.37988281 677.776367188 c 2,42,-1
 1200.38085938 671.741210938 l 1,43,-1
 1166.05859375 432.094726562 l 1,44,-1
 1130.08203125 429.326171875 l 2,45,46
 1120 429 1120 429 1112.75 427.99609375 c 1,47,48
 1134 343 1134 343 1186.06835938 303.452148438 c 0,49,50
 1237.49995277 264.379882812 1237.49995277 264.379882812 1331.12988281 264.379882812 c 2,51,-1
 1360.94042969 264.379882812 l 5,52,-1
 1360.94042969 -0.5 l 5,53,-1
 1337.47460938 -0.5 l 2,0,1
EndSplineSet
EndChar
StartChar: uniFEA3
Encoding: 65187 65187 173
Width: 1377
VWidth: 2181
GlyphClass: 2
Flags: W
AnchorPoint: "Anchor-10" 371 1100.73 basechar 0
AnchorPoint: "Anchor-7" 566 -160.5 basechar 0
LayerCount: 2
Fore
SplineSet
640.7734375 94.28125 m 0,0,1
 446 0 446 0 46.2548828125 0 c 2,2,-1
 -10.400390625 0 l 5,3,-1
 -10.400390625 264.98046875 l 5,4,-1
 17.5966796875 264.98046875 l 2,5,6
 358 265 358 265 486.524414062 311.618164062 c 0,7,8
 649 370 649 370 788.08203125 432.241210938 c 1,9,10
 730 453 730 453 652.451954341 487.216985535 c 0,11,12
 439 582 439 582 371.653320312 570.220703125 c 0,13,14
 295.989818135 556.998220681 295.989818135 556.998220681 205.502929688 437.948242188 c 2,15,-1
 178.114257812 401.9140625 l 1,16,-1
 -0.7998046875 539.541992188 l 1,17,-1
 24.326171875 574.864257812 l 2,18,19
 123 714 123 714 184.940429688 758.862304688 c 0,20,21
 326 861 326 861 513.329101562 810.8984375 c 0,22,23
 571 795 571 795 885.955078125 658.583984375 c 0,24,25
 1079.72168692 574.687526265 1079.72168692 574.687526265 1237.71777344 585.14453125 c 2,26,-1
 1294.37695312 588.89453125 l 1,27,-1
 1257.09179688 364.171875 l 1,28,-1
 1226.99121094 357.844726562 l 2,29,30
 1153 342 1153 342 640.7734375 94.28125 c 0,0,1
EndSplineSet
EndChar
StartChar: uniFEA4
Encoding: 65188 65188 184
Width: 1394
VWidth: 2232
GlyphClass: 2
Flags: W
AnchorPoint: "Anchor-10" 455 1123.69 basechar 0
AnchorPoint: "Anchor-7" 591 -313.5 basechar 0
LayerCount: 2
Fore
SplineSet
808.226 175.147 m 1,0,1
 730 138 730 138 638.985 94.5352 c 0,2,3
 443 0 443 0 43.2549 0 c 2,4,-1
 -21.400390625 0 l 1,5,-1
 -21.400390625 270.978515625 l 1,6,-1
 14.5996 270.979 l 2,7,8
 354 271 354 271 482.543 317.454 c 0,9,10
 639 374 639 374 775.933 434.383 c 1,11,12
 730 451 730 451 675.572 475.26 c 0,13,14
 490 558 490 558 399.765 570.928 c 0,15,16
 315.070321467 583.989155404 315.070321467 583.989155404 206.706 441.521 c 2,17,-1
 175.662 400.707 l 1,18,-1
 -7.78418 541.819 l 1,19,-1
 20.4512 581.811 l 2,20,21
 116 717 116 717 179.803 764.016 c 0,22,23
 321 868 321 868 511.213 816.767 c 0,24,25
 569 801 569 801 884.147 664.336 c 0,26,27
 1078.40637259 580.825303367 1078.40637259 580.825303367 1230.75 590.889 c 2,28,-1
 1294.95 595.13 l 1,29,-1
 1256.86 365.505 l 1,30,-1
 1223.75 357.742 l 2,31,32
 1193 351 1193 351 1057.37 290.243 c 1,33,34
 1120.41168526 271.880083439 1120.41168526 271.880083439 1243.32 271.88 c 2,35,-1
 1415.94042969 271.879882812 l 5,36,-1
 1415.94042969 -0.0009765625 l 5,37,-1
 1221.92 -0.000976562 l 2,38,39
 905 -0 905 -0 808.226 175.147 c 1,0,1
EndSplineSet
EndChar
StartChar: uniFEAA
Encoding: 65194 65194 180
Width: 1142
VWidth: 2181
GlyphClass: 2
Flags: W
AnchorPoint: "Anchor-10" 530.99 1261.65 basechar 0
AnchorPoint: "Anchor-7" 493.5 -188 basechar 0
LayerCount: 2
Fore
SplineSet
691.293945312 363.407226562 m 2,0,-1
 424.428710938 905.32421875 l 1,1,-1
 662.389648438 1006.45996094 l 1,2,-1
 946.827148438 442.673828125 l 2,3,4
 993 351 993 351 1038.52636719 308.565429688 c 0,5,6
 1082.71406097 267.267241015 1082.71406097 267.267241015 1122.12304688 265.799804688 c 2,7,-1
 1152.65039062 264.663085938 l 5,8,-1
 1152.65039062 0.5 l 5,9,-1
 1118.51953125 0.5 l 2,10,11
 965 0 965 0 867.90625 97.787109375 c 1,12,13
 729 -26 729 -26 385.297851562 -19.9873046875 c 0,14,15
 198 -17 198 -17 90.1748046875 20.8505859375 c 1,16,-1
 90.1748046875 307.795898438 l 1,17,18
 232 249 232 249 387.943359375 246.979492188 c 0,19,20
 623 243 623 243 694.889648438 311.638671875 c 0,21,22
 710 326 710 326 691.293945312 363.407226562 c 2,0,-1
EndSplineSet
EndChar
StartChar: uniFEAE
Encoding: 65198 65198 184
Width: 976
VWidth: 2186
GlyphClass: 2
Flags: W
AnchorPoint: "Anchor-10" 537 866 basechar 0
AnchorPoint: "Anchor-7" 465.925 -597.55 basechar 0
LayerCount: 2
Fore
SplineSet
986.599609375 -0.025390625 m 1,0,1
 874.474054798 0.189209605228 874.474054798 0.189209605228 817.296875 20.7587890625 c 1,2,3
 765 -238 765 -238 593.516628814 -370.487145052 c 128,-1,4
 422.033257628 -502.974290104 422.033257628 -502.974290104 142.922851562 -503.802734375 c 2,5,-1
 113.969726562 -503.888671875 l 1,6,-1
 -4.58984375 -289.436523438 l 1,7,-1
 66.6171875 -285.173828125 l 2,8,9
 313 -270 313 -270 440.59765625 -170.202148438 c 0,10,11
 568 -70 568 -70 590.428710938 120.03125 c 0,12,13
 601.077434948 212.673673321 601.077434948 212.673673321 520.811523438 499.584960938 c 2,14,-1
 512.344726562 529.849609375 l 1,15,-1
 736.470703125 691.3203125 l 1,16,-1
 750.639648438 623.540039062 l 2,17,18
 811 334 811 334 816 317 c 4,19,20
 831.299862132 264.98046875 831.299862132 264.98046875 963.83984375 264.98046875 c 2,21,-1
 986.599609375 264.98046875 l 1,22,-1
 986.599609375 -0.025390625 l 1,0,1
EndSplineSet
PairPos2: "'kern' Horizontal Kerning lookup 15-1" uni06CA dx=-80 dy=0 dh=-80 dv=0 dx=0 dy=0 dh=0 dv=0
PairPos2: "'kern' Horizontal Kerning lookup 15-1" uniFB90 dx=-290 dy=0 dh=-290 dv=0 dx=0 dy=0 dh=0 dv=0
PairPos2: "'kern' Horizontal Kerning lookup 15-1" uniFB8E dx=-200 dy=0 dh=-200 dv=0 dx=0 dy=0 dh=0 dv=0
PairPos2: "'kern' Horizontal Kerning lookup 15-1" uni06A9 dx=-200 dy=0 dh=-200 dv=0 dx=0 dy=0 dh=0 dv=0
PairPos2: "'kern' Horizontal Kerning lookup 15-1" uni064A dx=-100 dy=0 dh=-100 dv=0 dx=0 dy=0 dh=0 dv=0
PairPos2: "'kern' Horizontal Kerning lookup 15-1" afii57414 dx=-100 dy=0 dh=-100 dv=0 dx=0 dy=0 dh=0 dv=0
PairPos2: "'kern' Horizontal Kerning lookup 15-1" uniFBE8 dx=-200 dy=0 dh=-200 dv=0 dx=0 dy=0 dh=0 dv=0
PairPos2: "'kern' Horizontal Kerning lookup 15-1" uni0649 dx=-80 dy=0 dh=-80 dv=0 dx=0 dy=0 dh=0 dv=0
PairPos2: "'kern' Horizontal Kerning lookup 15-1" uni0648 dx=-80 dy=0 dh=-80 dv=0 dx=0 dy=0 dh=0 dv=0
PairPos2: "'kern' Horizontal Kerning lookup 15-1" afii57412 dx=-80 dy=0 dh=-80 dv=0 dx=0 dy=0 dh=0 dv=0
PairPos2: "'kern' Horizontal Kerning lookup 15-1" uniFEEB dx=-200 dy=0 dh=-200 dv=0 dx=0 dy=0 dh=0 dv=0
PairPos2: "'kern' Horizontal Kerning lookup 15-1" uni0647 dx=-200 dy=0 dh=-200 dv=0 dx=0 dy=0 dh=0 dv=0
PairPos2: "'kern' Horizontal Kerning lookup 15-1" uniFEE7 dx=-200 dy=0 dh=-200 dv=0 dx=0 dy=0 dh=0 dv=0
PairPos2: "'kern' Horizontal Kerning lookup 15-1" uni0646 dx=-150 dy=0 dh=-150 dv=0 dx=0 dy=0 dh=0 dv=0
PairPos2: "'kern' Horizontal Kerning lookup 15-1" uniFEE3 dx=-200 dy=0 dh=-200 dv=0 dx=0 dy=0 dh=0 dv=0
PairPos2: "'kern' Horizontal Kerning lookup 15-1" uni0645 dx=-200 dy=0 dh=-200 dv=0 dx=0 dy=0 dh=0 dv=0
PairPos2: "'kern' Horizontal Kerning lookup 15-1" uniFEFB dx=-200 dy=0 dh=-200 dv=0 dx=0 dy=0 dh=0 dv=0
PairPos2: "'kern' Horizontal Kerning lookup 15-1" uniFEDF dx=-200 dy=0 dh=-200 dv=0 dx=0 dy=0 dh=0 dv=0
PairPos2: "'kern' Horizontal Kerning lookup 15-1" uni0644 dx=-150 dy=0 dh=-150 dv=0 dx=0 dy=0 dh=0 dv=0
PairPos2: "'kern' Horizontal Kerning lookup 15-1" uniFEDB dx=-290 dy=0 dh=-290 dv=0 dx=0 dy=0 dh=0 dv=0
PairPos2: "'kern' Horizontal Kerning lookup 15-1" uni0643 dx=-200 dy=0 dh=-200 dv=0 dx=0 dy=0 dh=0 dv=0
PairPos2: "'kern' Horizontal Kerning lookup 15-1" uniFED7 dx=-200 dy=0 dh=-200 dv=0 dx=0 dy=0 dh=0 dv=0
PairPos2: "'kern' Horizontal Kerning lookup 15-1" uni0642 dx=-150 dy=0 dh=-150 dv=0 dx=0 dy=0 dh=0 dv=0
PairPos2: "'kern' Horizontal Kerning lookup 15-1" uniFED3 dx=-200 dy=0 dh=-200 dv=0 dx=0 dy=0 dh=0 dv=0
PairPos2: "'kern' Horizontal Kerning lookup 15-1" uni0641 dx=-200 dy=0 dh=-200 dv=0 dx=0 dy=0 dh=0 dv=0
PairPos2: "'kern' Horizontal Kerning lookup 15-1" uniFECF dx=-200 dy=0 dh=-200 dv=0 dx=0 dy=0 dh=0 dv=0
PairPos2: "'kern' Horizontal Kerning lookup 15-1" uniFECB dx=-200 dy=0 dh=-200 dv=0 dx=0 dy=0 dh=0 dv=0
PairPos2: "'kern' Horizontal Kerning lookup 15-1" uniFEC7 dx=-200 dy=0 dh=-200 dv=0 dx=0 dy=0 dh=0 dv=0
PairPos2: "'kern' Horizontal Kerning lookup 15-1" uni0638 dx=-200 dy=0 dh=-200 dv=0 dx=0 dy=0 dh=0 dv=0
PairPos2: "'kern' Horizontal Kerning lookup 15-1" uniFEC3 dx=-200 dy=0 dh=-200 dv=0 dx=0 dy=0 dh=0 dv=0
PairPos2: "'kern' Horizontal Kerning lookup 15-1" uni0637 dx=-200 dy=0 dh=-200 dv=0 dx=0 dy=0 dh=0 dv=0
PairPos2: "'kern' Horizontal Kerning lookup 15-1" uniFEBF dx=-200 dy=0 dh=-200 dv=0 dx=0 dy=0 dh=0 dv=0
PairPos2: "'kern' Horizontal Kerning lookup 15-1" uni0636 dx=-200 dy=0 dh=-200 dv=0 dx=0 dy=0 dh=0 dv=0
PairPos2: "'kern' Horizontal Kerning lookup 15-1" uniFEBB dx=-200 dy=0 dh=-200 dv=0 dx=0 dy=0 dh=0 dv=0
PairPos2: "'kern' Horizontal Kerning lookup 15-1" uni0635 dx=-200 dy=0 dh=-200 dv=0 dx=0 dy=0 dh=0 dv=0
PairPos2: "'kern' Horizontal Kerning lookup 15-1" uniFEB7 dx=-200 dy=0 dh=-200 dv=0 dx=0 dy=0 dh=0 dv=0
PairPos2: "'kern' Horizontal Kerning lookup 15-1" uni0634 dx=-200 dy=0 dh=-200 dv=0 dx=0 dy=0 dh=0 dv=0
PairPos2: "'kern' Horizontal Kerning lookup 15-1" uniFEB3 dx=-200 dy=0 dh=-200 dv=0 dx=0 dy=0 dh=0 dv=0
PairPos2: "'kern' Horizontal Kerning lookup 15-1" uni0633 dx=-200 dy=0 dh=-200 dv=0 dx=0 dy=0 dh=0 dv=0
PairPos2: "'kern' Horizontal Kerning lookup 15-1" uni0632 dx=-80 dy=0 dh=-80 dv=0 dx=0 dy=0 dh=0 dv=0
PairPos2: "'kern' Horizontal Kerning lookup 15-1" uni0631 dx=-80 dy=0 dh=-80 dv=0 dx=0 dy=0 dh=0 dv=0
PairPos2: "'kern' Horizontal Kerning lookup 15-1" uni0630 dx=-200 dy=0 dh=-200 dv=0 dx=0 dy=0 dh=0 dv=0
PairPos2: "'kern' Horizontal Kerning lookup 15-1" uni062F dx=-200 dy=0 dh=-200 dv=0 dx=0 dy=0 dh=0 dv=0
PairPos2: "'kern' Horizontal Kerning lookup 15-1" uniFEA7 dx=-200 dy=0 dh=-200 dv=0 dx=0 dy=0 dh=0 dv=0
PairPos2: "'kern' Horizontal Kerning lookup 15-1" uniFEA3 dx=-200 dy=0 dh=-200 dv=0 dx=0 dy=0 dh=0 dv=0
PairPos2: "'kern' Horizontal Kerning lookup 15-1" uniFE9F dx=-200 dy=0 dh=-200 dv=0 dx=0 dy=0 dh=0 dv=0
PairPos2: "'kern' Horizontal Kerning lookup 15-1" uniFE9B dx=-200 dy=0 dh=-200 dv=0 dx=0 dy=0 dh=0 dv=0
PairPos2: "'kern' Horizontal Kerning lookup 15-1" uni062B dx=-200 dy=0 dh=-200 dv=0 dx=0 dy=0 dh=0 dv=0
PairPos2: "'kern' Horizontal Kerning lookup 15-1" uniFE97 dx=-200 dy=0 dh=-200 dv=0 dx=0 dy=0 dh=0 dv=0
PairPos2: "'kern' Horizontal Kerning lookup 15-1" uni062A dx=-200 dy=0 dh=-200 dv=0 dx=0 dy=0 dh=0 dv=0
PairPos2: "'kern' Horizontal Kerning lookup 15-1" uni0629 dx=-200 dy=0 dh=-200 dv=0 dx=0 dy=0 dh=0 dv=0
PairPos2: "'kern' Horizontal Kerning lookup 15-1" uniFE91 dx=-200 dy=0 dh=-200 dv=0 dx=0 dy=0 dh=0 dv=0
PairPos2: "'kern' Horizontal Kerning lookup 15-1" uni0628 dx=-200 dy=0 dh=-200 dv=0 dx=0 dy=0 dh=0 dv=0
PairPos2: "'kern' Horizontal Kerning lookup 15-1" uni0627 dx=-200 dy=0 dh=-200 dv=0 dx=0 dy=0 dh=0 dv=0
PairPos2: "'kern' Horizontal Kerning lookup 15-1" uni0623 dx=-200 dy=0 dh=-200 dv=0 dx=0 dy=0 dh=0 dv=0
PairPos2: "'kern' Horizontal Kerning lookup 15-1" uni0622 dx=-200 dy=0 dh=-200 dv=0 dx=0 dy=0 dh=0 dv=0
PairPos2: "'kern' Horizontal Kerning lookup 15-1" uni0621 dx=-200 dy=0 dh=-200 dv=0 dx=0 dy=0 dh=0 dv=0
PairPos2: "'kern' Horizontal Kerning lookup 15-1" uniFB94 dx=-290 dy=0 dh=-290 dv=0 dx=0 dy=0 dh=0 dv=0
PairPos2: "'kern' Horizontal Kerning lookup 15-1" uniFB92 dx=-200 dy=0 dh=-200 dv=0 dx=0 dy=0 dh=0 dv=0
PairPos2: "'kern' Horizontal Kerning lookup 15-1" afii57509 dx=-200 dy=0 dh=-200 dv=0 dx=0 dy=0 dh=0 dv=0
PairPos2: "'kern' Horizontal Kerning lookup 15-1" afii57508 dx=-80 dy=0 dh=-80 dv=0 dx=0 dy=0 dh=0 dv=0
PairPos2: "'kern' Horizontal Kerning lookup 15-1" uniFB7C dx=-150 dy=0 dh=-150 dv=0 dx=0 dy=0 dh=0 dv=0
PairPos2: "'kern' Horizontal Kerning lookup 15-1" afii57506 dx=-200 dy=0 dh=-200 dv=0 dx=0 dy=0 dh=0 dv=0
PairPos2: "'kern' Horizontal Kerning lookup 15-1" afii57440 dx=-200 dy=0 dh=-200 dv=0 dx=0 dy=0 dh=0 dv=0
PairPos2: "'kern' Horizontal Kerning lookup 15-1" uniFE8B dx=-200 dy=0 dh=-200 dv=0 dx=0 dy=0 dh=0 dv=0
EndChar
StartChar: uniFEB2
Encoding: 65202 65202 188
Width: 2465
VWidth: 2181
GlyphClass: 2
Flags: W
AnchorPoint: "Anchor-10" 649 929.5 basechar 0
AnchorPoint: "Anchor-7" 484 -653.5 basechar 0
LayerCount: 2
Fore
SplineSet
445.202148438 -171.618164062 m 0,0,1
 533 -235 533 -235 708.4453125 -235.232910156 c 0,2,3
 884 -235 884 -235 975.65234375 -164.821289062 c 0,4,5
 1067 -94 1067 -94 1085.49316406 53.9677734375 c 0,6,7
 1110.00617148 249.049114368 1110.00617148 249.049114368 988.286132812 404.719726562 c 2,8,-1
 963.140625 436.87890625 l 1,9,-1
 1177.90820312 641.353515625 l 1,10,-1
 1203.41894531 581.869140625 l 2,11,12
 1243 490 1243 490 1296.90234375 355.162109375 c 1,13,14
 1348 262 1348 262 1463.80859375 263.986328125 c 0,15,16
 1519 265 1519 265 1547.66308594 295.826171875 c 0,17,18
 1576.64364406 326.621331035 1576.64364406 326.621331035 1585.94335938 402.822265625 c 2,19,-1
 1613.38183594 627.650390625 l 1,20,-1
 1821.328125 627.650390625 l 1,21,-1
 1839.79980469 415.166015625 l 2,22,23
 1848 325 1848 325 1878.26269531 289.921875 c 4,24,25
 1906 258 1906 258 1955.96875 259.966796875 c 0,26,27
 2031 262 2031 262 2042.5234375 425.407226562 c 2,28,-1
 2061.42675781 700.360351562 l 1,29,-1
 2272.75585938 700.360351562 l 1,30,-1
 2294.72949219 439.551757812 l 2,31,32
 2308.96894262 265.379882812 2308.96894262 265.379882812 2455.37792969 265.379882812 c 2,33,-1
 2475.33007812 265.379882812 l 1,34,-1
 2475.33007812 0.5 l 1,35,-1
 2426.91210938 0.5 l 2,36,37
 2259 0 2259 0 2171.85644531 91.078125 c 1,38,39
 2085 -1 2085 -1 1941.33691406 -0.009765625 c 0,40,41
 1798 1 1798 1 1716.96289062 95.115234375 c 1,42,43
 1637 -1 1637 -1 1507.99110196 -0.139572363875 c 0,44,45
 1379 1 1379 1 1314.39453125 24.890625 c 1,46,47
 1288 -226 1288 -226 1132.20507812 -355.603515625 c 0,48,49
 976 -486 976 -486 703.703125 -488.248046875 c 0,50,51
 269 -492 269 -492 131.728515625 -176.487304688 c 0,52,53
 64 -20 64 -20 95.70703125 195.7109375 c 0,54,55
 115.962422172 335.740217497 115.962422172 335.740217497 176.983398438 472.5390625 c 2,56,-1
 193.75390625 510.135742188 l 1,57,-1
 427.6640625 429.836914062 l 1,58,-1
 409.428710938 385.637695312 l 2,59,60
 337 210 337 210 337.125976562 78.2041015625 c 0,61,62
 336 -93 336 -93 445.202148438 -171.618164062 c 0,0,1
EndSplineSet
EndChar
StartChar: uniFEB3
Encoding: 65203 65203 189
Width: 1566
VWidth: 2181
GlyphClass: 2
Flags: W
AnchorPoint: "Anchor-10" 645.5 1001.5 basechar 0
AnchorPoint: "Anchor-7" 665.5 -142 basechar 0
LayerCount: 2
Fore
SplineSet
343.859375 95.7763671875 m 1,0,1
 316 69 316 69 281.643554688 46.0703125 c 0,2,3
 213 0 213 0 67.7001953125 0 c 2,4,-1
 -10.400390625 0 l 5,5,-1
 -10.400390625 264.98046875 l 5,6,-1
 8.8466796875 264.98046875 l 2,7,8
 126 265 126 265 178.994140625 302.875 c 0,9,10
 231.71820449 340.797315732 231.71820449 340.797315732 237.693359375 419.862304688 c 2,11,-1
 252.748046875 619.0703125 l 1,12,-1
 450.689453125 619.0703125 l 1,13,-1
 469.97265625 420.94921875 l 2,14,15
 479 332 479 332 515.203125 294.482421875 c 0,16,17
 552 257 552 257 624.813964844 255.761230469 c 0,18,19
 698 255 698 255 728.745117188 277.201171875 c 0,20,21
 759.717859542 298.803220144 759.717859542 298.803220144 765.610351562 348.755859375 c 2,22,-1
 797.497070312 619.0703125 l 1,23,-1
 990.254882812 619.0703125 l 1,24,-1
 1016.93164062 370.25390625 l 2,25,26
 1027 275 1027 275 1076.84375 257.700195312 c 0,27,28
 1102 249 1102 249 1133.94287109 253.000488281 c 0,29,30
 1247 268 1247 268 1223.59375 465.802734375 c 0,31,32
 1218.75922887 510.915366038 1218.75922887 510.915366038 1186.56640625 687.432617188 c 2,33,-1
 1179.47753906 726.301757812 l 1,34,-1
 1407.07226562 799.237304688 l 1,35,-1
 1421.57421875 757.9296875 l 2,36,37
 1476 604 1476 604 1476.3125 431.671875 c 0,38,39
 1477.0051278 142.861825861 1477.0051278 142.861825861 1309.0703125 45.9091796875 c 0,40,41
 1231 1 1231 1 1138.18164062 0.501953125 c 0,42,43
 1045 -0 1045 -0 989.840820312 24.013671875 c 0,44,45
 935 48 935 48 893.783203125 96.9267578125 c 1,46,47
 805 -2 805 -2 592.999023438 0.0078125 c 0,48,49
 429 2 429 2 343.859375 95.7763671875 c 1,0,1
EndSplineSet
EndChar
StartChar: uniFEB4
Encoding: 65204 65204 220
Width: 1738
VWidth: 2227
GlyphClass: 2
Flags: W
AnchorPoint: "Anchor-10" 720.5 999.5 basechar 0
AnchorPoint: "Anchor-7" 786.5 -244 basechar 0
LayerCount: 2
Fore
SplineSet
1148.83 2.12695 m 0,0,1
 991.77 0.222656 991.77 0.222656 916.418 101.678 c 1,2,3
 812.25 1.74609 812.25 1.74609 626.271 3.21191 c 0,4,5
 467.379 4.46289 467.379 4.46289 364.252 104.599 c 1,6,7
 341.777 85.1143 341.777 85.1143 309.579 63.6982 c 0,8,9
 213.81 -0 213.81 -0 63.207 0 c 2,10,-1
 -71.2744 0 l 1,11,-1
 -71.2744 270.979 l 1,12,-1
 55.4814 270.979 l 1,13,14
 225.09 272.409 225.09 272.409 239.858 382.021 c 2,15,-1
 272.913 627.36 l 1,16,-1
 468.304 627.36 l 1,17,-1
 497.53 419.484 l 2,18,19
 508.787 339.416 508.787 339.416 544.492 304.694 c 128,-1,20
 580.197 269.973 580.197 269.973 649.831 267.652 c 0,21,22
 721.625 265.463 721.625 265.463 754.865 292.573 c 128,-1,23
 788.105 319.683 788.105 319.683 797.321 386.427 c 2,24,-1
 830.592 627.36 l 1,25,-1
 1022.85 627.36 l 1,26,-1
 1056.31 371.416 l 2,27,28
 1064 312.62 1064 312.62 1087.08 290.221 c 128,-1,29
 1110.16 267.822 1110.16 267.822 1158.53 267.607 c 0,30,31
 1202.18 267.413 1202.18 267.413 1223.96 291.869 c 128,-1,32
 1245.75 316.325 1245.75 316.325 1252.19 384.115 c 2,33,-1
 1281.82 696 l 1,34,-1
 1479.27 696 l 1,35,-1
 1510.94 416.871 l 2,36,37
 1527.38 271.88 1527.38 271.88 1702.45 271.88 c 2,38,-1
 1809.64 271.88 l 1,39,-1
 1809.64 0 l 1,40,-1
 1657.66 0 l 2,41,42
 1477.42 0 1477.42 0 1387.37 91.7002 c 1,43,44
 1309.51 3.69531 1309.51 3.69531 1148.83 2.12695 c 0,0,1
EndSplineSet
EndChar
StartChar: uniFEBA
Encoding: 65210 65210 196
Width: 2526
VWidth: 2181
GlyphClass: 2
Flags: W
AnchorPoint: "Anchor-10" 676 1029.5 basechar 0
AnchorPoint: "Anchor-7" 463 -625.5 basechar 0
LayerCount: 2
Fore
SplineSet
1582.60449219 275.337890625 m 5,0,-1
 1657.20996094 275.337890625 l 6,1,2
 2035.04394531 275.329101562 2035.04394531 275.329101562 2091.97949219 369.446289062 c 4,3,4
 2115.28808594 407.811523438 2115.28808594 407.811523438 2115.28808594 437.6015625 c 132,-1,5
 2115.28808594 467.391601562 2115.28808594 467.391601562 2098.54394531 490.329101562 c 4,6,7
 2061.57714844 540.96875 2061.57714844 540.96875 1985.50292969 540.96875 c 4,8,9
 1954.39746094 540.96875 1954.39746094 540.96875 1916.75292969 532.501953125 c 4,10,11
 1787.04394531 503.329101562 1787.04394531 503.329101562 1582.60449219 275.337890625 c 5,0,-1
704.713867188 -488.248046875 m 0,12,13
 266 -491 266 -491 129.716796875 -176.459960938 c 0,14,15
 62 -20 62 -20 93.70703125 195.7109375 c 0,16,17
 113.750978347 335.266195729 113.750978347 335.266195729 174.983398438 472.5390625 c 2,18,-1
 191.75390625 510.135742188 l 1,19,-1
 425.6640625 429.836914062 l 1,20,-1
 407.428710938 385.637695312 l 2,21,22
 335 210 335 210 335.125976562 78.2041015625 c 0,23,24
 334 -93 334 -93 443.6484375 -171.586914062 c 0,25,26
 531 -235 531 -235 707.895019531 -235.232910156 c 0,27,28
 884 -235 884 -235 975.65234375 -164.821289062 c 0,29,30
 1067 -94 1067 -94 1085.49316406 53.9677734375 c 0,31,32
 1110.00617148 249.049114368 1110.00617148 249.049114368 988.286132812 404.719726562 c 2,33,-1
 963.140625 436.87890625 l 1,34,-1
 1178.61230469 642.0234375 l 1,35,-1
 1203.66210938 581.291015625 l 2,36,37
 1240 494 1240 494 1297.78808594 352.958984375 c 0,38,39
 1304 337 1304 337 1317.13964844 330.16015625 c 1,40,41
 1706 855 1706 855 2068.92773438 792.905273438 c 0,42,43
 2143 780 2143 780 2214.46057613 737.650408757 c 0,44,45
 2286 695 2286 695 2326.57519531 618.979492188 c 0,46,47
 2397 487 2397 487 2352.17675781 327.383789062 c 1,48,49
 2413.28373579 264.708984375 2413.28373579 264.708984375 2500.55371094 264.708984375 c 2,50,-1
 2536.84375 264.708984375 l 1,51,-1
 2536.84375 -0.1708984375 l 1,52,-1
 2479.13085938 -0.1708984375 l 2,53,54
 2294 -0 2294 -0 2190.90722656 111.698242188 c 1,55,56
 2029.40467204 -1.71582182855 2029.40467204 -1.71582182855 1672.8515625 -0.6708984375 c 2,57,-1
 1443.92480469 0 l 2,58,59
 1371 0 1371 0 1315.23632812 34.046875 c 1,60,61
 1279 -348 1279 -348 949.361328125 -452.297851562 c 0,62,63
 841 -486 841 -486 704.713867188 -488.248046875 c 0,12,13
EndSplineSet
EndChar
StartChar: uniFEBB
Encoding: 65211 65211 197
Width: 1668
VWidth: 2181
GlyphClass: 2
Flags: W
AnchorPoint: "Anchor-10" 551.3 1117.8 basechar 0
AnchorPoint: "Anchor-7" 670.3 -205 basechar 0
LayerCount: 2
Fore
SplineSet
791.560546875 266.008789062 m 5,0,-1
 866.166015625 266.008789062 l 6,1,2
 1248 266 1248 266 1307.93554688 360.1171875 c 4,3,4
 1325 387 1325 387 1324.74414062 438.272460938 c 0,5,6
 1324 475 1324 475 1306.5 499 c 0,7,8
 1278 542 1278 542 1194.45898438 541.639648438 c 0,9,10
 1163 542 1163 542 1125.70898438 533.172851562 c 0,11,12
 1007 506 1007 506 791.560546875 266.008789062 c 5,0,-1
526.928710938 322.104492188 m 5,13,14
 879 800 879 800 1202 800 c 0,15,16
 1320 800 1320 800 1415.640625 743.185546875 c 0,17,18
 1577 647 1577 647 1576.50563189 441.696390465 c 0,19,20
 1577 236 1577 236 1408.61572266 118.046386719 c 0,21,22
 1239 -1 1239 -1 888.373271173 -0.0102333304913 c 0,23,24
 885 -0 885 -0 881.798828125 0 c 2,25,-1
 665.806640625 0.6708984375 l 2,26,27
 458 1 458 1 346.836914062 126.58203125 c 1,28,29
 228 0 228 0 63.990234375 0 c 2,30,-1
 -10.400390625 0 l 1,31,-1
 -10.400390625 264.983398438 l 1,32,-1
 5.7197265625 264.979492188 l 2,33,34
 218.943512128 264.999994568 218.943512128 264.999994568 225.241210938 435.036132812 c 2,35,-1
 232.352539062 627.040039062 l 1,36,-1
 471.169921875 627.040039062 l 1,37,-1
 479.489257812 414.0625 l 2,38,39
 482 342 482 342 526.928710938 322.104492188 c 5,13,14
EndSplineSet
EndChar
StartChar: uniFEBC
Encoding: 65212 65212 198
Width: 1735
VWidth: 2181
GlyphClass: 2
Flags: W
AnchorPoint: "Anchor-10" 583.5 1182.5 basechar 0
AnchorPoint: "Anchor-7" 669.5 -212 basechar 0
LayerCount: 2
Fore
SplineSet
791.560546875 276.008789062 m 1,0,-1
 866.166015625 276.008789062 l 2,1,2
 1244 276 1244 276 1300.93554688 370.1171875 c 0,3,4
 1324.24428652 408.482681592 1324.24428652 408.482681592 1324.24428652 438.272651398 c 128,-1,5
 1324.24428652 468.062621204 1324.24428652 468.062621204 1307.5 491 c 0,6,7
 1270.53305007 541.639657438 1270.53305007 541.639657438 1194.45938943 541.639657438 c 0,8,9
 1163.35327994 541.639657438 1163.35327994 541.639657438 1125.70873182 533.172970104 c 0,10,11
 996 504 996 504 791.560546875 276.008789062 c 1,0,-1
1688.17675781 0.5 m 2,12,13
 1501.54460738 0.5 1501.54460738 0.5 1399.25292969 112.811523438 c 1,14,15
 1231.87130336 -1.08757491153 1231.87130336 -1.08757491153 881.798828125 0 c 2,16,-1
 665.84765625 0.6708984375 l 2,17,18
 458 1 458 1 346.82421875 126.568359375 c 1,19,20
 228 0 228 0 63.990234375 0 c 2,21,-1
 -10.400390625 0 l 5,22,-1
 -10.400390625 264.98046875 l 5,23,-1
 5.130859375 264.98046875 l 2,24,25
 218.943443823 264.999994835 218.943443823 264.999994835 225.245117188 435.142578125 c 2,26,-1
 232.352539062 627.040039062 l 1,27,-1
 471.169921875 627.040039062 l 1,28,-1
 479.489257812 414.051757812 l 2,29,30
 482 352 482 352 526.927734375 332.102539062 c 1,31,32
 872 800 872 800 1202 800 c 0,33,34
 1320 800 1320 800 1407.24414062 748.175292969 c 0,35,36
 1575 648 1575 648 1576.69921875 444.98046875 c 0,37,38
 1577 384 1577 384 1561.10351562 327.86328125 c 1,39,40
 1620.63804554 265.379882812 1620.63804554 265.379882812 1709.50976562 265.379882812 c 2,41,-1
 1745.79980469 265.379882812 l 1,42,-1
 1745.79980469 0.5 l 1,43,-1
 1688.17675781 0.5 l 2,12,13
EndSplineSet
EndChar
StartChar: uniFEC2
Encoding: 65218 65218 204
Width: 1616
VWidth: 2181
GlyphClass: 2
Flags: W
AnchorPoint: "Anchor-7" 708.13 -177 basechar 0
AnchorPoint: "Anchor-10" 352.67 1527.79 basechar 0
LayerCount: 2
Fore
SplineSet
670.560546875 276.008789062 m 1,0,-1
 745.166015625 276.008789062 l 2,1,2
 1123 276 1123 276 1179.93554688 370.1171875 c 0,3,4
 1203.24414062 408.482421875 1203.24414062 408.482421875 1203.24414062 438.272460938 c 128,-1,5
 1203.24414062 468.0625 1203.24414062 468.0625 1186.5 491 c 0,6,7
 1149.53320312 541.639648438 1149.53320312 541.639648438 1073.45898438 541.639648438 c 0,8,9
 1042.35351562 541.639648438 1042.35351562 541.639648438 1004.70898438 533.172851562 c 0,10,11
 875 504 875 504 670.560546875 276.008789062 c 1,0,-1
473.071289062 418.844726562 m 1,12,13
 783 800 783 800 1081 800 c 0,14,15
 1199 800 1199 800 1286.24462891 748.175292969 c 0,16,17
 1454 648 1454 648 1455.69921875 444.975585938 c 0,18,19
 1456 382 1456 382 1439.91601562 325.595703125 c 1,20,21
 1497.6358635 265.379882812 1497.6358635 265.379882812 1590.50976562 265.379882812 c 2,22,-1
 1626.79980469 265.379882812 l 1,23,-1
 1626.79980469 0.5 l 1,24,-1
 1569.17480469 0.5 l 2,25,26
 1377 0 1377 0 1275.28222656 110.057617188 c 1,27,28
 1110 0 1110 0 760.948242188 0 c 2,29,-1
 91.75 0 l 1,30,-1
 91.75 264.977539062 l 1,31,-1
 257.665039062 264.979492188 l 1,32,-1
 217.189453125 1377.05957031 l 1,33,-1
 473.165039062 1478.56152344 l 1,34,-1
 473.071289062 418.844726562 l 1,12,13
EndSplineSet
EndChar
StartChar: uniFEC3
Encoding: 65219 65219 205
Width: 1434
VWidth: 2181
GlyphClass: 2
Flags: W
AnchorPoint: "Anchor-10" 213.57 1532.47 basechar 0
AnchorPoint: "Anchor-7" 543.57 -190 basechar 0
LayerCount: 2
Fore
SplineSet
557.48828125 276.008789062 m 1,0,-1
 632.09375 276.008789062 l 2,1,2
 1009.92773438 276 1009.92773438 276 1066.86328125 370.1171875 c 0,3,4
 1090.171875 408.482421875 1090.171875 408.482421875 1090.171875 438.272460938 c 128,-1,5
 1090.171875 468.0625 1090.171875 468.0625 1073.42773438 491 c 0,6,7
 1036.4609375 541.639648438 1036.4609375 541.639648438 960.38671875 541.639648438 c 0,8,9
 929.28125 541.639648438 929.28125 541.639648438 891.63671875 533.172851562 c 0,10,11
 761.927734375 504 761.927734375 504 557.48828125 276.008789062 c 1,0,-1
360.071289062 418.844726562 m 1,12,13
 670 800 670 800 968 800 c 0,14,15
 1132 800 1132 800 1238.86816406 700.430664062 c 0,16,17
 1341 605 1341 605 1341.96875 442.272460938 c 0,18,19
 1343 238 1343 238 1175.18871249 119.088966173 c 0,20,21
 1007 0 1007 0 647.948242188 0 c 2,22,-1
 -10.25 0 l 1,23,-1
 -10.25 264.978515625 l 1,24,-1
 144.666015625 264.98046875 l 1,25,-1
 104.189453125 1377.05957031 l 1,26,-1
 360.165039062 1478.56152344 l 1,27,-1
 360.071289062 418.844726562 l 1,12,13
EndSplineSet
EndChar
StartChar: uniFEC4
Encoding: 65220 65220 216
Width: 1516
VWidth: 2232
GlyphClass: 2
Flags: W
AnchorPoint: "Anchor-10" 222.27 1517.79 basechar 0
AnchorPoint: "Anchor-7" 632.73 -251 basechar 0
LayerCount: 2
Fore
SplineSet
536.194335938 282.0078125 m 1,0,-1
 605.916992188 282.0078125 l 2,1,2
 895.45703125 282.0078125 895.45703125 282.0078125 996.252929688 321.48828125 c 0,3,4
 1082.70019531 355.344726562 1082.70019531 355.344726562 1096.70996094 414.067382812 c 1,5,6
 1102.30957031 462.713867188 1102.30957031 462.713867188 1082.40039062 489.8203125 c 0,7,8
 1058.03027344 523.637695312 1058.03027344 523.637695312 1003.00488281 531.623046875 c 0,9,10
 889.619140625 547.970703125 889.619140625 547.970703125 769.078125 473.025390625 c 1,11,12
 639.149414062 393.696289062 639.149414062 393.696289062 536.194335938 282.0078125 c 1,0,-1
336.959960938 432.99609375 m 1,13,14
 527 666 527 666 736.102539062 756.262695312 c 0,15,16
 997 869 997 869 1198.96972656 748.73828125 c 0,17,18
 1294 692 1294 692 1333.8203125 595.282226562 c 0,19,20
 1371 503 1371 503 1356.34960938 373.216796875 c 0,21,22
 1354 353 1354 353 1348.29003906 331.981445312 c 1,23,24
 1406.63426736 271.379882812 1406.63426736 271.379882812 1493.50976562 271.379882812 c 2,25,-1
 1537.79980469 271.379882812 l 1,26,-1
 1537.79980469 0.5 l 1,27,-1
 1472.11035156 0.5 l 2,28,29
 1262 0 1262 0 1173.25976562 106.456054688 c 1,30,31
 1005 0 1005 0 663.700195312 0 c 2,32,-1
 -20.400390625 0 l 5,33,-1
 -20.400390625 270.98046875 l 5,34,-1
 115.229492188 270.98046875 l 1,35,-1
 70.8974609375 1352.65039062 l 1,36,-1
 266.49609375 1438.58007812 l 2,37,38
 279 1444 279 1444 302.528320312 1454.40039062 c 0,39,40
 327 1465 327 1465 338.084960938 1470.03027344 c 1,41,-1
 336.959960938 432.99609375 l 1,13,14
EndSplineSet
EndChar
StartChar: uniFECA
Encoding: 65226 65226 212
Width: 1280
VWidth: 2181
GlyphClass: 2
Flags: W
AnchorPoint: "Anchor-10" 537 1181.05 basechar 0
AnchorPoint: "Anchor-7" 401.69 -717.64 basechar 0
LayerCount: 2
Fore
SplineSet
1147.18261719 -552.93359375 m 2,0,1
 955.784657172 -612.000026522 955.784657172 -612.000026522 765.698242188 -612.0234375 c 0,2,3
 360 -612 360 -612 199.818359375 -423.08203125 c 0,4,5
 91 -294 91 -294 91 -100.4140625 c 0,6,7
 91 94 91 94 206.672851562 239.788085938 c 0,8,9
 292 348 292 348 410.54296875 425.153320312 c 1,10,11
 138 568 138 568 148.962890625 731.661132812 c 0,12,13
 157 856 157 856 323.51171875 932.392578125 c 0,14,15
 492 1010 492 1010 789.4453125 979.0234375 c 0,16,17
 991 958 991 958 1057.86035156 828.154296875 c 0,18,19
 1163 624 1163 624 828.23046875 419.283203125 c 1,20,21
 1015.53766569 265.379882812 1015.53766569 265.379882812 1236.5 265.379882812 c 6,22,-1
 1290.70019531 265.379882812 l 5,23,-1
 1290.70019531 0.5 l 5,24,-1
 1264.65917969 0.5 l 6,25,26
 897 0 897 0 614.321289062 283.078125 c 1,27,28
 347 134 347 134 347.080078125 -87.1708984375 c 0,29,30
 347 -211 347 -211 440.016601562 -286.33203125 c 0,31,32
 533 -362 533 -362 784.88671875 -362.520507812 c 0,33,34
 929.67311259 -362.998919879 929.67311259 -362.998919879 1068.41308594 -323.1015625 c 2,35,-1
 1108.57324219 -311.552734375 l 1,36,-1
 1192.59863281 -538.91796875 l 1,37,-1
 1147.18261719 -552.93359375 l 2,0,1
402.24609375 704.483398438 m 1,38,39
 456.991210938 644.936523438 456.991210938 644.936523438 633.973632812 559.493164062 c 1,40,41
 798.680664062 637.015625 798.680664062 637.015625 840.435546875 700.860351562 c 1,42,43
 835.412109375 718.790039062 835.412109375 718.790039062 770.547851562 730.897460938 c 128,-1,44
 705.682617188 743.004882812 705.682617188 743.004882812 655.501953125 743.001953125 c 128,-1,45
 605.3203125 742.999023438 605.3203125 742.999023438 579.111328125 741.543945312 c 128,-1,46
 552.90234375 740.08984375 552.90234375 740.08984375 529.642578125 737.295898438 c 128,-1,47
 506.383789062 734.501953125 506.383789062 734.501953125 485.392578125 730.376953125 c 0,48,49
 431.57421875 719.80078125 431.57421875 719.80078125 402.24609375 704.483398438 c 1,38,39
EndSplineSet
EndChar
StartChar: uniFECB
Encoding: 65227 65227 213
Width: 1068
VWidth: 2181
GlyphClass: 2
Flags: W
AnchorPoint: "Anchor-10" 376.265 1264.23 basechar 0
AnchorPoint: "Anchor-7" 501.6 -197.5 basechar 0
LayerCount: 2
Fore
SplineSet
943.224609375 105.399414062 m 2,0,1
 533.900819151 -0.0263745030817 533.900819151 -0.0263745030817 327.354492188 -0.015625 c 2,2,-1
 -10.400390625 0.001953125 l 1,3,-1
 -10.400390625 264.98046875 l 1,4,-1
 41.3251953125 264.98046875 l 2,5,6
 110 265 110 265 151.032226562 264.98828125 c 1,7,8
 82 369 82 369 82.2314453125 488.06640625 c 0,9,10
 82 657 82 657 181.780273438 775.62890625 c 0,11,12
 302 918 302 918 519.454064201 919.725232987 c 0,13,14
 736.939966642 920.999648219 736.939966642 920.999648219 892.418945312 775.078125 c 2,15,-1
 916.264648438 752.698242188 l 1,16,-1
 823.185546875 554.885742188 l 1,17,-1
 780.143554688 581.994140625 l 2,18,19
 653 662 653 662 536.395507812 661.96484375 c 0,20,21
 399 662 399 662 346 578 c 0,22,23
 323 542 323 542 322.65625 476.947265625 c 0,24,25
 322 380 322 380 447.727539062 289.40234375 c 5,26,27
 473.298427357 278.304485083 473.298427357 278.304485083 626.586914062 303.641601562 c 6,28,-1
 977 361.561523438 l 1,29,-1
 977 114.098632812 l 1,30,-1
 943.224609375 105.399414062 l 2,0,1
EndSplineSet
EndChar
StartChar: uniFECC
Encoding: 65228 65228 214
Width: 1018
VWidth: 2181
GlyphClass: 2
Flags: W
AnchorPoint: "Anchor-10" 460.58 1116.5 basechar 0
AnchorPoint: "Anchor-7" 496.58 -152.5 basechar 0
LayerCount: 2
Fore
SplineSet
283.540039062 590.42578125 m 1,0,1
 327.393942566 534.251962397 327.393942566 534.251962397 521.698242188 440.094726562 c 1,2,3
 592.357421875 473.23046875 592.357421875 473.23046875 655.666015625 518.165527344 c 128,-1,4
 718.974609375 563.100585938 718.974609375 563.100585938 728.08203125 579.942382812 c 1,5,6
 722.651616856 607.511377194 722.651616856 607.511377194 595.791015625 619.676757812 c 0,7,8
 465.410122827 632.176299682 465.410122827 632.176299682 381.832991101 617.319595153 c 128,-1,9
 298.255859375 602.462890625 298.255859375 602.462890625 283.540039062 590.42578125 c 1,0,1
732.205078125 309.971679688 m 1,10,11
 834 266 834 266 964.149414062 264.982421875 c 6,12,-1
 1028.55957031 265.65234375 l 1,13,-1
 1028.55957031 0.5 l 1,14,-1
 934.715820312 0.5 l 2,15,16
 686 0 686 0 517.388671875 147.322265625 c 1,17,18
 341 0 341 0 92.8603515625 0 c 2,19,-1
 -10.400390625 0 l 1,20,-1
 -10.400390625 264.98046875 l 1,21,-1
 69.31640625 264.98046875 l 2,22,23
 212 265 212 265 302.549804688 304.306640625 c 1,24,25
 6.50604388107 455.232206333 6.50604388107 455.232206333 47.0927734375 647.181640625 c 0,26,27
 82.6990325196 815.57661511 82.6990325196 815.57661511 342.493164062 857.409179688 c 0,28,29
 489 881 489 881 682.35058892 859.994758826 c 0,30,31
 876 839 876 839 944.963867188 709.47265625 c 0,32,33
 970 662 970 662 969.725585938 611.94140625 c 0,34,35
 970 459 970 459 732.205078125 309.971679688 c 1,10,11
EndSplineSet
EndChar
StartChar: uniFEDA
Encoding: 65242 65242 258
Width: 1840
VWidth: 2232
GlyphClass: 2
Flags: W
AnchorPoint: "Anchor-10" 539 1418.5 basechar 0
AnchorPoint: "Anchor-7" 406 -226.5 basechar 0
LayerCount: 2
Fore
SplineSet
751.117 0 m 0,0,1
 513.317 0.457031 513.317 0.457031 410.082 33.8535 c 0,2,3
 246.687 86.7119 246.687 86.7119 154.031 204.525 c 128,-1,4
 61.376 322.339 61.376 322.339 45.5908 496.555 c 0,5,6
 34.5696 614.422 34.5696 614.422 78.751 767.869 c 2,7,-1
 92.5498 815.794 l 1,8,-1
 315.14 757.062 l 1,9,-1
 306.643 710.618 l 2,10,11
 281.791 574.779 281.791 574.779 284.478 528.762 c 0,12,13
 288.668 425.686 288.668 425.686 355.711 366.023 c 128,-1,14
 422.754 306.361 422.754 306.361 569.196 284.836 c 0,15,16
 662.684 271.094 662.684 271.094 812.524 269.478 c 0,17,18
 1012.83 267.417 1012.83 267.417 1126.4 278.238 c 0,19,20
 1450.83 307.863 1450.83 307.863 1462.7 446.446 c 2,21,-1
 1466.33 488.844 l 1,22,-1
 1424.98 1393.03 l 1,23,-1
 1685.3 1520.81 l 5,24,-1
 1685.3 457.814 l 2,25,26
 1685.3 437.29 1685.3 437.29 1682.52 399.731 c 0,27,28
 1679.33 356.633 1679.33 356.633 1666.31 311.412 c 1,29,30
 1709.36 271.38 1709.36 271.38 1795.97 271.38 c 2,31,-1
 1911.22 271.38 l 1,32,-1
 1911.22 0.5 l 1,33,-1
 1737.12 0.5 l 2,34,35
 1626.9 0.5 1626.9 0.5 1496.26 99.7061 c 1,36,37
 1404.69 52.0029 1404.69 52.0029 1270.74 29.1875 c 0,38,39
 1085.51 -1.46777 1085.51 -1.46777 751.117 0 c 0,0,1
1096.77 1286.4 m 1,40,-1
 1096.77 1132.74 l 1,41,-1
 1049.51 1129.26 l 2,42,43
 987.002 1124.66 987.002 1124.66 955.382 1113 c 0,44,45
 935.38 1105.5 935.38 1105.5 919.909 1096.74 c 128,-1,46
 904.438 1087.98 904.438 1087.98 898.602 1083.03 c 128,-1,47
 892.764 1078.07 892.764 1078.07 891.334 1075.59 c 1,48,49
 891.605 1058.7 891.605 1058.7 898.26 1049.07 c 1,50,51
 914.426 1039.41 914.426 1039.41 963.711 1032.16 c 0,52,53
 1028.56 1022.62 1028.56 1022.62 1065.01 989.321 c 0,54,55
 1106.05 951.844 1106.05 951.844 1106.05 889.298 c 0,56,57
 1106.05 828.158 1106.05 828.158 1076.02 778.82 c 128,-1,58
 1045.98 729.482 1045.98 729.482 990.944 698.358 c 0,59,60
 910.612 652.928 910.612 652.928 802.926 651.929 c 0,61,62
 738.524 651.929 738.524 651.929 681.746 661.412 c 2,63,-1
 639.148 668.526 l 1,64,-1
 639.148 828.331 l 1,65,-1
 696.812 820.729 l 2,66,67
 754.256 813.158 754.256 813.158 793.059 813.158 c 0,68,69
 858.19 813.158 858.19 813.158 897.611 828.678 c 0,70,71
 949.45 848.587 949.45 848.587 949.45 867.898 c 1,72,73
 950.605 884.885 950.605 884.885 894.576 894.014 c 0,74,75
 821.173 905.199 821.173 905.199 778.499 948.845 c 0,76,77
 732.684 995.704 732.684 995.704 734.387 1074.08 c 0,78,79
 735.652 1125.26 735.652 1125.26 762.045 1165.93 c 128,-1,80
 788.438 1206.59 788.438 1206.59 834.85 1230.11 c 0,81,82
 924.539 1275.48 924.539 1275.48 1042.54 1282.96 c 2,83,-1
 1096.77 1286.4 l 1,40,-1
EndSplineSet
EndChar
StartChar: uniFEDB
Encoding: 65243 65243 229
Width: 947
VWidth: 2181
GlyphClass: 2
Flags: W
AnchorPoint: "Anchor-10" 209.5 1428 basechar 0
AnchorPoint: "Anchor-7" 308 -182 basechar 0
LayerCount: 2
Fore
SplineSet
665.607421875 304.521484375 m 0,0,1
 592 0 592 0 160.875 0 c 2,2,-1
 -10.400390625 0 l 1,3,-1
 -10.400390625 264.951171875 l 1,4,-1
 240.876953125 265.129882812 l 2,5,6
 418 265 418 265 437.848632812 364.590820312 c 0,7,8
 449.085654725 419.417922149 449.085654725 419.417922149 388.208984375 487.004882812 c 2,9,-1
 127.225585938 776.755859375 l 2,10,11
 26 889 26 889 22.6909179688 967.778808594 c 0,12,13
 16.9937286759 1118.16554197 16.9937286759 1118.16554197 161.575195312 1196.20898438 c 2,14,-1
 907.25 1598.71582031 l 5,15,-1
 907.25 1322.86132812 l 5,16,-1
 276.475585938 980.93359375 l 1,17,-1
 566.623046875 660.170898438 l 2,18,19
 713 499 713 499 665.607421875 304.521484375 c 0,0,1
EndSplineSet
EndChar
StartChar: uniFEDC
Encoding: 65244 65244 240
Width: 1023
VWidth: 2232
GlyphClass: 2
Flags: W
AnchorPoint: "Anchor-10" 210.5 1430 basechar 0
AnchorPoint: "Anchor-7" 337 -257 basechar 0
LayerCount: 2
Fore
SplineSet
634.22 203.203 m 1,0,1
 539.584 0 539.584 0 157.875 0 c 2,2,-1
 -71.4004 0 l 5,3,-1
 -71.4004 270.951 l 5,4,-1
 237.846 271.13 l 2,5,6
 333.988 271.186 333.988 271.186 378.109 296.159 c 128,-1,7
 422.23 321.134 422.23 321.134 431.921 368.248 c 0,8,9
 442.873 421.504 442.873 421.504 382.98 487.998 c 2,10,-1
 122.023 777.717 l 2,11,12
 19.9541 891.039 19.9541 891.039 16.417 977.933 c 0,13,14
 15.3896 1003.25 15.3896 1003.25 19.3232 1026.95 c 0,15,16
 37.6436 1137.34 37.6436 1137.34 157.149 1201.85 c 2,17,-1
 907.25 1606.74 l 1,18,-1
 907.25 1324.08 l 1,19,-1
 278.142 983.051 l 1,20,-1
 850.433 347.775 l 2,21,22
 919.549 271.052 919.549 271.052 1009.58 271.291 c 2,23,-1
 1094.15 271.516 l 1,24,-1
 1094.15 0.5 l 1,25,-1
 979.41 0.5 l 2,26,27
 812.257 0.5 812.257 0.5 634.22 203.203 c 1,0,1
EndSplineSet
EndChar
StartChar: uniFEDE
Encoding: 65246 65246 232
Width: 1461
VWidth: 2181
GlyphClass: 2
Flags: W
AnchorPoint: "Anchor-10" 533.5 973.5 basechar 0
AnchorPoint: "Anchor-7" 483.974 -681.619 basechar 0
LayerCount: 2
Fore
SplineSet
1225.03125 42.56640625 m 5,0,1
 1129 -397 1129 -397 683.4140625 -399.99609375 c 4,2,3
 380 -402 380 -402 209.383789062 -223.002929688 c 4,4,5
 83 -90 83 -90 90.484375 127.51171875 c 132,-1,6
 98.00390625 345.106445312 98.00390625 345.106445312 183.6796875 548.336914062 c 6,7,-1
 199.424804688 585.685546875 l 5,8,-1
 433.952148438 514.533203125 l 5,9,-1
 414.4375 468.452148438 l 6,10,11
 334 279 334 279 333.500976562 139.786132812 c 4,12,13
 333 -1 333 -1 405.918945312 -65.38671875 c 4,14,15
 506 -155 506 -155 702.78515625 -152.956054688 c 4,16,17
 848 -151 848 -151 931.734375 -64.6318359375 c 4,18,19
 1033.0078125 39.0078125 1033.0078125 39.0078125 1031.54101562 254.4921875 c 6,20,-1
 1029.91503906 493.380859375 l 5,21,-1
 997.862304688 1418.66601562 l 5,22,-1
 1251.75976562 1523.86230469 l 5,23,-1
 1252.28027344 446.28515625 l 6,24,25
 1252 348 1252 348 1290.32617188 306.689453125 c 132,-1,26
 1328.64746094 265.379882812 1328.64746094 265.379882812 1417.71972656 265.379882812 c 6,27,-1
 1470.96972656 265.379882812 l 5,28,-1
 1470.96972656 0.5 l 5,29,-1
 1430.95117188 0.5 l 6,30,31
 1332 1 1332 1 1225.03125 42.56640625 c 5,0,1
EndSplineSet
EndChar
StartChar: uniFEDF
Encoding: 65247 65247 243
Width: 575
VWidth: 2232
GlyphClass: 2
Flags: W
AnchorPoint: "Anchor-10" 303.73 1547 basechar 0
AnchorPoint: "Anchor-7" 263.73 -278.5 basechar 0
LayerCount: 2
Fore
SplineSet
444.17 487.69 m 2,0,1
 444.17 230.175624165 444.17 230.175624165 319.738 101.627 c 0,2,3
 221 0 221 0 61.7002 0 c 2,4,-1
 -20.400390625 0 l 5,5,-1
 -20.400390625 270.98046875 l 5,6,-1
 12.8506 270.98 l 2,7,8
 127 271 127 271 176.137 331.759 c 0,9,10
 227.100921348 395.125481528 227.100921348 395.125481528 222.339 498.309 c 2,11,-1
 182.823 1354.56 l 1,12,-1
 444.17 1470.43 l 1,13,-1
 444.17 487.69 l 2,0,1
EndSplineSet
EndChar
StartChar: uniFEE0
Encoding: 65248 65248 264
Width: 618
VWidth: 2232
GlyphClass: 2
Flags: W
AnchorPoint: "Anchor-10" 307.73 1517 basechar 0
AnchorPoint: "Anchor-7" 240.73 -238.5 basechar 0
LayerCount: 2
Fore
SplineSet
287.285 86.7402 m 1,0,1
 195.391 0 195.391 0 80.7002 0 c 2,2,-1
 -71.4014 0 l 1,3,-1
 -71.4014 270.98 l 1,4,-1
 21.8486 270.98 l 2,5,6
 108.234 270.98 108.234 270.98 152.431 310.598 c 0,7,8
 200.554 353.796 200.554 353.796 196.329 449.321 c 2,9,-1
 155.983 1361.47 l 5,10,-1
 416.17 1474.56 l 1,11,-1
 416.17 451.31 l 2,12,13
 416.17 353.545 416.17 353.545 460.933 308.796 c 0,14,15
 498.75 270.98 498.75 270.98 594.61 270.98 c 2,16,-1
 686.86 270.98 l 1,17,-1
 686.86 0.000976562 l 1,18,-1
 535.759 0.000976562 l 2,19,20
 385.073 0.000976562 385.073 0.000976562 287.285 86.7402 c 1,0,1
EndSplineSet
EndChar
StartChar: uniFEE2
Encoding: 65250 65250 246
Width: 1128
VWidth: 2334
GlyphClass: 2
Flags: W
AnchorPoint: "Anchor-10" 555.5 1144 basechar 0
AnchorPoint: "Anchor-7" 202.188 -713.422 basechar 0
LayerCount: 2
Fore
SplineSet
512.943 414.743 m 1,0,1
 524.4 259.259 524.4 259.259 611.6 195.985 c 1,2,3
 662.517 160.283 662.517 160.283 721.785 178.566 c 0,4,5
 734.672 182.541 734.672 182.541 743.889 200.063 c 128,-1,6
 753.105 217.586 753.105 217.586 758.295 263.95 c 128,-1,7
 763.483 310.314 763.483 310.314 749.415 388.527 c 0,8,9
 742.812 429.966 742.812 429.966 726.781 444.871 c 128,-1,10
 710.75 459.776 710.75 459.776 675.208 460.5 c 0,11,12
 573.906 462.525 573.906 462.525 512.943 414.743 c 1,0,1
999.515 312.505 m 1,13,14
 1033.8663325 271.160877764 1033.8663325 271.160877764 1108.68 270.713 c 2,15,-1
 1148.99023438 270.471679688 l 1,16,-1
 1148.99023438 0.7099609375 l 1,17,-1
 1094.5 0.709961 l 2,18,19
 991 1 991 1 925.506 39.6641 c 1,20,21
 877 -52 877 -52 767.313 -69.3408 c 0,22,23
 642 -89 642 -89 539.598 -47.8682 c 0,24,25
 439 -7 439 -7 376.72 77.415 c 0,26,27
 315 162 315 162 293.676 284.287 c 1,28,29
 288 273 288 273 282.585 260.612 c 0,30,31
 259.934397616 204.838464478 259.934397616 204.838464478 268.348 73.3516 c 2,32,-1
 307.507 -538.621 l 1,33,-1
 47.9141 -668.561 l 1,34,-1
 47.9141 129.511 l 2,35,36
 48 420 48 420 244.065 561.338 c 0,37,38
 399.08409908 673.612386464 399.08409908 673.612386464 590.226 697.669 c 0,39,40
 744 717 744 717 835.823 663.604 c 1,41,42
 940 604 940 604 974.121 469.903 c 0,43,44
 989 412 989 412 999.515 312.505 c 1,13,14
EndSplineSet
EndChar
StartChar: uniFEE3
Encoding: 65251 65251 247
Width: 979
VWidth: 2334
GlyphClass: 2
Flags: W
AnchorPoint: "Anchor-10" 376.69 1176.5 basechar 0
AnchorPoint: "Anchor-7" 382.69 -266.5 basechar 0
LayerCount: 2
Fore
SplineSet
864.522 137.013 m 0,0,1
 816.39 -47.2441 816.39 -47.2441 543.94 -23.8506 c 0,2,3
 381.432 -10.5898 381.432 -10.5898 253.506 77.0605 c 1,4,5
 178.938 0 178.938 0 35.9805 0 c 2,6,-1
 -71.4014 0 l 1,7,-1
 -71.4014 270.979 l 1,8,-1
 50.96 270.979 l 2,9,10
 75.6826 270.979 75.6826 270.979 89.6357 275.204 c 132,-1,11
 103.59 279.43 103.59 279.43 106.554 283.443 c 132,-1,12
 109.517 287.456 109.517 287.456 111.246 294.312 c 0,13,14
 140.031 408.424 140.031 408.424 162.596 477.592 c 0,15,16
 202.58 598.349 202.58 598.349 273.751 673.095 c 128,-1,17
 344.923 747.841 344.923 747.841 445.769 768.997 c 0,18,19
 573.161 795.55 573.161 795.55 669.778 730.586 c 128,-1,20
 766.396 665.623 766.396 665.623 822.825 523.282 c 0,21,22
 909.152 305.982 909.152 305.982 864.522 137.013 c 0,0,1
465.012 246.177 m 0,23,24
 533.047 220.356 533.047 220.356 576.18 227.444 c 0,25,26
 641.736 237.328 641.736 237.328 628.979 321.692 c 0,27,28
 623.294 361.986 623.294 361.986 588.823 433.326 c 0,29,30
 555.248 504.222 555.248 504.222 511.021 509.264 c 0,31,32
 468.636 514.336 468.636 514.336 421.81 450.172 c 0,33,34
 395.264 414.16 395.264 414.16 363.904 298.862 c 1,35,36
 404.625 270.211 404.625 270.211 465.012 246.177 c 0,23,24
EndSplineSet
EndChar
StartChar: uniFEE4
Encoding: 65252 65252 248
Width: 1007
VWidth: 2232
GlyphClass: 2
Flags: W
AnchorPoint: "Anchor-10" 500.79 1047.5 basechar 0
AnchorPoint: "Anchor-7" 465.79 -239.5 basechar 0
LayerCount: 2
Fore
SplineSet
493.228 220.65 m 0,0,1
 572.752 196.255 572.752 196.255 605.405 215.565 c 0,2,3
 668.367 254.667 668.367 254.667 586.706 411.258 c 0,4,5
 541.153 497.719 541.153 497.719 487.901 493.221 c 0,6,7
 398.072 485.634 398.072 485.634 368.902 288.397 c 1,8,9
 433.793 239.573 433.793 239.573 493.228 220.65 c 0,0,1
583.958 -49.7616 m 0,10,11
 380 -50 380 -50 248.018 68.9984 c 1,12,13
 149 0 149 0 17.5996 0 c 2,14,-1
 -22.400390625 0 l 1,15,-1
 -22.400390625 270.978515625 l 1,16,-1
 24.0195 270.979 l 2,17,18
 125 271 125 271 144.934 384.729 c 0,19,20
 174 548 174 548 241.84 627.702 c 0,21,22
 353 759 353 759 510.596 745.098 c 0,23,24
 736 725 736 725 851.595 419.286 c 0,25,26
 882 339 882 339 920.531 305.154 c 0,27,28
 958.898230454 271.090354235 958.898230454 271.090354235 1006.28 271.09 c 2,29,-1
 1027.1796875 271.08984375 l 1,30,-1
 1027.1796875 0.2099609375 l 1,31,-1
 996.4296875 0.2099609375 l 6,32,33
 865 0 865 0 796.821 63.8771 c 1,34,35
 766 7 766 7 710.974 -21.203 c 0,36,37
 656 -50 656 -50 583.958 -49.7616 c 0,10,11
EndSplineSet
EndChar
StartChar: uniFEEA
Encoding: 65258 65258 274
Width: 1132
VWidth: 2232
GlyphClass: 2
Flags: W
AnchorPoint: "Anchor-10" 449.95 1384.81 basechar 0
AnchorPoint: "Anchor-7" 442.88 -155 basechar 0
LayerCount: 2
Fore
SplineSet
668.892 476.341 m 5,0,1
 659.005 574.86 659.005 574.86 647.794 653.722 c 5,2,3
 546.863 643.343 546.863 643.343 473.782 625.986 c 132,-1,4
 400.7 608.631 400.7 608.631 363.854 588.434 c 132,-1,5
 327.009 568.236 327.009 568.236 311.123 549.346 c 132,-1,6
 295.238 530.454 295.238 530.454 296.448 511.806 c 4,7,8
 297.824 491.418 297.824 491.418 304.994 483.335 c 132,-1,9
 312.163 475.252 312.163 475.252 334.083 470.2 c 4,10,11
 459.458 443.734 459.458 443.734 668.892 476.341 c 5,0,1
701.647 235.03 m 5,12,13
 538.41 214.26 538.41 214.26 412.16 219.159 c 132,-1,14
 285.909 224.06 285.909 224.06 196.254 266.088 c 132,-1,15
 106.599 308.117 106.599 308.117 64.6074 387.724 c 4,16,17
 43.8428 427.09 43.8428 427.09 40.6797 482.306 c 4,18,19
 35.9629 572.07 35.9629 572.07 73.7725 642.873 c 132,-1,20
 111.581 713.677 111.581 713.677 188.057 762.812 c 132,-1,21
 264.532 811.946 264.532 811.946 371.293 842.963 c 132,-1,22
 478.053 873.979 478.053 873.979 616.997 888.397 c 5,23,24
 613.625 917.561 613.625 917.561 607.605 959.846 c 6,25,-1
 601.096 1005.58 l 5,26,-1
 845.679 1065.47 l 5,27,-1
 851.779 1007.36 l 6,28,29
 864.676 884.549 864.676 884.549 910.958 483.552 c 4,30,31
 918.202 420.185 918.202 420.185 932.041 373.957 c 4,32,33
 962.83 271.101 962.83 271.101 1121.33 271 c 6,34,-1
 1198.26 270.951 l 5,35,-1
 1198.26 0 l 5,36,-1
 1100.34 0 l 6,37,38
 942.831 0 942.831 0 839.539 58.832 c 132,-1,39
 736.247 117.665 736.247 117.665 701.647 235.03 c 5,12,13
EndSplineSet
EndChar
StartChar: uniFEEB
Encoding: 65259 65259 245
Width: 1196
VWidth: 2181
GlyphClass: 2
Flags: W
AnchorPoint: "Anchor-10" 558.801 1261.23 basechar 0
AnchorPoint: "Anchor-7" 382.542 -182.946 basechar 0
LayerCount: 2
Fore
SplineSet
758.236328125 449.299804688 m 1,0,1
 748 339 748 339 613 232 c 5,2,3
 784 164 784 164 848 218 c 0,4,5
 868 235 868 235 875.412597656 265.764648438 c 0,6,7
 889 328 889 328 758.236328125 449.299804688 c 1,0,1
383.953125 66.9501953125 m 1,8,9
 224 0 224 0 8.6298828125 0 c 2,10,-1
 -10.400390625 0 l 1,11,-1
 -10.400390625 264.98046875 l 1,12,-1
 49.7197265625 264.98046875 l 2,13,14
 52 265 52 265 82.44921875 265.247070312 c 1,15,16
 54 332 54 332 58.4711914062 430.075195312 c 128,-1,17
 63 528 63 528 127.827148438 629.834960938 c 0,18,19
 193 732 193 732 297.508789062 780.260742188 c 1,20,-1
 387.813476562 988.209960938 l 1,21,-1
 767.409179688 747.142578125 l 1,22,23
 1083.12297572 538.257006099 1083.12297572 538.257006099 1103.77929688 346.961914062 c 0,24,25
 1121 186 1121 186 1046.27734375 89.4775390625 c 0,26,27
 971 -7 971 -7 814.71484375 -24.1572265625 c 0,28,29
 634 -43 634 -43 383.953125 66.9501953125 c 1,8,9
542.896484375 568.556640625 m 0,30,31
 454 646 454 646 346 533 c 0,32,33
 300 485 300 485 294.267578125 427.092285156 c 0,34,35
 290 376 290 376 306.778320312 345.791992188 c 0,36,37
 324 315 324 315 372.57421875 295.36328125 c 1,38,39
 512 365 512 365 549.791992188 450.328125 c 0,40,41
 586 531 586 531 542.896484375 568.556640625 c 0,30,31
EndSplineSet
EndChar
StartChar: uniFEEC
Encoding: 65260 65260 256
Width: 985
VWidth: 2232
GlyphClass: 2
Flags: W
AnchorPoint: "Anchor-7" 268.88 -698.244 basechar 0
AnchorPoint: "Anchor-10" 381.76 1170.74 basechar 0
LayerCount: 2
Fore
SplineSet
434 335 m 0,0,1
 478 402 478 402 477.688 511.976 c 0,2,3
 478 620 478 620 430.8671875 620 c 0,4,5
 379 620 379 620 360 485 c 0,6,7
 341 348 341 348 348.161 273.508 c 1,8,9
 396 279 396 279 434 335 c 0,0,1
423 -298 m 1,10,11
 531.911041301 279.528274055 531.911041301 279.528274055 947.88 271.982 c 26,12,-1
 1006.63964844 270.916015625 l 1,13,-1
 1006.63964844 0.5830078125 l 1,14,-1
 926.471679688 0 l 6,15,16
 774 -1 774 -1 682.299600559 -123.09561381 c 0,17,18
 590.597812921 -246.197486851 590.597812921 -246.197486851 529.144 -523.286 c 2,19,-1
 516.715 -579.327 l 1,20,-1
 462.526 -560.389 l 2,21,22
 165 -456 165 -456 123.487 0 c 1,23,-1
 -21.935546875 0 l 1,24,-1
 -21.935546875 270.965820312 l 1,25,-1
 116.547 271.023 l 1,26,27
 112 536 112 536 167.156 661.65 c 0,28,29
 253 860 253 860 443.723 858.504 c 0,30,31
 698 856 698 856 698.08203125 551.892578125 c 0,32,33
 698 301 698 301 592.5 164 c 128,-1,34
 487 27 487 27 367.54 3.55566 c 1,35,36
 341 -169 341 -169 423 -298 c 1,10,11
EndSplineSet
EndChar
StartChar: uniFEEE
Encoding: 65262 65262 258
Width: 904
VWidth: 2283
GlyphClass: 2
Flags: W
AnchorPoint: "Anchor-10" 376 1161 basechar 0
AnchorPoint: "Anchor-7" 475.515 -683.238 basechar 0
LayerCount: 2
Fore
SplineSet
487.212 514.654 m 0,0,1
 438.951 513.569 438.951 513.569 408.502 486.999 c 128,-1,2
 378.053 460.428 378.053 460.428 358.716 397.084 c 0,3,4
 350.216 369.766 350.216 369.766 348.531 348.021 c 0,5,6
 345.243 305.599 345.243 305.599 368.147 285.119 c 0,7,8
 392.286 263.535 392.286 263.535 462.801 259.105 c 0,9,10
 527.885 254.676 527.885 254.676 597.836 259.886 c 1,11,12
 595.589 336.405 595.589 336.405 583.58 394.863 c 0,13,14
 569.502 465.119 569.502 465.119 546.083 490.441 c 128,-1,15
 522.663 515.762 522.663 515.762 487.212 514.654 c 0,0,1
671.692 -304.225 m 0,16,17
 498.007295981 -505.991524384 498.007295981 -505.991524384 145.291 -506.139 c 2,18,-1
 114.199 -506.152 l 1,19,-1
 -0.922001 -282.993 l 1,20,-1
 77.1665 -278.233 l 2,21,22
 290.072986459 -264.806204301 290.072986459 -264.806204301 410.169 -194.908 c 0,23,24
 532 -124 532 -124 575.087 1.36386 c 1,25,-1
 471.893 1.2393 l 2,26,27
 271 1 271 1 181.365 104.404 c 0,28,29
 89 212 89 212 106.961 358.271 c 1,30,31
 128 545 128 545 252.872 666.155 c 0,32,33
 367 777 367 777 504.301 768.724 c 0,34,35
 593 763 593 763 660.388 716.878 c 0,36,37
 728 671 728 671 766.927 588.701 c 0,38,39
 823 473 823 473 837.835 311.632 c 0,40,41
 840 288 840 288 841.27 270.693 c 1,42,-1
 924.66015625 271.59375 l 1,43,-1
 924.66015625 0.5 l 1,44,-1
 823.366 0.5 l 1,45,46
 787 -170 787 -170 671.692 -304.225 c 0,16,17
EndSplineSet
EndChar
StartChar: uniFEF0
Encoding: 65264 65264 280
Width: 1523
VWidth: 2232
GlyphClass: 2
Flags: W
AnchorPoint: "Anchor-10" 630.857 719.69 basechar 0
AnchorPoint: "Anchor-7" 304.067 -830.505 basechar 0
LayerCount: 2
Fore
SplineSet
1050.69 244.942 m 0,0,1
 1123.42 284.828 1123.42 284.828 1240.67 290.265 c 128,-1,2
 1357.92 295.701 1357.92 295.701 1510.71 271.511 c 1,3,-1
 1582.89 271.057 l 1,4,-1
 1582.89 0.489258 l 1,5,-1
 1345.14 0.544922 l 1,6,-1
 1343.52 0.649414 l 2,7,8
 1300.11 3.42676 1300.11 3.42676 1264.68 4.5498 c 1,9,10
 1340.5 -15.3333 1340.5 -15.3333 1383.39 -57.8854 c 128,-1,11
 1426.28 -100.438 1426.28 -100.438 1426.28 -172.426 c 0,12,13
 1426.28 -254.472 1426.28 -254.472 1375.82 -332.563 c 1,14,15
 1283.33 -469.244 1283.33 -469.244 1088.46 -563.352 c 0,16,17
 864.394 -671.558 864.394 -671.558 586.12 -656.727 c 0,18,19
 380.58 -645.771 380.58 -645.771 247.273 -562.159 c 128,-1,20
 113.967 -478.546 113.967 -478.546 64.9248 -323.013 c 0,21,22
 17.0225 -172.162 17.0225 -172.162 67.6309 2.41211 c 0,23,24
 129.659 218.016 129.659 218.016 263.589 382.76 c 2,25,-1
 292.247 418.015 l 1,26,-1
 490.744 291.553 l 1,27,-1
 460.849 248.033 l 2,28,29
 371.879 118.521 371.879 118.521 325.665 -31.0049 c 0,30,31
 281.824 -172.852 281.824 -172.852 332.984 -268.971 c 0,32,33
 391.243 -377.564 391.243 -377.564 596.854 -393.146 c 0,34,35
 820.767 -410.113 820.767 -410.113 995.237 -335.53 c 0,36,37
 1084.39 -297.418 1084.39 -297.418 1151.67 -240.746 c 0,38,39
 1176.17 -220.106 1176.17 -220.106 1144.67 -214.009 c 0,40,41
 1093.41 -204.087 1093.41 -204.087 1055.14 -191.545 c 0,42,43
 985.467 -168.714 985.467 -168.714 945.088 -119.03 c 128,-1,44
 904.708 -69.3467 904.708 -69.3467 903.038 -0.482422 c 0,45,46
 900.643 78.1582 900.643 78.1582 939.193 141.551 c 128,-1,47
 977.744 204.942 977.744 204.942 1050.69 244.942 c 0,0,1
EndSplineSet
EndChar
StartChar: uniFEFB
Encoding: 65275 65275 271
Width: 1125
VWidth: 2232
GlyphClass: 3
Flags: W
AnchorPoint: "Anchor-9" 866.69 1531 baselig 0
AnchorPoint: "Anchor-6" 908.69 -226.5 baselig 0
AnchorPoint: "Anchor-6" 204.5 -275.908 baselig 1
AnchorPoint: "Anchor-9" 179.565 1465.84 baselig 1
LayerCount: 2
Fore
SplineSet
619.236 260.627 m 1,0,1
 713.369 280.506 713.369 280.506 748.939 349.402 c 4,2,3
 773.048 395.683 773.048 395.683 768.33 498.497 c 2,4,-1
 728.94 1356.81 l 1,5,-1
 990.169 1470.98 l 1,6,-1
 990.169 487.69 l 2,7,8
 990.169 223.931 990.169 223.931 850.203 102.556 c 0,9,10
 777.921 39.2333 777.921 39.2333 643.249 16.5687 c 128,-1,11
 508.576 -6.09591 508.576 -6.09591 303.309 3.52441 c 0,12,13
 180.485 9.26675 180.485 9.26675 119.69 57.982 c 1,14,-1
 119.69 288.026 l 1,15,-1
 183.97 270.69 l 2,16,17
 292.263 241.484 292.263 241.484 386.925 240.791 c 1,18,-1
 13.709 1198.65 l 1,19,-1
 236.087 1372.03 l 1,20,-1
 619.236 260.627 l 1,0,1
EndSplineSet
LCarets2: 1 0 
Ligature2: "'rlig' Required Ligatures in Arabic lookup 16 subtable" uniFEDF uniFE8E
EndChar
StartChar: uniFEFC
Encoding: 65276 65276 262
Width: 1228
VWidth: 2181
GlyphClass: 3
Flags: W
AnchorPoint: "Anchor-9" 938.69 1521 baselig 0
AnchorPoint: "Anchor-6" 930.69 -164.5 baselig 0
AnchorPoint: "Anchor-6" 295 -218 baselig 1
AnchorPoint: "Anchor-9" 171.5 1385.5 baselig 1
LayerCount: 2
Fore
SplineSet
654.888671875 310.73828125 m 5,0,1
 899 438 899 438 866.454101562 953.624023438 c 2,2,-1
 840.6875 1364.55761719 l 1,3,-1
 1095.12988281 1478.08984375 l 1,4,-1
 1095.12988281 680.481445312 l 2,5,6
 1095.12988281 392.870018671 1095.12988281 392.870018671 1185.12207031 302.809570312 c 0,7,8
 1223 265 1223 265 1286.58984375 265.379882812 c 2,9,-1
 1312.94042969 265.379882812 l 1,10,-1
 1312.94042969 0.5 l 1,11,-1
 1274.9609375 0.5 l 1,12,13
 1036 -1 1036 -1 939.405273438 261.318359375 c 1,14,15
 911 217 911 217 873.93359375 175.869140625 c 0,16,17
 718 2 718 2 402.2265625 0.5009765625 c 0,18,19
 298 -0 298 -0 205.719726562 17.4072265625 c 2,20,-1
 169.080078125 24.3349609375 l 1,21,-1
 169.080078125 285.198242188 l 1,22,-1
 223.458007812 273.611328125 l 2,23,24
 362.265702792 244.034019054 362.265702792 244.034019054 429.547851562 252.6484375 c 1,25,26
 351 749 351 749 110.8671875 1162.92871094 c 2,27,-1
 91.5517578125 1196.20605469 l 1,28,-1
 296.08203125 1362.23632812 l 1,29,-1
 321.622070312 1313.578125 l 2,30,31
 560.866685779 857.775646882 560.866685779 857.775646882 654.888671875 310.73828125 c 5,0,1
EndSplineSet
LCarets2: 1 0
Ligature2: "'rlig' Required Ligatures in Arabic lookup 16 subtable" uniFEE0 uniFE8E
EndChar
StartChar: NameMe.336
Encoding: 65562 -1 306
Width: 615
Flags: W
LayerCount: 2
Fore
SplineSet
287.283 86.7383 m 1,0,1
 195.39 0 195.39 0 80.7002 -0 c 2,2,-1
 -71.4014 -0 l 1,3,-1
 -71.4014 270.98 l 1,4,-1
 21.8486 270.98 l 2,5,6
 108.233 270.98 108.233 270.98 152.438 310.605 c 0,7,8
 201.681 354.806 201.681 354.806 196.349 448.844 c 2,9,-1
 155.662 1166.32 l 5,10,-1
 416.169 1279.56 l 1,11,-1
 416.169 451.31 l 2,12,13
 416.169 399.291 416.169 399.291 422.865 363.983 c 0,14,15
 440.501 270.98 440.501 270.98 594.609 270.98 c 2,16,-1
 686.859 270.98 l 1,17,-1
 686.859 -0 l 1,18,-1
 535.759 -0 l 2,19,20
 385.068 0 385.068 0 287.283 86.7383 c 1,0,1
EndSplineSet
EndChar
StartChar: NameMe.337
Encoding: 65562 -1 296
Width: 621
VWidth: 2181
Flags: W
LayerCount: 2
Fore
SplineSet
83.7001953125 0 m 2,0,-1
 -10.400390625 0 l 1,1,-1
 -10.400390625 264.98046875 l 1,2,-1
 25.37890625 264.98046875 l 2,3,4
 110 265 110 265 159.062011719 306.775878906 c 0,5,6
 208.44649905 349.385243256 208.44649905 349.385243256 202.361328125 445.702148438 c 2,7,-1
 161.53515625 1091.90429688 l 1,8,-1
 416.169921875 1200.65332031 l 1,9,-1
 416.169921875 448.2734375 l 2,10,11
 416 349 416 349 458.312988281 306.885742188 c 0,12,13
 501.019904881 264.98046875 501.019904881 264.98046875 597.610351562 264.98046875 c 2,14,-1
 631.860351562 264.98046875 l 5,15,-1
 631.860351562 0 l 5,16,-1
 538.759765625 0 l 2,17,18
 396 0 396 0 290.537109375 89.8115234375 c 1,19,20
 193 0 193 0 83.7001953125 0 c 2,0,-1
EndSplineSet
EndChar
StartChar: NameMe.338
Encoding: 65563 -1 297
Width: 575
VWidth: 2181
Flags: W
LayerCount: 2
Fore
SplineSet
444.169921875 484.690429688 m 2,0,1
 444.169921875 236.188155593 444.169921875 236.188155593 337.584960938 118.165938131 c 128,-1,2
 231 0 231 0 64.7001953125 0 c 2,3,-1
 -10.400390625 0 l 1,4,-1
 -10.400390625 264.98046875 l 1,5,-1
 15.8447265625 264.98046875 l 2,6,7
 153.566353151 264.999524896 153.566353151 264.999524896 209.674804688 374.680664062 c 0,8,9
 232.187592428 419.372403095 232.187592428 419.372403095 228.337890625 495.369140625 c 2,10,-1
 188.854492188 1274.80859375 l 1,11,-1
 444.169921875 1386.39257812 l 1,12,-1
 444.169921875 484.690429688 l 2,0,1
EndSplineSet
EndChar
StartChar: arabic_2dots
Encoding: 65537 -1 264
Width: 458
GlyphClass: 2
Flags: W
LayerCount: 2
Fore
SplineSet
406.942220337 195.781946537 m 2,0,-1
 485.442021841 117.28214503 l 2,1,2
 500.249660013 102.475092024 500.249660013 102.475092024 500.425522421 85.7167000292 c 128,-1,3
 500.60138483 68.9583080342 500.60138483 68.9583080342 485.942161562 54.2179946881 c 2,4,-1
 403.942161562 -27.7820053119 l 2,5,6
 388.292102131 -43.4320647423 388.292102131 -43.4320647423 370.735981847 -43.617354351 c 128,-1,7
 353.179861562 -43.8026439597 353.179861562 -43.8026439597 337.557838438 -28.2820053119 c 2,8,-1
 255.557978159 53.71785497 l 2,9,10
 223.774592245 85.4999848728 223.774592245 85.4999848728 258.557838438 120.282005312 c 2,11,-1
 335.057716745 196.781883616 l 2,12,13
 370.499995857 232.225382688 370.499995857 232.225382688 406.942220337 195.781946537 c 2,0,-1
123.942220337 195.781946537 m 2,14,-1
 202.442021841 117.28214503 l 2,15,16
 217.249660013 102.475092024 217.249660013 102.475092024 217.425522421 85.7167000292 c 128,-1,17
 217.60138483 68.9583080342 217.60138483 68.9583080342 202.942161562 54.2179946881 c 2,18,-1
 120.942161562 -27.7820053119 l 2,19,20
 105.292102131 -43.4320647423 105.292102131 -43.4320647423 87.7359818465 -43.617354351 c 128,-1,21
 70.1798615615 -43.8026439597 70.1798615615 -43.8026439597 54.5578384381 -28.2820053119 c 2,22,-1
 -27.4421615619 53.7179946881 l 2,23,24
 -59.2241668737 85.5 -59.2241668737 85.5 -24.4421615619 120.282005312 c 2,25,-1
 52.0577167446 196.781883616 l 2,26,27
 68.8830145788 213.570010403 68.8830145788 213.570010403 87.8016089631 213.287273273 c 128,-1,28
 106.720203347 213.004536143 106.720203347 213.004536143 123.942220337 195.781946537 c 2,14,-1
EndSplineSet
EndChar
StartChar: arabic_3dots
Encoding: 65538 -1 295
Width: 455
GlyphClass: 2
Flags: W
LayerCount: 2
Fore
SplineSet
269.167 394.064 m 2,0,-1
 281.893 382.703 l 2,1,2
 291.95 373.728 291.95 373.728 299.854 364.58 c 0,3,4
 333.1 325.649 333.1 325.649 327.947 284.97 c 0,5,6
 322.9 245.114 322.9 245.114 281.985 209.86 c 2,7,-1
 256.064 187.528 l 2,8,9
 225.48 161.174 225.48 161.174 197.784 189.171 c 2,10,-1
 156.336 231.07 l 1,11,-1
 119.919 260.293 l 2,12,13
 104.678 273.379 104.678 273.379 105 290.81 c 0,14,15
 105.3 307.072 105.3 307.072 118.238 320.694 c 2,16,-1
 158.053 362.61 l 1,17,-1
 194.404 396.612 l 2,18,19
 229.524 429.451 229.524 429.451 269.167 394.064 c 2,0,-1
410.205 170.146 m 2,20,-1
 422.743 158.953 l 2,21,22
 432.801 149.976 432.801 149.976 440.704 140.83 c 0,23,24
 473.95 101.898 473.95 101.898 468.797 61.2199 c 0,25,26
 463.806 21.8056 463.806 21.8056 423.288 -13.4997 c 2,27,-1
 396.914 -36.2218 l 2,28,29
 366.33 -62.5764 366.33 -62.5764 338.634 -34.5792 c 2,30,-1
 297.186 7.32036 l 1,31,-1
 260.769 36.5433 l 2,32,33
 245.527 49.6288 245.527 49.6288 245.85 67.0603 c 0,34,35
 246.15 83.3222 246.15 83.3222 259.088 96.944 c 2,36,-1
 298.903 138.86 l 1,37,-1
 335.254 172.862 l 2,38,39
 370.373 205.701 370.373 205.701 410.205 170.146 c 2,20,-1
132.807 170.502 m 2,40,-1
 145.743 158.953 l 2,41,42
 155.8 149.977 155.8 149.977 163.704 140.83 c 0,43,44
 196.559 102.355 196.559 102.355 191.805 61.2453 c 0,45,46
 186.284 20.9622 186.284 20.9622 145.835 -13.89 c 2,47,-1
 119.914 -36.2218 l 2,48,49
 89.3295 -62.5763 89.3295 -62.5763 61.6339 -34.5792 c 2,50,-1
 20.1861 7.32039 l 1,51,-1
 -16.2311 36.5435 l 2,52,53
 -31.4724 49.6286 -31.4724 49.6286 -31.1495 67.0603 c 0,54,55
 -30.8501 83.3222 -30.8501 83.3222 -17.9123 96.944 c 2,56,-1
 22.0052 138.967 l 1,57,-1
 58.2539 172.862 l 2,58,59
 93.3737 205.701 93.3737 205.701 132.807 170.502 c 2,40,-1
EndSplineSet
EndChar
StartChar: arabic_3dots_a
Encoding: 65539 -1 266
Width: 460
GlyphClass: 2
Flags: W
LayerCount: 2
Fore
SplineSet
260.192161562 -4.3556900006 m 2,0,-1
 338.692021841 -82.8555502824 l 2,1,2
 353.499708293 -97.6626515663 353.499708293 -97.6626515663 353.675560567 -114.421205937 c 128,-1,3
 353.851412841 -131.179760309 353.851412841 -131.179760309 339.192161562 -145.920677187 c 2,4,-1
 257.192161562 -227.920677187 l 2,5,6
 241.542102131 -243.570736617 241.542102131 -243.570736617 223.985981847 -243.756026226 c 128,-1,7
 206.429861562 -243.941315835 206.429861562 -243.941315835 190.807838438 -228.420677187 c 2,8,-1
 108.80769872 -146.420537466 l 2,9,10
 77.0259728445 -114.637555594 77.0259728445 -114.637555594 111.807838438 -79.8556900006 c 2,11,-1
 188.733769781 -2.92975865738 l 2,12,13
 224.254454551 31.5820170098 224.254454551 31.5820170098 260.192161562 -4.3556900006 c 2,0,-1
407.942220338 203.781946536 m 2,14,-1
 486.442021841 125.28214503 l 2,15,16
 501.249660013 110.475092024 501.249660013 110.475092024 501.425522421 93.7167000292 c 128,-1,17
 501.60138483 76.9583080342 501.60138483 76.9583080342 486.942161562 62.2179946881 c 2,18,-1
 404.942161562 -19.7820053119 l 2,19,20
 389.292102131 -35.4320647423 389.292102131 -35.4320647423 371.735981847 -35.617354351 c 128,-1,21
 354.179861562 -35.8026439597 354.179861562 -35.8026439597 338.557838438 -20.2820053119 c 2,22,-1
 256.557978159 61.71785497 l 2,23,24
 224.774592245 93.4999848728 224.774592245 93.4999848728 259.557838438 128.282005312 c 2,25,-1
 336.057716745 204.781883616 l 2,26,27
 347.190844192 215.915394277 347.190844192 215.915394277 359.488722184 219.578138803 c 128,-1,28
 371.786600176 223.240883329 371.786600176 223.240883329 384.158575649 219.217439254 c 128,-1,29
 396.530551122 215.193995179 396.530551122 215.193995179 407.942220338 203.781946536 c 2,14,-1
124.942220338 203.781946536 m 2,30,-1
 203.442021841 125.28214503 l 2,31,32
 218.249660013 110.475092024 218.249660013 110.475092024 218.425522421 93.7167000292 c 128,-1,33
 218.60138483 76.9583080342 218.60138483 76.9583080342 203.942161562 62.2179946881 c 2,34,-1
 121.942161562 -19.7820053119 l 2,35,36
 106.292102131 -35.4320647423 106.292102131 -35.4320647423 88.7359818465 -35.617354351 c 128,-1,37
 71.1798615615 -35.8026439597 71.1798615615 -35.8026439597 55.5578384381 -20.2820053119 c 2,38,-1
 -26.4421615619 61.7179946881 l 2,39,40
 -58.2241668737 93.5 -58.2241668737 93.5 -23.4421615619 128.282005312 c 2,41,-1
 53.0577167446 204.781883616 l 2,42,43
 88.4999958567 240.225382688 88.4999958567 240.225382688 124.942220338 203.781946536 c 2,30,-1
EndSplineSet
EndChar
StartChar: arabic_dot
Encoding: 65536 -1 293
Width: 150
GlyphClass: 2
Flags: W
LayerCount: 2
Fore
SplineSet
124.752 182.551 m 2,0,-1
 137.743 170.953 l 2,1,2
 147.8 161.977 147.8 161.977 155.704 152.83 c 0,3,4
 188.95 113.898 188.95 113.898 183.797 73.2199 c 0,5,6
 178.749 33.3631 178.749 33.3631 137.835 -1.89004 c 2,7,-1
 111.914 -24.2218 l 2,8,9
 81.3295 -50.5762 81.3295 -50.5762 53.6339 -22.5792 c 2,10,-1
 12.1861 19.3204 l 1,11,-1
 -24.2312 48.5435 l 2,12,13
 -39.4724 61.6287 -39.4724 61.6287 -39.1495 79.0603 c 0,14,15
 -38.8501 95.3222 -38.8501 95.3222 -25.9123 108.944 c 2,16,-1
 14.0052 150.967 l 1,17,-1
 50.2539 184.862 l 2,18,19
 85.3737 217.701 85.3737 217.701 124.752 182.551 c 2,0,-1
EndSplineSet
EndChar
StartChar: arabic_gaf_bar
Encoding: 65550 -1 277
Width: 680
GlyphClass: 2
Flags: W
LayerCount: 2
Fore
SplineSet
672 1674.19238281 m 1,0,-1
 0 1319.02148438 l 1,1,-1
 0 1454.80761719 l 5,2,-1
 672 1809.97851562 l 5,3,-1
 672 1674.19238281 l 1,0,-1
EndSplineSet
EndChar
StartChar: arabic_ring
Encoding: 65549 -1 276
Width: 444
GlyphClass: 2
Flags: W
LayerCount: 2
Fore
SplineSet
215.313476562 317 m 0,0,1
 200.881835938 317 200.881835938 317 186.940429688 303.059570312 c 128,-1,2
 173 289.118164062 173 289.118164062 173 274.504882812 c 128,-1,3
 173 259.891601562 173 259.891601562 176.381835938 246.345214844 c 0,4,5
 183.208529446 219 183.208529446 219 227.104264723 219 c 128,-1,6
 271 219 271 219 271 262.967433004 c 0,7,8
 271 317 271 317 215.313476562 317 c 0,0,1
489 268 m 128,-1,10
 489 156.338139578 489 156.338139578 412.06640625 78.1845703125 c 0,11,12
 333.881835938 0 333.881835938 0 222 0 c 128,-1,13
 110 0 110 0 32.4267578125 78.1845703125 c 128,-1,14
 -45 156.221679688 -45 156.221679688 -45 268 c 128,-1,15
 -45 379.881835938 -45 379.881835938 32.5595703125 457.440429688 c 128,-1,16
 110.118164062 535 110.118164062 535 221.889648438 535 c 128,-1,17
 333.661132812 535 333.661132812 535 411.94140625 457.94140625 c 0,18,9
 489 379.661132812 489 379.661132812 489 268 c 128,-1,10
EndSplineSet
EndChar
StartChar: uni066E.fina
Encoding: 65540 -1 277
Width: 2051
VWidth: 2232
GlyphClass: 2
Flags: W
AnchorPoint: "Anchor-10" 703 1111.5 basechar 0
AnchorPoint: "Anchor-7" 703 -128 basechar 0
LayerCount: 2
Fore
SplineSet
359.331 70.3232 m 0,0,1
 218.717 129.1 218.717 129.1 138.948 237.435 c 128,-1,2
 59.1807 345.77 59.1807 345.77 45.5898 496.569 c 0,3,4
 34.5693 614.426 34.5693 614.426 78.751 767.869 c 2,5,-1
 92.5498 815.794 l 1,6,-1
 313.657 757.453 l 1,7,-1
 306.916 712.27 l 2,8,9
 288.13 586.341 288.13 586.341 290.496 528.318 c 0,10,11
 294.658 426.3 294.658 426.3 360.487 366.646 c 128,-1,12
 426.316 306.991 426.316 306.991 569.569 284.779 c 0,13,14
 642.171 273.559 642.171 273.559 805.23 273.017 c 0,15,16
 1250.38 271.909 1250.38 271.909 1399.09 342.434 c 0,17,18
 1483 382.392 1483 382.392 1528.28 444.17 c 128,-1,19
 1573.56 505.949 1573.56 505.949 1584.71 595.123 c 2,20,-1
 1590.29 639.795 l 1,21,-1
 1791.37 639.795 l 1,22,-1
 1795.05 592.775 l 2,23,24
 1800.37 524.811 1800.37 524.811 1810.58 466.545 c 0,25,26
 1821.91 401.795 1821.91 401.795 1838.84 360.884 c 0,27,28
 1875.9 271.38 1875.9 271.38 2004.97 271.38 c 2,29,-1
 2122.17 271.38 l 1,30,-1
 2122.17 0.5 l 1,31,-1
 1960.03 0.5 l 2,32,33
 1854.02 0.5 1854.02 0.5 1771.29 45.6572 c 128,-1,34
 1688.56 90.8135 1688.56 90.8135 1636.88 177.188 c 1,35,36
 1582.64 136.034 1582.64 136.034 1492.71 93.7305 c 0,37,38
 1293.46 -0 1293.46 -0 857.779 0 c 0,39,40
 527.57 0 527.57 0 359.331 70.3232 c 0,0,1
EndSplineSet
EndChar
StartChar: uni066E.init.math
Encoding: 65560 -1 287
Width: 883
VWidth: 2181
GlyphClass: 2
Flags: W
LayerCount: 2
Fore
SplineSet
613.372070312 111.1875 m 0,0,1
 526.693359375 8.5 526.693359375 8.5 345.400390625 8.5 c 2,2,-1
 -48.400390625 8.5 l 1,3,-1
 -48.400390625 265.379882812 l 1,4,-1
 286.549804688 265.379882812 l 2,5,6
 380.389648438 265.379882812 380.389648438 265.379882812 421.189453125 307.561523438 c 128,-1,7
 461.990234375 349.744140625 461.990234375 349.744140625 461.990234375 448.309570312 c 2,8,-1
 461.990234375 710.5 l 1,9,-1
 718.870117188 710.5 l 1,10,-1
 718.870117188 448.309570312 l 2,11,12
 718.870117188 237.96484375 718.870117188 237.96484375 613.372070312 111.1875 c 0,0,1
EndSplineSet
EndChar
StartChar: uni066F.fina
Encoding: 65546 -1 273
Width: 1575
VWidth: 2181
GlyphClass: 2
Flags: W
AnchorPoint: "Anchor-10" 431 948 basechar 0
AnchorPoint: "Anchor-7" 514.645 -670.82 basechar 0
LayerCount: 2
Fore
SplineSet
1264.93652344 254.069335938 m 5,0,1
 1258.06347656 524.580078125 1258.06347656 524.580078125 1144.00488281 521.650390625 c 4,2,3
 1096.85742188 520.573242188 1096.85742188 520.573242188 1065.1796875 491.587890625 c 4,4,5
 1023.40234375 453.364257812 1023.40234375 453.364257812 1006.04589844 368.990234375 c 4,6,7
 990.353515625 292.70703125 990.353515625 292.70703125 1043.55078125 268.881835938 c 4,8,9
 1082.8046875 251.301757812 1082.8046875 251.301757812 1148.59472656 251.669921875 c 132,-1,10
 1214.38378906 252.038085938 1214.38378906 252.038085938 1264.93652344 254.069335938 c 5,0,1
1253.64453125 1.689453125 m 5,11,12
 1205 1 1205 1 1114.58398438 1.2080078125 c 4,13,14
 929 1 929 1 839.2890625 105.427734375 c 4,15,16
 749 210 749 210 766.954101562 355.0390625 c 4,17,18
 790 550 790 550 907.7578125 663.930664062 c 4,19,20
 1026 778 1026 778 1161.03222656 769.735351562 c 4,21,22
 1461 752 1461 752 1498.85546875 308.219726562 c 4,23,24
 1501 283 1501 283 1502.25878906 265.419921875 c 5,25,-1
 1535.57714844 265.379882812 l 5,26,-1
 1585.95996094 265.379882812 l 5,27,-1
 1585.95996094 0.076171875 l 5,28,-1
 1498.97363281 1.3154296875 l 5,29,30
 1469 -253 1469 -253 1276.69824219 -424.032226562 c 4,31,32
 1084 -595 1084 -595 750.279296875 -588.010742188 c 4,33,34
 417 -581 417 -581 259.552734375 -420.856445312 c 4,35,36
 102 -261 102 -261 91.5791015625 -9.6328125 c 5,37,38
 89 39 89 39 92.4931640625 86.3671875 c 28,39,40
 104 279 104 279 189.729492188 456.29296875 c 6,41,-1
 205.720703125 489.373046875 l 5,42,-1
 445.487304688 428.42578125 l 5,43,-1
 427.48828125 381.224609375 l 6,44,45
 344 162 344 162 344.782226562 34.4111328125 c 4,46,47
 346 -157 346 -157 449.655273438 -246.40625 c 4,48,49
 553 -336 553 -336 776.021484375 -333.857421875 c 4,50,51
 1050 -331 1050 -331 1172.40429688 -187.26953125 c 4,52,53
 1240 -108 1240 -108 1253.64453125 1.689453125 c 5,11,12
EndSplineSet
EndChar
StartChar: uni06A1.fina
Encoding: 65543 -1 270
Width: 1880
VWidth: 2181
GlyphClass: 2
Flags: W
AnchorPoint: "Anchor-10" 530 1215.5 basechar 0
AnchorPoint: "Anchor-7" 637 -175.5 basechar 0
LayerCount: 2
Fore
SplineSet
1679.8046875 299.604492188 m 1,0,1
 1739.41749837 265.379882812 1739.41749837 265.379882812 1825.88964844 265.379882812 c 2,2,-1
 1935.59960938 265.379882812 l 1,3,-1
 1935.59960938 0.5 l 1,4,-1
 1818.27636719 0.5 l 2,5,6
 1592.84667969 0.00390625 1592.84667969 0.00390625 1436.64648438 136.796875 c 1,7,8
 1322.46972656 65.5048828125 1322.46972656 65.5048828125 1209.12402344 32.7524414062 c 128,-1,9
 1095.77832031 0 1095.77832031 0 809.081054688 0 c 128,-1,10
 522.383789062 0 522.383789062 0 368.949707031 63.9858398438 c 0,11,12
 4.65459504265 215.905989415 4.65459504265 215.905989415 47.8857421875 621.14453125 c 0,13,14
 55.4853515625 692.390625 55.4853515625 692.390625 76.3505859375 766.592773438 c 2,15,-1
 88.3369140625 809.21875 l 1,16,-1
 304.61328125 752.154296875 l 1,17,-1
 298.313476562 712.026367188 l 2,18,19
 277.16796875 577.330078125 277.16796875 577.330078125 279.4921875 525.338867188 c 0,20,21
 283.921875 422.353515625 283.921875 422.353515625 351.323242188 361.771484375 c 128,-1,22
 418.724609375 301.188476562 418.724609375 301.188476562 563.161132812 278.806640625 c 0,23,24
 607.333984375 271.905273438 607.333984375 271.905273438 761.041503906 267.985351562 c 0,25,26
 1004.0946975 261.786894042 1004.0946975 261.786894042 1158.48339844 288.635742188 c 1,27,28
 1139.01171875 307.729492188 1139.01171875 307.729492188 1123.38085938 327.53515625 c 0,29,30
 984.20703125 507.374023438 984.20703125 507.374023438 1063.52148438 704.795898438 c 1,31,32
 1128.64045028 850.515067833 1128.64045028 850.515067833 1293.26269531 907.84765625 c 0,33,34
 1459.38599018 965.629843988 1459.38599018 965.629843988 1611.48632812 875.28515625 c 0,35,36
 1760.37677222 787.094562094 1760.37677222 787.094562094 1789.08398438 626.684570312 c 0,37,38
 1824.36523438 435.83203125 1824.36523438 435.83203125 1679.8046875 299.604492188 c 1,0,1
1419.12011719 690.896484375 m 128,-1,40
 1361.97425387 690.896484375 1361.97425387 690.896484375 1331.1443535 660.069824219 c 0,41,42
 1281.05957031 609.990304934 1281.05957031 609.990304934 1281.05957031 561.918980592 c 0,43,44
 1281.05957031 473.235829774 1281.05957031 473.235829774 1350.68359375 432.411132812 c 0,45,46
 1440.96540465 379.482045544 1440.96540465 379.482045544 1525.64355469 464.153320312 c 0,47,48
 1557.1796875 495.6875 1557.1796875 495.6875 1557.1796875 552.83984375 c 128,-1,49
 1557.1796875 609.9921875 1557.1796875 609.9921875 1516.73144531 650.44140625 c 128,-1,39
 1476.27050781 690.896484375 1476.27050781 690.896484375 1419.12011719 690.896484375 c 128,-1,40
EndSplineSet
EndChar
StartChar: uni06A1.init
Encoding: 65544 -1 281
Width: 864
VWidth: 2283
GlyphClass: 2
Flags: W
AnchorPoint: "Anchor-10" 405.53 1318.5 basechar 0
AnchorPoint: "Anchor-7" 390.53 -244 basechar 0
LayerCount: 2
Fore
SplineSet
409.62 848.156 m 0,0,1
 369.588 847.01 369.588 847.01 342.446 819.082 c 128,-1,2
 315.306 791.154 315.306 791.154 298.011 722.254 c 0,3,4
 295.264 711.181 295.264 711.181 293.53 700.969 c 0,5,6
 284.303 646.581 284.303 646.581 298.075 628.401 c 0,7,8
 316.849 602.483 316.849 602.483 366.741 595.404 c 0,9,10
 471.703 582.387 471.703 582.387 535.365 627.113 c 1,11,12
 533.981 655.097 533.981 655.097 524.21 707.979 c 0,13,14
 509.11 788.578 509.11 788.578 481.248 819.003 c 128,-1,15
 453.386 849.429 453.386 849.429 409.62 848.156 c 0,0,1
773.951 665.354 m 0,16,17
 787.394389494 547.317423185 787.394389494 547.317423185 765.867 370.679 c 0,18,19
 741 166 741 166 586.638 67.9717 c 0,20,21
 529 31 529 31 433.755 15.6348 c 0,22,23
 339 0 339 0 196.229 0 c 2,24,-1
 -21.400390625 0 l 5,25,-1
 -21.400390625 270.98046875 l 5,26,-1
 82 270.98 l 2,27,28
 177 271 177 271 257.345 273.103 c 0,29,30
 337 275 337 275 380.156 278.318 c 0,31,32
 423 281 423 281 431.95 283.902 c 0,33,34
 489 307 489 307 511.996 365.87 c 1,35,36
 458 352 458 352 381.985 350.378 c 0,37,38
 197 347 197 347 111.807 461.269 c 0,39,40
 37 561 37 561 54.2891 707.782 c 0,41,42
 75 888 75 888 177.835 996.442 c 0,43,44
 242 1064 242 1064 319.969 1090.1 c 128,-1,45
 398 1116 398 1116 483.525 1098.52 c 0,46,47
 608 1072 608 1072 684.061 945.525 c 0,48,49
 755 827 755 827 773.951 665.354 c 0,16,17
EndSplineSet
EndChar
StartChar: uni06A1.medi
Encoding: 65545 -1 282
Width: 1008
VWidth: 2232
GlyphClass: 2
Flags: W
AnchorPoint: "Anchor-10" 554.26 1058 basechar 0
AnchorPoint: "Anchor-7" 554.26 -119 basechar 0
LayerCount: 2
Fore
SplineSet
372.427 539.602 m 128,-1,1
 372.427 484.63 372.427 484.63 412.473 445.482 c 0,2,3
 453.18 405.689 453.18 405.689 511.033 405.689 c 128,-1,4
 568.884 405.689 568.884 405.689 609.591 445.482 c 0,5,6
 649.636 484.629 649.636 484.629 649.636 539.602 c 128,-1,7
 649.636 594.568 649.636 594.568 609.591 633.715 c 0,8,9
 568.883 673.509 568.883 673.509 511.033 673.509 c 128,-1,10
 453.183 673.509 453.183 673.509 412.471 633.713 c 0,11,0
 372.427 594.573 372.427 594.573 372.427 539.602 c 128,-1,1
703.062 882.931 m 0,12,13
 856 812 856 812 897.605 644.878 c 0,14,15
 924 538 924 538 883.988 408.085 c 0,16,17
 862 336 862 336 798.257 275.688 c 1,18,19
 947.992739697 270.968711377 947.992739697 270.968711377 949.86 270.982 c 2,20,-1
 1029.91992188 271.551757812 l 1,21,-1
 1029.91992188 0.595703125 l 1,22,-1
 813.825 0.00195312 l 2,23,24
 678 -0 678 -0 509.592 97.7754 c 1,25,26
 349.003207913 0.00195311691935 349.003207913 0.00195311691935 207.792 0.00195312 c 2,27,-1
 -21.3984375 0.001953125 l 5,28,-1
 -21.3984375 270.982421875 l 5,29,-1
 70.4922 270.982 l 2,30,31
 160 271 160 271 223.342 277.856 c 1,32,33
 174 331 174 331 143.821 397.897 c 0,34,35
 92 512 92 512 128.533 647.412 c 0,36,37
 176 821 176 821 346.72 889.632 c 0,38,39
 421 920 421 920 515.258 920.515 c 0,40,41
 622 921 622 921 703.062 882.931 c 0,12,13
EndSplineSet
EndChar
